<svg width="112" height="32" xmlns="http://www.w3.org/2000/svg" xmlns:xlink="http://www.w3.org/1999/xlink"><title>Page 1</title><defs><path id="a" d="M112 16v16H0V0h112v16z"/></defs><g fill="none" fill-rule="evenodd"><mask id="b" fill="#fff"><use xlink:href="#a"/></mask><path d="M112 28.792A3.215 3.215 0 0 1 108.775 32H3.229C1.447 32 0 30.564 0 28.792V3.212A3.223 3.223 0 0 1 3.229 0h105.545a3.218 3.218 0 0 1 3.225 3.212l.001 25.58z" fill="#A8A8A8" mask="url(#b)"/><path d="M24.595 15.824c-.024-2.699 2.22-4.013 2.323-4.074-1.27-1.845-3.242-2.097-3.934-2.117-1.655-.173-3.26.986-4.102.986-.86 0-2.158-.969-3.557-.94-1.8.027-3.484 1.065-4.408 2.676-1.906 3.286-.485 8.114 1.342 10.77.913 1.3 1.981 2.753 3.378 2.702 1.367-.057 1.878-.868 3.527-.868 1.635 0 2.114.868 3.54.835 1.466-.024 2.39-1.307 3.271-2.619 1.056-1.49 1.48-2.959 1.497-3.034-.035-.012-2.849-1.082-2.877-4.317m-2.692-7.938c.735-.915 1.238-2.161 1.1-3.425-1.066.047-2.396.733-3.163 1.629-.678.788-1.283 2.082-1.127 3.298 1.195.088 2.423-.601 3.19-1.502M44.378 25.64h-1.91l-1.047-3.274h-3.637l-.997 3.274h-1.86l3.604-11.146h2.226l3.62 11.146zm-3.272-4.647l-.947-2.911c-.1-.297-.287-.997-.564-2.1h-.034c-.11.475-.287 1.175-.531 2.1l-.93 2.91h3.006zm12.539.53c0 1.367-.37 2.447-1.113 3.24-.664.706-1.49 1.059-2.475 1.059-1.063 0-1.827-.38-2.292-1.141h-.034v4.234h-1.793v-8.666c0-.86-.023-1.741-.067-2.646h1.578l.1 1.274h.033c.6-.96 1.506-1.44 2.724-1.44.952 0 1.747.376 2.383 1.125.638.75.956 1.737.956 2.96m-1.827.066c0-.782-.177-1.427-.532-1.934-.388-.53-.908-.794-1.56-.794-.444 0-.846.147-1.205.438-.36.293-.595.676-.706 1.15a2.353 2.353 0 0 0-.083.544v1.34c0 .585.18 1.078.54 1.48.36.404.828.605 1.403.605.676 0 1.202-.26 1.578-.778.376-.518.565-1.201.565-2.051m11.112-.065c0 1.367-.371 2.447-1.114 3.24-.663.706-1.49 1.059-2.474 1.059-1.063 0-1.827-.38-2.291-1.141h-.034v4.234h-1.793v-8.666c0-.86-.023-1.741-.067-2.646h1.577l.1 1.274h.034c.598-.96 1.505-1.44 2.724-1.44.95 0 1.746.376 2.384 1.125.635.75.954 1.737.954 2.96m-1.827.066c0-.782-.178-1.427-.533-1.934-.387-.53-.906-.794-1.56-.794-.443 0-.845.147-1.205.438-.36.293-.594.676-.705 1.15a2.409 2.409 0 0 0-.083.544v1.34c0 .585.18 1.078.539 1.48.36.403.827.605 1.404.605.676 0 1.202-.26 1.578-.778.376-.518.565-1.201.565-2.051m12.207.926c0 .948-.33 1.72-.994 2.315-.73.651-1.745.976-3.05.976-1.204 0-2.17-.232-2.9-.695l.415-1.488a4.93 4.93 0 0 0 2.592.712c.676 0 1.201-.153 1.58-.456.375-.303.563-.71.563-1.217a1.55 1.55 0 0 0-.465-1.143c-.309-.309-.825-.596-1.545-.862-1.96-.727-2.939-1.794-2.939-3.196 0-.916.343-1.667 1.03-2.252.685-.585 1.6-.877 2.741-.877 1.02 0 1.865.176 2.54.53l-.448 1.454c-.63-.34-1.344-.512-2.142-.512-.63 0-1.124.155-1.478.463a1.323 1.323 0 0 0-.448 1.01c0 .44.171.804.514 1.091.3.264.841.551 1.63.86.962.386 1.67.837 2.124 1.355.454.516.68 1.161.68 1.932m5.93-3.571h-1.977v3.902c0 .992.348 1.488 1.047 1.488.32 0 .586-.027.796-.083l.05 1.356c-.353.132-.819.198-1.395.198-.708 0-1.262-.215-1.661-.645-.398-.43-.598-1.152-.598-2.167v-4.051h-1.178v-1.34h1.178V16.13l1.761-.53v2.001h1.977v1.342zm8.92 2.612c0 1.235-.356 2.25-1.064 3.043-.743.816-1.729 1.223-2.958 1.223-1.184 0-2.127-.39-2.83-1.173-.704-.782-1.056-1.77-1.056-2.96 0-1.245.362-2.265 1.088-3.058.724-.794 1.702-1.19 2.931-1.19 1.184 0 2.137.39 2.857 1.173.688.76 1.031 1.74 1.031 2.942m-1.86.058c0-.74-.16-1.377-.482-1.907-.376-.642-.913-.962-1.61-.962-.72 0-1.269.321-1.645.962-.322.531-.48 1.176-.48 1.94 0 .741.158 1.377.48 1.906.388.642.93.962 1.63.962.684 0 1.221-.327 1.61-.978.33-.54.496-1.183.496-1.923m7.691-2.44a3.095 3.095 0 0 0-.565-.049c-.631 0-1.12.237-1.462.711-.3.42-.45.95-.45 1.588v4.217h-1.791l.017-5.506c0-.927-.023-1.77-.068-2.53h1.562l.066 1.537h.05c.189-.528.488-.954.896-1.273.4-.287.83-.43 1.297-.43.165 0 .315.011.448.032v1.703zm8.021 2.068c0 .32-.021.59-.066.81h-5.38c.02.794.28 1.401.78 1.82.454.374 1.04.562 1.76.562.797 0 1.524-.127 2.178-.38l.28 1.24c-.763.331-1.665.496-2.706.496-1.251 0-2.234-.367-2.95-1.1-.712-.733-1.07-1.717-1.07-2.95 0-1.213.332-2.222.998-3.027.696-.86 1.638-1.289 2.822-1.289 1.163 0 2.044.43 2.642 1.29.474.681.712 1.525.712 2.528zm-1.71-.463c.012-.529-.105-.987-.348-1.373-.311-.497-.788-.744-1.43-.744-.586 0-1.063.242-1.427.727-.3.386-.476.85-.531 1.39h3.736zM35.78 5.346c.19-.114.406-.21.649-.288.24-.08.525-.118.853-.118.527 0 .943.125 1.247.373.305.249.457.585.457 1.008 0 .336-.102.617-.306.845a1.48 1.48 0 0 1-.78.455v.024c.175.028.34.075.494.142a1.34 1.34 0 0 1 .686.67c.067.153.102.32.102.505 0 .304-.062.558-.184.764a1.529 1.529 0 0 1-.482.504 2.01 2.01 0 0 1-.664.28 3.29 3.29 0 0 1-.734.086c-.262 0-.52-.028-.776-.082a2.391 2.391 0 0 1-.71-.268l.22-.674c.142.07.324.138.547.204.223.065.448.097.677.097.375 0 .666-.084.869-.251a.831.831 0 0 0 .306-.675.827.827 0 0 0-.122-.467.904.904 0 0 0-.32-.29 1.416 1.416 0 0 0-.436-.145 2.974 2.974 0 0 0-.477-.041h-.367v-.667h.367c.169 0 .325-.021.47-.066a1.17 1.17 0 0 0 .375-.182.885.885 0 0 0 .249-.281.751.751 0 0 0 .089-.366.691.691 0 0 0-.262-.573c-.174-.138-.408-.207-.701-.207-.201 0-.403.032-.604.097a4.464 4.464 0 0 0-.54.21l-.192-.623zm7.008 5.159l-.065-.455h-.024c-.266.363-.652.545-1.159.545-.18 0-.342-.031-.489-.09a1.21 1.21 0 0 1-.384-.244 1.082 1.082 0 0 1-.253-.366 1.165 1.165 0 0 1-.089-.463c0-.492.201-.863.604-1.109.403-.246.973-.369 1.713-.369v-.073c0-.52-.274-.78-.822-.78-.391 0-.736.098-1.034.293l-.179-.577c.364-.227.817-.341 1.36-.341 1.037 0 1.556.545 1.556 1.634v1.454c0 .406.02.72.057.942h-.792v-.001zm-.122-1.966c-.492 0-.859.062-1.099.187-.241.125-.361.328-.361.61 0 .206.056.36.17.463a.615.615 0 0 0 .43.154c.114 0 .222-.02.325-.061a.862.862 0 0 0 .463-.423.735.735 0 0 0 .072-.321v-.609zm5.109-1.982v.723h-1.65v3.225h-.88V6.557zm5.042 1.925c0 .314-.044.601-.13.861-.088.26-.208.482-.364.666-.155.184-.34.328-.554.43a1.635 1.635 0 0 1-.714.155c-.523 0-.898-.187-1.127-.56h-.017v2.08h-.881V7.855a32.416 32.416 0 0 0-.032-1.3h.775l.049.625h.017c.294-.47.74-.707 1.338-.707.234 0 .45.05.649.146.199.098.37.235.518.411.147.175.263.387.347.634.084.247.126.52.126.817m-.897.033a1.96 1.96 0 0 0-.07-.54 1.237 1.237 0 0 0-.203-.423.999.999 0 0 0-.327-.276.894.894 0 0 0-.43-.1.888.888 0 0 0-.366.08.992.992 0 0 0-.314.22c-.09.091-.161.203-.216.333a1.048 1.048 0 0 0-.083.414v.658c0 .146.023.282.07.407.047.124.11.233.195.325a.901.901 0 0 0 .689.292c.333 0 .59-.126.776-.378.185-.252.279-.59.279-1.012m5.631-1.957l-1.004 2.738c-.239.65-.472 1.182-.698 1.596-.226.415-.44.716-.648.906-.305.27-.629.437-.972.495l-.212-.738c.228-.06.446-.176.653-.35.206-.173.372-.39.498-.65a.488.488 0 0 0 .065-.178.732.732 0 0 0-.049-.187l-1.437-3.631h.971l.751 2.202c.04.103.077.219.114.349.04.13.08.274.123.43h.017c.027-.087.057-.196.09-.33.032-.131.076-.284.13-.458l.67-2.193h.938v-.001zm1.526 1.641h.407c.3 0 .531-.054.693-.162.163-.11.245-.242.245-.4a.452.452 0 0 0-.209-.39c-.137-.096-.33-.145-.575-.145-.158 0-.317.026-.476.077a2.454 2.454 0 0 0-.445.19l-.228-.567c.228-.124.455-.21.682-.255.226-.047.452-.07.681-.07.181 0 .361.018.543.053.181.035.343.094.485.178.141.084.258.194.346.329.09.136.135.304.135.505a.709.709 0 0 1-.074.329.872.872 0 0 1-.195.25 1.053 1.053 0 0 1-.273.179c-.1.046-.203.08-.305.103v.024c.13.017.256.049.38.098.121.048.231.112.33.19A.927.927 0 0 1 61.46 9a.791.791 0 0 1 .088.377.962.962 0 0 1-.17.585c-.114.157-.26.28-.438.374a2.122 2.122 0 0 1-.583.199 3.344 3.344 0 0 1-1.345-.016 2.287 2.287 0 0 1-.646-.24l.23-.577a2.304 2.304 0 0 0 1.043.268c.3 0 .53-.057.69-.174a.522.522 0 0 0 .24-.435.498.498 0 0 0-.08-.288.616.616 0 0 0-.229-.191 1.132 1.132 0 0 0-.343-.101 2.959 2.959 0 0 0-.424-.028h-.416v-.554zm4.708-1.641v1.397c0 .32-.005.607-.017.86-.013.256-.025.524-.042.805l.018.016c.102-.206.204-.407.304-.606.103-.197.205-.4.308-.605l.979-1.87h1.142v3.949h-.833V9.106c0-.292.008-.584.02-.876.015-.294.029-.588.046-.887h-.042a5.71 5.71 0 0 1-.277.634c-.092.179-.184.363-.276.553-.17.325-.337.65-.503.975-.166.325-.342.658-.526.999h-1.141V6.557h.84zm7.343 0v.723h-1.207v3.225h-.867V7.28h-1.199v-.723zm4.496 1.787c0 .075-.003.147-.008.215a1.448 1.448 0 0 1-.025.183h-2.644c.012.373.13.662.355.865.226.203.524.305.894.305.386 0 .742-.062 1.069-.187l.138.61c-.376.162-.82.243-1.331.243a2.28 2.28 0 0 1-.831-.142 1.728 1.728 0 0 1-.621-.402 1.777 1.777 0 0 1-.388-.626 2.393 2.393 0 0 1-.133-.819c0-.304.045-.584.133-.84.09-.258.217-.482.38-.67.164-.19.36-.34.59-.449a1.81 1.81 0 0 1 .773-.162c.25 0 .476.044.682.134.204.09.378.216.52.382.146.165.256.363.332.593.077.23.115.486.115.767zm-.841-.227c0-.309-.074-.559-.224-.75-.15-.193-.366-.29-.65-.29a.85.85 0 0 0-.65.292c-.18.195-.283.444-.311.748h1.835zm4.391-1.527c.158-.027.358-.05.603-.065.245-.018.495-.026.751-.026.163 0 .347.01.55.03.204.017.4.061.583.13.186.067.34.168.466.304.125.135.19.32.19.551a.764.764 0 0 1-.243.57.973.973 0 0 1-.253.173 1.235 1.235 0 0 1-.298.102l.01.024c.287.05.521.152.7.31.18.156.27.373.27.65 0 .275-.078.495-.228.657-.153.163-.34.285-.564.366a2.784 2.784 0 0 1-.707.155 7.942 7.942 0 0 1-.663.033c-.219 0-.433-.005-.64-.017a20.916 20.916 0 0 1-.527-.033V6.59zm.848 1.576h.448c.137 0 .266-.01.388-.029.123-.019.23-.049.322-.089a.539.539 0 0 0 .217-.163.39.39 0 0 0 .078-.247.417.417 0 0 0-.226-.394c-.149-.084-.384-.126-.705-.126-.09 0-.172.003-.24.01a9.518 9.518 0 0 0-.282.023v1.014zm0 1.745c.108.012.2.02.272.026a3.29 3.29 0 0 0 .625-.016c.125-.016.24-.047.344-.093a.628.628 0 0 0 .248-.186.487.487 0 0 0 .095-.311.47.47 0 0 0-.302-.468c-.202-.086-.473-.13-.817-.13h-.465v1.179z" fill="#FFF"/></g></svg>