<svg viewBox="0 0 197 153" xmlns="http://www.w3.org/2000/svg"><title>Group 8</title><g fill="none" fill-rule="evenodd"><path fill="#FFF" d="M6.996 26.504v13.02l23.293 20.12L.559 75.317v13.02l24.023 20.752v9.064l24.432 21.102 6.516-3.436 18.325 15.83 27.36-14.428 6.108 5.275 11.729-6.184v-13.017l-6.108-5.275-18.324-15.829v-4.649L85.409 86.08l16.05-8.46 15.638-8.244 6.107 5.276 48.862 42.206 23.453-12.367V83.104l-48.862-42.206-.024-.026-11.725 1.535L123.18 53.24l.024.022v5.367h-.024L56.108.692z"/><path d="M183.845 84.639L134.93 42.408l48.915 42.23zm-60.626-31.376l48.891 42.209-48.891-42.21zm48.891 42.209l11.735-10.833-11.735 10.833zm-48.891-20.82v-21.39 21.39zm-6.112-15.29l6.112 5.277-6.112-5.276zm0 10.015V59.363v10.014zm0 0l6.112 5.275-6.112-5.275zm78.47 35.114V83.104v21.387zM73.84 151.648l27.377-14.427-27.377 14.427zm98.27-34.79l23.467-12.367-23.467 12.368zM.5 88.338v-13.02 13.02zm0 0l24.038 20.752L.5 88.337zm69.67-11.9V72.72v3.718zM56.082.693L6.941 26.505 56.082.692zM183.845 84.64l11.732-1.535-11.732 1.535zm-60.651-31.4l11.736-10.833-11.736 10.833zm11.736-10.833l11.732-1.535-11.732 1.535zM85.401 86.08l16.061-8.461-16.061 8.46zm9.216 16.11v-4.648 4.649zm77.493 14.668V95.472v21.387zm-48.891-42.207l48.891 42.207-48.891-42.207zM6.941 39.524v-13.02 13.02zm106.011 78.497l-18.335-15.83 18.335 15.83zM6.941 39.524l23.307 20.12-23.307-20.12zM.5 75.318l30.558 26.38L.5 75.318zm55.005 47.485l18.335 15.826-18.335-15.826zM39.611 54.71L6.941 26.505l32.67 28.205zm155.966 28.394l-48.891-42.206 48.891 42.206zm-140.072 35.05l19.556-10.306-19.556 10.306zM70.17 76.438l12.224 5.905-12.224-5.905zm-39.112 20.61l19.556-10.304-19.556 10.305zm12.223 5.903l39.113-20.608-39.113 20.608zm31.78 4.897l19.556-10.305-19.556 10.305zm32.268 21.632v13.017-13.017zm11.735 6.833v-13.017 13.017zm-17.847.908l6.112 5.276-6.112-5.276zm0-13.02l6.112 5.279-6.112-5.278zm6.112 5.279l11.735-6.184-11.735 6.184zm5.623-11.46l6.112 5.276-6.112-5.275zm-11.735 6.182v13.019-13.02zm-45.712 11.617l-6.52 3.436 6.52-3.436zm67.689-77.19L56.082.692l67.112 57.937zm-6.087.734l-8.343.167 8.343-.167zM39.611 54.71L66.825 78.2 39.611 54.71zm0 0v-8.37 8.37zm15.894 68.093v13.016-13.016zm0 13.016l18.335 15.829-18.335-15.83zm18.335 15.829v-13.02 13.02zm-49.302-33.494l24.447 21.1-24.447-21.1zm24.447 8.082v13.019-13.02zm-24.447-21.102l24.447 21.102-24.447-21.102zm6.52-3.436l-6.52 3.436 6.52-3.436zm0 0v-4.65 4.65zm0 0l24.447 21.105-24.447-21.105zm24.447 21.105v-4.65 4.65zm0-4.65l-12.224-15.202 12.224 15.203zm-12.224-15.202l-12.223-5.902 12.223 5.902zm5.704 23.285l6.52-3.433-6.52 3.433zM70.17 72.72l31.292-16.487L70.17 72.72zm19.928-27.523L71.763 29.37l18.335 15.826zM70.17 72.72L39.611 46.34 70.17 72.72zm38.594-20.348v7.158-7.158zm-18.666-7.175l6.442-3.381 12.21 10.54-7.288 3.877-11.364-11.036zm11.364 32.423l15.645-8.243-15.645 8.243zm0-21.387V77.62 56.233zm-.245 67.969l11.735-6.181-11.735 6.18zm-18.823-41.86l3.007 3.739-3.007-3.738zm3.007 3.739l9.216 11.462-9.216-11.462zm-34.787.663L66.825 78.2l-16.211 8.543zM66.825 78.2l3.345-1.763-3.345 1.763zM39.611 54.71l-9.363 4.934 9.363-4.934zm-9.363 4.934L.5 75.318l29.748-15.674zm-5.71 58.51v-9.065 9.065zm0-9.065v-3.955 3.955zM71.763 29.37l-11.358 6.015 11.358-6.015zm-11.358 6.015L39.611 46.34l20.794-10.954zM73.84 138.629l27.377-14.427-27.377 14.427zm33.489 3.868l11.735-6.184-11.735 6.184zm34.222-68.756v3.718-3.718zm0 8.367v3.722-3.722zm-6.112-13.642v3.718-3.718zm0 8.367v3.72-3.72zm-6.111-13.643v3.718-3.718zm0 8.368v3.72-3.72zm18.335 7.459v3.72-3.72zm0 8.37v3.718-3.718zm18.335 7.459v3.718-3.718zm0 8.367v3.72-3.72zm-12.223-18.921v3.72-3.72zm0 8.37v3.718-3.718zM141.551 73.74v3.718-3.718zm0 8.367v3.722-3.722zm18.335 7.459v3.72-3.72zm0 8.37v3.719-3.718zM179.934 96v3.718V96zm0 8.367v3.72-3.72zm7.822-12.492v3.72-3.72zm0 8.37v3.72-3.72zM93.637 65.004v3.718-3.718zm0 8.368v3.72-3.72zm-7.821-4.246v3.718-3.718zm0 8.367v3.72-3.72zm-7.821-4.246v3.719-3.72zm19.312 57.666v3.72-3.72zm-7.821 4.122v3.72-3.72zm-7.825 4.122v3.72-3.72zm-20.045-6.43v3.72-3.72zm6.112 5.276v3.72-3.72zm-12.223-10.551v3.718-3.718zm-36.67-31.656v3.72-3.72zM6.612 85.246v3.718-3.718zm6.111 5.275v3.718-3.718zm30.15 30.44v13.019-13.02zm-6.112-5.276v13.019-13.02zm-6.108-5.275v13.019-13.02zm78.63-45.282v3.719-3.72zm-90.119-23.42v3.718-3.718zm6.113 5.275V50.7v-3.718zM13.053 36.432v3.718-3.718zm0 0v3.718-3.718zm12.224 10.55v3.719-3.718zm-6.113-5.274v3.718-3.718zm12.224 10.55v3.722-3.721zm38.829 8.484c7.878 0 14.392-4.477 13.808-10.331-.274-2.772-1.33-5.81-3.567-7.862-2.898-2.66-6.77-4.52-11.402-4.52-4.631 0-8.262 1.872-10.875 4.52-2.025 2.056-2.769 5.09-2.763 7.862.015 5.854 6.921 10.33 14.799 10.33z" stroke="#7D7D7D" stroke-linecap="round" stroke-linejoin="round"/></g></svg>