<svg viewBox="0 0 168 161" xmlns="http://www.w3.org/2000/svg"><title>Group 9</title><g fill="none" fill-rule="evenodd"><path fill="#FFF" d="M.67 48.632v48.88l32.651 28.204 25.982-13.7 8.195 7.079v26.452l16.324 14.102 27.861-14.691v-11.354l12.734-6.714 8.163 7.05 34.827-18.361V66.697l-16.324-14.101-26.461 13.95-1.205-1.042V29.332L107.091 6.946 90.764 1.129z"/><path d="M83.822 159.648l27.879-14.69m-27.88 14.69v-48.88m-16.333 34.778l16.334 14.102m-16.334-40.554l-8.2-7.077M.618 97.512l32.672 28.204m99.32 8.224l34.848-18.362m0 0v-48.88M132.61 85.06v48.88m0 0l-8.17-7.05m-91.151-1.174l25.998-13.699m0 0v-48.88m-25.998 62.58V76.834M90.768 1.13L.618 48.631m0 48.881v-48.88M33.29 76.834l25.998-13.699m64.154-33.804L107.105 6.945m16.337 22.387v36.172m0-36.172L97.42 43.043m14.28 90.56l12.74-6.713m0-48.88v48.88M111.7 96.077l-8.17-7.05m29.08-3.967l-8.17-7.05m43.017-11.313L132.61 85.06m34.847-18.363l-16.334-14.102m-26.477 13.951l26.477-13.95m-64.61 34.043L59.288 63.136m8.2 33.53l19.026-10.027M67.488 96.665l16.334 14.102m27.879-14.69l-27.88 14.69M33.29 76.835L16.956 54.448m0 0L.619 48.631M107.105 6.945L90.768 1.13M16.956 54.45l90.149-47.504m6.884 70.36L69.163 39.141m-9.875 23.994l9.875-24.369m0 0l28.258 4.276m6.11 45.983l10.458-11.722m0 0l10.453.705M111.7 96.077v37.526m0 0v11.355m-44.213.588v-26.452m0 0V96.665M97.42 43.043l26.02 22.461m0 0l1.206 1.042m-.205 11.463l-20.91 11.017m-5.77 40.908v3.314m0 4.142v3.314m0-18.227v3.314m0 19.056v3.314m0-33.14v3.314m0-10.77v3.313m6.97 15.383v3.314m0 4.143v3.314m0-18.227v3.314m0 19.055v3.314m0-33.14v3.314m0-10.77v3.314m55.757-10.325v3.314m0 4.143v3.314m0-18.227v3.314m0 19.055v3.314m0-33.14v3.314m0-10.77v3.314m-6.97 22.728v3.314m0 4.142v3.314m0-18.227v3.314m0 19.056v3.314m0-33.14v3.314m0-10.77v3.313m-6.97 22.728v3.314m0 4.143v3.314m0-18.227v3.314m0 19.055v3.314m0-33.14v3.314m0-10.77v3.314m-6.97 22.728v3.314m0 4.142v3.314m0-18.227v3.314m0 19.055v3.314m0-33.139V96.3m0-10.77v3.313m-61.202 43.735v3.314m0 4.143v3.314m0-18.227v3.314m0 19.055v3.314m0-33.14v3.314m0-10.77v3.314m-5.444 14.355v3.314m0 4.142v3.314m0-18.227v3.314m0 19.055v3.314m0-33.139v3.313m0-10.77v3.314M54.2 92.33v3.314m0 4.142v3.314m0-18.227v3.314m0 19.056v3.314m0-33.14v3.314m0-10.77v3.314m-6.97 22.728v3.314m0 4.142v3.314m0-18.227v3.314m0 19.055v3.314m0-33.139v3.314m0-10.77v3.313m-6.97 22.727v3.314m0 4.142v3.314m0-18.226v3.314m0 19.055v3.314m0-33.14v3.314m0-10.77v3.314m62.273-36.127v2.963m6.969.821v3.314m0-10.77v3.314m6.972 7.926v3.314m0-10.77v3.314m0-10.77v3.313m1 67.732v3.314m0 4.142v3.314m0-18.227v3.314m0 19.056v3.314m0-33.14v3.314m0-10.77v3.313m-6.97.36v3.313m-51.215-3.162v3.314m0 4.142v3.314m0-18.227v3.314m0 19.055v3.314m0-33.139v3.314m0-10.77v3.313m5.445 23.756v3.314m0 4.143v3.314m0-18.227v3.314m0 19.055v3.314m0-33.14v3.314m0-10.77v3.314m5.444 16.3v3.313m0-10.77v3.314m0-10.77v3.313m5.448 8.844v3.314m0-10.77v3.313m5.445 1.387v3.314m-66.838-2.5v3.313m0 4.143v3.314m0-18.227v3.314m0 19.055v3.314m0-33.139v3.314m0-10.77v3.313m5.445 23.756v3.314m0 4.142v3.314m0-18.226v3.314m0 19.055v3.314m0-33.14v3.314m0-10.77v3.314" stroke="#7D7D7D" stroke-linecap="round" stroke-linejoin="round"/></g></svg>