<svg viewBox="0 0 230 165" xmlns="http://www.w3.org/2000/svg"><title>Group 7</title><g fill="none" fill-rule="evenodd"><path fill="#FFF" d="M129.186 16.058v8.62l-5 2.637-6.2-5.353-83.989 44.284v8.621L1 92.265v15.318l65.62 56.68 27.995-14.76v-15.319l-26.535-22.92.186-.1 83.99-44.284v-8.62l5-2.638 43.747 37.787L229 78.65V63.33L163.38 6.65l-6.198-5.354z"/><path d="M146.068 46.21l11.203-5.905m-33.083-12.989l-1.035 5.654M62.047 90.493l-4.1-18.196m0 0L40.168 71.6m160.867 6.492l-43.764-37.786m71.771 23.025L163.396 6.65m65.646 72V63.33m-71.77-7.707l-5.003 2.637m-35.812-18.826L69.78 64.036m46.678-24.602l1.53-17.472m34.282 29.6L68.25 95.846m48.208-56.412l35.812 12.128m48.766 41.848l-43.764-37.787m43.764 37.787V78.091m0 15.32l28.007-14.762M152.27 66.88l-84.02 44.284m77.82-64.955l6.2 5.353m-28.08-24.246l-6.202-5.354m-49.739 89.202V95.846M40.168 71.6l-6.2-5.353m35.811-2.21L34.237 66.48m-.27-.233v8.621m35.812-10.83l-1.53 31.81m-6.388 10.062l.186-.098m4.554 43.134L.958 92.265m65.643 72L.958 107.582m65.643 56.681v-15.319M.958 107.583V92.265m61.09 13.546V90.493m-11.2 5.904l11.2-5.904m32.56 59.01v-15.319m0 15.318l-28.007 14.762m-4.554-73.77l6.201 5.352m-6.2 9.965l6.2 5.353m-1.647 37.781l28.007-14.76m-23.632-7.708L27.216 88.69m43.76 37.787l-4.375 22.468m4.375-22.468l23.632 7.707m106.427-56.093l28.007-14.76m-24.05-7.588L161.23 17.955m43.763 37.788l-3.957 22.348m3.957-22.348l24.05 7.587m-71.77-7.707V40.305m-28.08-24.247v8.621m6.197-3.268l-6.198-5.353m34.205-9.408l-6.198-5.353m-28.007 14.761l28.007-14.76m4.031 16.657l-6.199-5.353m0 0l2.168-11.305m-2.168 11.305l-25.448 3.794m18.281 3.551l-12.474 1.464m-12.236 11.56l24.71-13.024m-13.769 22.47l11.974 3.792m12.736-16.816l-24.71 13.023m24.71-13.023l-1.533 10.912m-34.118-7.335l10.941 9.446m13.77-22.469l10.94 9.446m-23.415-7.982l-6.198 3.268m0 0l-5.003 2.637M40.168 71.6l-6.2 3.268m118.301-7.987v-8.62m0 0v-6.698m-57.66 82.622L61.86 105.91m0 0l-11.014-9.512M.958 92.265l33.01-17.398m84.02-52.905l-84.02 44.284M27.214 88.69l30.533-16.11m25.657 70.84v2.663m0 3.33v2.664m-5.6-5.706v2.664m0 3.33v2.664m12.848-67.662v2.664m0 3.33v2.664m-5.6-5.706v2.664m0 3.33v2.664m-11.204-2.753v2.664m0 3.33v2.664m5.603-11.61v2.663m0 3.33v2.664m16.803-17.514v2.664m0 3.33v2.664m5.601-11.61v2.663m0 3.33v2.664m5.603-11.61v2.664m0 3.33v2.664m11.2-14.562v2.664m0 3.33v2.664m5.603-11.61v2.663m0 3.33v2.665m-11.203-2.754v2.664m0 3.33v2.664m16.804-17.515v2.664m0 3.33v2.664m5.602-11.61v2.664m0 3.33v2.664m11.201-14.563v2.664m0 3.331v2.664m-16.803.198v2.664m0 3.33v2.664m11.203-14.562v2.664m0 3.33v2.664m76.773 3.11v2.664m0 3.33v2.664m-5.6-5.706v2.664m0 3.33v2.664M49.094 137.161v2.664m0 3.33v2.664m-8.752-16.216v2.664m0 3.33v2.664m13.13 2.678v2.664m0 3.33v2.664m0-8.658v2.664m0 3.33v2.664m-21.883-27.55v2.663m0 3.33v2.664m-4.374-12.437v2.664m0 3.33v2.664m-4.376-12.437v2.665m0 3.33v2.664m-4.377-12.437v2.664m0 3.33v2.664M9.71 103.152v2.664m0 3.33v2.664m48.137 32.908v2.664m0 3.33v2.664m-43.76-46.445v2.664m0 3.33v2.664m21.878 10.236v2.663m0 3.33v2.665M5.334 99.374v2.664m0 3.33v2.664M170.4 54.972v2.663m0 3.33v2.664m4.377-4.88v2.664m0 3.331v2.664m4.376-4.88v2.664m0 3.33v2.664m4.376-4.879v2.664m0 3.33v2.664m8.753-1.1v2.663m0 3.33v2.664m-35.01-38.887V46.3m0 3.33v2.664m4.375-4.88v2.664m0 3.33v2.664m4.377-4.879v2.664m0 3.33v2.664m21.882 10.236v2.663m0 3.33v2.665" stroke="#7D7D7D" stroke-linecap="round" stroke-linejoin="round"/></g></svg>