<svg viewBox="0 0 266 229" xmlns="http://www.w3.org/2000/svg"><title>Group 3</title><defs><style>.building-path:hover{fill:#0f0}</style></defs><g class="building-path" id="Symbols" fill="none" fill-rule="evenodd"><g id="museum" transform="translate(-3 -198)"><g transform="translate(0 198)" id="buildings"><g id="buildings-01"><g id="Group-3" transform="translate(3)"><path d="M.481 81.924v19.321l22.298 21.928 4.14-2.485 26.948 26.498v6.554l22.3 21.925 4.138-2.482 26.95 26.5v6.551l22.299 21.925 10.482-6.29 3.715 3.653 39.957-23.98 9.292 9.134 34.249-20.557v-11.593l-1.969-1.936 32.636-19.587v-5.885l6.764-4.063v-19.32l-22.298-21.928-4.138 2.485-26.95-26.499V75.24l-22.299-21.925-4.138 2.485-26.95-26.5v-6.553L135.61.82.482 81.924zM141.975 70.24l-13.841-13.76 6.537-3.925 18.887 18.57-11.582 6.951V70.24zM65.473 94.087l11.58-6.948 18.886 18.57-11.582 6.951-18.884-18.573z" id="Fill-7" fill="#FFF"/><g id="Group-14" transform="translate(0 .764)"><path d="M242.383 105.044l-4.14 2.485-26.948-26.498v-6.555l-22.3-21.925-4.137 2.485-26.95-26.501v-6.552L135.61.058.482 81.16v19.32l22.298 21.93 4.138-2.485 26.95 26.499v6.555l22.298 21.925 4.138-2.483 26.95 26.498v6.553l22.298 21.925 10.483-6.291 3.716 3.654 39.957-23.981 9.29 9.135 34.249-20.557v-11.593l-1.967-1.936 32.636-19.587v-5.885l6.764-4.063V126.97l-22.298-21.927zm-158.026 6.852L65.472 93.325l11.58-6.95 18.887 18.57-11.582 6.95zm57.618-34.583v-7.836l-13.841-13.76 6.537-3.925 18.885 18.569-11.581 6.952z" id="Stroke-8" stroke="#FFF" stroke-width=".963"/><path d="M77.053 86.375V67.052m0 19.323l18.885 18.57m93.058-52.395l22.298 21.925m35.205 69.292v19.323m-11.415-12.47v19.321m5.707-22.746v19.321m-11.417-12.47v19.323m22.833-33.028v19.324m12.474-13.373v-19.32m-53.387-52.497l-4.137 2.485m27.927 92.981l-5.71 3.428m35.307-27.077l-6.765 4.062m-5.71 9.31l-5.707 3.426m11.417-6.85l-5.71 3.425m-11.415 6.851l-5.707 3.425m-46.088-117.39l-4.138 2.484m44.516 118.334l-4.093 2.457m-1.615-18.355v16.768m22.833-11.149l-5.708 3.426m-133.536 19.631l4.138-2.483m-35.226-8.762l4.138-2.483m0 0v-19.323m63.447 52.341v19.321M22.78 122.41l4.139-2.485m0 0v-19.32M178 184.88v19.323m0 0l5.708-3.426m0-19.323v19.323M80.305 172.42l26.95 26.5m32.78 22.185l3.717 3.654m-89.884-71.78l22.299 21.924m73.293 27.107l5.708-3.425m0 0l5.708-3.426m0 0l5.709-3.425m0 0l5.708-3.428m0 0L178 184.88M26.919 119.924l26.949 26.498m75.685 80.973v-19.32m-22.146-21.779l22.146 21.778m-22.298-2.604l22.298 21.925m-49.248-74.299l31.088 30.568m-84.474-83.06l31.088 30.567m108.578 60.562v19.321m0 0l5.708-3.426m0-19.323v19.323m15.133-22.52l-3.717-3.654M.482 100.481L22.78 122.41m149.513 85.22l5.708-3.426m-28.541-2.194v19.324m0 0l5.708-3.426m0-19.323v19.323m-25.615-9.833l10.482-6.29m-10.482 25.611l10.482-6.29M193 209.912l-5.574-5.48m-26.55 10.05l5.709-3.429m-11.417 6.853l5.708-3.425m0-19.324v19.324M153.77 24.467l4.138-2.485m80.335 85.546l4.14-2.485m-20.707 59.51l-3.717-3.654m24.424-55.856l22.298 21.928m0 0l-10.482 6.291M211.294 81.03v-6.555m-23.868 129.957l-3.717-3.655m3.717-15.669v7.73m-47.391 8.945v19.321m3.717-15.667l-3.717-3.654M178 184.88l5.708-3.426m0 0l-3.716-3.654m-39.958 23.983l39.958-23.983m41.683-5.519v-7.728M193 209.913v-11.595m34.248-8.963L193 209.913m34.248-20.558v-11.592m-39.822 7.345l10.668-29.35m0 0l23.582 8.795m0 0l-34.25 20.555M53.868 133.654l22.299 21.925m0 19.323V155.58m0 0l4.138-2.483m-26.437-19.442l4.139-2.483M22.78 122.41v-19.323M.482 81.161l22.298 21.925M.482 100.481v-19.32m22.298 21.925l4.139-2.483m130.989-78.62L135.608.056m22.3 28.477v-6.552m94.299 118.36l-5.708 3.425m11.417-6.85l-5.71 3.424m-5.707 3.426l-5.708 3.428m0 0l-5.707 3.425m0 0l-5.71 3.426m0 0l-5.708 3.425m34.25-20.555l-3.717-3.654m-30.533 24.21l-5.707 3.427m0 0l-3.718-3.657m39.958-23.98l-39.958 23.98m-70.49 48.195l5.709-3.428m-5.708 22.75l5.708-3.426M128.133 55.716l6.538-3.925m58.144 146.156l17.957-15.67m15.965-4.768l-15.965 4.767m10.904-9.995l-16.478 4.513m-17.772 16.043l17.772-16.043M193 198.318l-5.574-5.48m23.346-10.562l-5.574-5.482m-17.772 16.043v11.595m5.574-6.114l34.248-20.555M135.608.057l-1.147 8.328m129.494 118.763l-22.998-14.25M188.996 52.55l-1.98 7.64m-29.874-37.95L134.46 8.384m107.922 96.658l-1.426 7.855M210.77 74.79l-23.754-14.6M134.67 32.47l31.088 30.568M54.587 133.933l17.968-4.862m35.38 57.225l17.093-4.02M76.167 155.58l-3.612-26.508m56.998 79.003l-4.525-25.798M22.78 103.086l-2.203-26.374m95.354-32.995l18.74-11.247M1.15 81.48l19.426-4.768m114.094-24.92V32.47m61.012 100.601l-31.088-30.568m0 0l23.576-14.15m0 0l31.089 30.568m0 0l-23.577 14.15m-83.043 1.345l24.673-15.284m0 0L168.4 149.7m0 0l-24.674 15.283m0 .001l-31.087-30.568M26.084 73.431l52.555 51.807m0 0l53.943 52.71M130.388 10.83l52.555 51.805m0 0l53.942 52.708m-164.33 13.728l110.388-66.436m0 0l4.073-2.446m-61.988 122.087l7.554-4.329m0 0l108.375-65.049M20.577 76.712l5.507-3.28M130.388 10.83l4.073-2.446M26.084 73.431l104.304-62.6m11.586 66.481v-7.836M108.14 97.62v-7.838m32.239-22.026l1.594 1.72M108.14 89.782L77.053 59.214m64.92 10.262l-33.832 20.306m149.775 47.134v13.438m0 0v5.885M107.255 205.47v-6.552m0 0v-12.77m77.603-131.113l-26.95-26.5m0 0l-4.138-4.068m84.473 83.061l-26.95-26.498m0 0l-4.136-4.07m-153.29 76.017v-6.555m0 0v-12.768m173.38 44.11l-1.966-1.938M165.759 63.038l-12.203 7.323m-69.2 41.535L65.472 93.324m0 0L53.269 81.328m31.088 30.568l11.58-6.95M77.054 67.051v-7.838m63.327 8.542l-12.247-12.04m97.148 120.11l-1.615-1.587m0 0l-1.99-1.958M128.133 55.716L115.93 43.717m0 0l-6.64-6.529M.482 81.161L135.61.057m17.947 70.304l-11.582 6.951M108.14 97.62l33.833-20.308M108.14 97.62l-12.203 7.325M77.053 67.052L53.269 81.328M65.47 93.324l11.582-6.949m57.618-34.584l18.885 18.57m44.538 85.397l-64.275-63.08m-48.85 71.37v4.547m0 0v4.545m0-9.093v-2.502m4.46 6.886v4.548m0 0v4.546m0-9.094v-2.499m4.46 6.886v4.546m0 0v4.545m0-9.09v-2.502m4.46 6.886v4.545m0 0v4.548m0-9.093v-2.502m4.459 6.886v4.548m0 0v4.546m0-9.094v-2.499m-66.766-63.15v4.548m0 0v4.546m0-9.094v-2.499m8.92 11.271v4.545m0 0v4.546m0-9.09v-2.503m-4.46-1.885v4.548m0 0v4.545m0-9.093v-2.499" id="Stroke-10" stroke="#7D7D7D" stroke-width=".963" stroke-linecap="round" stroke-linejoin="round"/><path d="M49.422 129.094v4.546m0 0v4.547m0-9.093v-2.5m-17.84-15.04v4.545m0 0v4.548m0-9.093v-2.502m167.126 85.84v11.595m5.71-15.02v11.592m5.707-15.018v11.593m5.708-15.02v11.594m5.708-15.02v11.595M77.053 59.214c.257-2.003 3.582-11.684 15.909-19.087 12.436-7.47 16.33-2.939 16.33-2.939m-1.151 52.594c.797-3.578 4.347-12.417 15.944-19.32 12.467-7.423 17.453-1.205 17.453-1.205" id="Stroke-12" stroke="#7D7D7D" stroke-width="1.021" stroke-linecap="round" stroke-linejoin="round"/></g></g></g></g></g></g></svg>