<svg viewBox="0 0 178 244" xmlns="http://www.w3.org/2000/svg"><title>Group 10</title><g fill="none" fill-rule="evenodd"><path fill="#FFF" d="M1.279 150.818v43.515l52.93 45.722 29.963-15.797 5.292 4.572 5.293 4.572 5.292 4.573 5.293 4.572 6.777-3.572 6.774-3.572 6.774-3.573 6.774-3.571 6.777-3.573 12.54-17.44v-3.677l7.783-4.105V184.96l-26.965-23.272-18.35 9.675h-.113v-6.427.02L61.18 119.233z"/><path stroke="#7D7D7D" d="M1.279 194.333v-43.515l59.903-31.585 52.93 45.723v-.02 6.427h.114l18.35-9.675 26.966 23.271v14.505l-7.782 4.104v3.678l-12.541 17.44-6.777 3.572-6.774 3.572-6.775 3.572-6.774 3.572-6.777 3.573-5.293-4.573-5.292-4.572-5.293-4.572-5.292-4.572-29.961 15.796z"/><path fill="#FFF" d="M176.798 42.055v35.054l-47.326 24.952v7.362l-40.649 21.434-31.758-27.434V77.637L76.44 67.42l-3.19-2.635V29.732L128.691.5z"/><path d="M176.849 77.109l-47.353 24.952M128.714.5l48.135 41.553m0 0V77.11m-88.025 53.748V105.07m40.672 4.353l-40.672 21.434m40.672-47.22L88.824 105.07m-31.777-1.646l31.777 27.433m-31.777-53.22l31.777 27.433m-31.777-1.646V77.636m16.194-12.85V29.73m0 0L128.714.502M73.24 29.73l48.135 41.556m55.473-29.233l-55.473 29.233m8.12 12.35l-5.296-4.573m0 0l-2.824 1.49m0 0v-9.267M97.1 59.598l-2.206-1.904m-18.46 9.726l-3.193-2.636m48.135 15.769L97.1 59.597m32.395 49.825v-7.362m0 0V83.636m-34.6-25.942L76.434 67.42m0 0L57.047 77.636m45.333 38.823l6.78-3.572m0 0v7.252m-13.558-.106v7.252m-6.778-3.68v7.252m6.778-3.572l-6.778 3.572m20.337-17.97l6.778-3.572m-13.56 14.397l-6.777 3.573m6.778-3.573l6.78-3.573m0 0l6.779-3.57m-13.56-.11v7.252m0-7.252l-6.777 3.573m0 0l-6.778 3.573m33.893-10.609l6.779-3.573m-13.557-.108v7.254m6.778-10.825v7.252m0-7.251l6.779-3.575m-13.557 7.145l6.778-3.57m6.779-3.575v7.252m20.237-25.278l6.78-3.57m0 0l6.78-3.575m-6.78 3.575v7.252m-6.78-3.681v7.252m6.78-3.572l6.78-3.574m-27.116 7.036l-6.681 3.521m6.68-3.52v7.252m6.779-3.572l6.778-3.57m-13.556 7.142l6.778-3.572m-6.778 3.572l-6.681 3.52m13.459-14.344l6.778-3.572m-13.556 7.143l6.778-3.57m0 0v7.252m20.338-17.97l6.778-3.572M163.293 77v7.252m6.778-10.824v7.253m0-7.253l6.778-3.572M17.115 208.05l5.299 4.571m0 0v-43.514m-5.3-4.572l5.3 4.572m-5.3 38.942v-43.514m15.89 57.23l5.297 4.574m0 0v-43.516m-5.296-4.573l5.296 4.573m-5.296 38.942V178.25m5.296 48.089l5.295 4.572m0 0v-43.517m-5.295-4.57l5.295 4.57M6.524 198.905l5.296 4.572m0 0V159.96m-5.296-4.57l5.296 4.57m-5.296 38.945V155.39m42.37 36.577l5.296 4.572m-5.295 38.944v-43.516m0 43.516l5.295 4.572m0 0v-43.516m-10.594-9.144l5.299 4.572m-5.3 38.945l5.3 4.571m-26.481-66.375l5.295 4.57m-5.295 38.945l5.295 4.571m0 0v-43.516m-15.89-13.716l5.296 4.573m-5.295 38.944l5.295 4.571m10.594-34.371l5.296 4.572m-5.296 38.944l5.296 4.572m92.684 2.811l-6.78 3.572m0 7.254l6.78-3.572m0-7.254v7.254m-20.338 10.716l6.78-3.572m6.779-10.826l-6.778 3.572m27.116-7.036v-7.251m-6.781 3.572l6.78-3.572m-6.78 3.572v7.251m0 0l6.78-3.572m-13.558-.108l6.778-3.571m6.78-3.572v-7.254m20.335-10.716V184.96m-54.231 28.577l54.23-28.577m-33.891 46.87l6.778-3.573m19.329-21.012l-12.548 17.44m12.548-17.44v-3.677m-97.606-7.03l59.937-31.583m-59.937 75.1l29.979-15.798m0-29.01l2.823-1.488m72.59-8.8L132.6 161.688m-71.436-42.454L1.228 150.817m0 0l5.296 4.572m-5.296 38.944v-43.516m0 43.516l5.296 4.572m93.532 39.07v-14.506m-5.296 9.934v-14.506m0 14.506l5.296 4.572m-5.296-19.078l5.296 4.572m-15.887-13.716v-14.505m0 14.505l5.295 4.572m15.887 13.717v-14.506m-21.182-18.288l21.182 18.288m-5.295 9.933l5.295 4.573m-5.295 9.933l5.295 4.572m0 0v-7.254m0 0v-7.251m-21.182-3.785l5.295 4.573m-5.295-4.573v-14.505m5.295 4.572l5.296 4.572m-5.296 9.935v-14.506m0 14.506l5.296 4.572m17.372-1.681v7.252m6.778-10.825v7.254m-6.778 3.572l6.778-3.572m-6.778-3.681l-6.781 3.571m8.776-70.338l-52.962-45.722m78.083 90.947l12.548-6.612m0 0l7.786-4.104m-45.455-34.508v8.369m0 0v6.136m.114-8.099l18.36-9.674M86.99 193.76l27.136-14.3M54.19 240.054l-52.962-45.72m52.962 31.215L1.228 179.83m52.962 31.214l-52.962-45.72m52.962 31.215l-52.962-45.72m138.02 66.615l8.405-11.681m-35.521 9.208v3.224m6.778-6.797v3.225m-34.741-17.35v-16.52m6.246 11.038v-14.172m5.992 11.151v-14.157m5.992 11.005v-14.244m5.992 11.02v-14.157m5.736 11.216v-14.506M6.524 198.906l5.296 4.571" stroke="#7D7D7D" stroke-linecap="round" stroke-linejoin="round"/></g></svg>