<svg viewBox="0 0 173 193" xmlns="http://www.w3.org/2000/svg"><title>Group 6</title><g fill="none" fill-rule="evenodd"><path fill="#FFF" d="M35.999 22.741l-8.076-7.942L.206 31.435v57.061l23.706 23.309 5.578-3.349 52.543 51.665v8.833l23.706 23.309 64.055-38.445v-57.06l-21.675-21.312-8.02 4.812-52.132-51.261V16.299L72.337.93z"/><path d="M171.588 153.817v-45.648m-64.055 84.094l-23.706-23.309m87.761-15.137l-64.055 38.446m0 0v-45.648m0 0l-23.706-23.309m87.761-15.137l-64.055 38.446M89.761 27.71l-.812.487m.812-.487v1.286m17.772 106.207l-23.706-23.309m87.761-15.137l-64.055 38.446m42.38-59.758l21.675 21.312m-21.675-21.312l-8.019 4.813m-52.133-63.96l-8.019 4.813M74.131.93l15.63 15.368M37.793 22.74L74.131.93M29.717 14.799l8.076 7.941M2 31.435l27.717-16.636m-4.011 39.945L2 31.435m87.406 77.11L31.284 51.396m52.543 60.498l5.579-3.349m18.127 38.07v-11.412m64.055-27.034V96.757M89.761 27.71V16.298M2 42.847V31.435m81.827 83.037L31.284 62.808m-5.578 48.996V66.156m5.578-3.348V51.396m-5.578 3.348l5.578-3.348m-5.578 14.76V54.744m0 11.412l5.578-3.348m-5.578 48.996l5.578-3.348M2 88.495V42.847m23.706 68.957L2 88.495m23.706-22.339L2 42.847m29.284 19.961v45.648m50.458-87.345l7.207 7.087m-5.122 95.108v-8.834m0 0v-2.578m0 11.412v36.814m0 0v8.834m5.122-140.757l.812.799m0 0l52.133 51.262M83.827 160.12l-52.543-51.664m84.677 54.098v3.652m0 4.565v3.652m0-20.085v3.652m0 20.998v3.652m0-36.519v3.652m6.743 8.734v3.652m0 4.565v3.652m0-20.085v3.652m0 20.998v3.651m0-36.518v3.652m6.742 8.735v3.651m0 4.565v3.652m0-20.085v3.652m0 20.998v3.652m0-36.519v3.652m6.743 8.734v3.652m0 4.565v3.652m0-20.085v3.652m0 20.998v3.652m0-36.519v3.652m6.743 8.735v3.652m0 4.564v3.652m0-20.085v3.652m0 20.998v3.652m0-36.519v3.652m6.742 8.735v3.651m0 4.565v3.652m0-20.085v3.652m0 20.998v3.652m0-36.519v3.652m6.743 8.735v3.652m0 4.564v3.652m0-20.085v3.652m0 20.998v3.652m0-36.518v3.651m-55.469 35.647v3.652m0 4.565v3.652m0-20.085v3.651m0 20.999v3.651m0-36.518v3.652m-5.268 7.601v3.652m0 4.565v3.652m0-20.085v3.652m0 20.998v3.651m0-36.518v3.652m-5.268 7.601v3.652m0 4.565v3.652m0-20.085v3.652m0 20.998v3.652m0-36.519v3.652m-27.346-22.941v3.652m0 4.565v3.652m0-20.086v3.652m0 20.998v3.652m0-36.518v3.652m10.536 23.141v3.652m0 4.564v3.652m0-20.085v3.652m0 20.998v3.652m0-36.519v3.652m-21.072-7.938v3.652m0 4.565v3.652m0-20.085v3.652m0 20.998v3.652m0-36.519v3.652m26.34 38.681v3.651m0 4.565v3.652m0-20.085v3.652m0 20.998v3.652m0-36.519v3.652m-10.536 2.422v3.652m0 4.565v3.651m0-20.085v3.652m0 20.998v3.652m0-36.518v3.652m-21.071-7.938v3.652m0 4.564v3.652m0-20.085v3.652m0 20.998v3.652m0-36.519v3.652m10.535 23.141v3.652m0 4.565v3.652m0-20.085v3.652m0 20.997v3.652m0-36.518v3.652m-15.804-2.758v3.652m0 4.564v3.652m0-20.085v3.652m0 20.998v3.652m0-36.518v3.651m-5.267 7.602v3.652m0 4.565v3.651m0-20.085v3.652m0 20.998v3.652m0-36.518v3.651m-17.606 4.304v3.652m0 4.565v3.652m0-20.085v3.652m0 20.998v3.651m0-36.518v3.652M8.585 70.32v3.652m0 4.564v3.652m0-20.085v3.652m0 20.998v3.652m0-36.519v3.652m5.268 17.961v3.652m0 4.565v3.652m0-20.085v3.652m0 20.998v3.652m0-36.519v3.652m149.306 71.508v3.652m0 4.564v3.652m0-20.085v3.652m0 20.998v3.652m0-36.519v3.652" stroke="#7D7D7D" stroke-linecap="round" stroke-linejoin="round"/></g></svg>