<svg id="Слой_1" xmlns="http://www.w3.org/2000/svg" viewBox="0 0 32 32"><style>.st0{fill:#a8a8a8}</style><title>Page 1</title><g id="Page-1_1_"><g id="collection-item-3-1024" transform="translate(-976 -1720)"><g id="Page-1" transform="translate(976 1720)"><path class="st0" d="M31.5 32c-.1 0-.3 0-.4-.1l-11-11.1c-.2-.2-.2-.5 0-.7.2-.2.5-.2.7 0l11 11.1c.2.2.2.5 0 .7-.1.1-.2.1-.3.1zM12 24C5.4 24 0 18.6 0 12S5.4 0 12 0s12 5.4 12 12-5.4 12-12 12zm0-23C5.9 1 1 5.9 1 12s4.9 11 11 11 11-4.9 11-11S18.1 1 12 1z" id="Group-5"/><path class="st0" d="M17.1 12.5H6.6c-.3 0-.5-.2-.5-.5s.2-.5.5-.5h10.5c.3 0 .5.2.5.5s-.3.5-.5.5z"/></g></g></g></svg>