<?xml version="1.0" encoding="UTF-8" standalone="no"?>
<svg class="icon-appstore" width="112px" height="32px" viewBox="0 0 112 32" version="1.1" xmlns="http://www.w3.org/2000/svg" xmlns:xlink="http://www.w3.org/1999/xlink">
    <!-- Generator: Sketch 43 (38999) - http://www.bohemiancoding.com/sketch -->
    <title>Page 1</title>
    <desc>Created with Sketch.</desc>
    <defs>
        <polygon id="path-1" points="112 16.0001 112 32 0 32 0 16.0001 0 0.0002 112 0.0002 112 16.0001"></polygon>
    </defs>
    <g id="Page-1" stroke="none" stroke-width="1" fill="none" fill-rule="evenodd">
        <g id="collection-3-1280" transform="translate(-471.000000, -7223.000000)">
            <g id="Group-6" transform="translate(72.000000, 5458.000000)">
                <g id="web-collections-copy" transform="translate(0.000000, 941.000000)">
                    <g id="Page-1" transform="translate(399.000000, 824.000000)">
                        <g id="Group-28">
                            <g id="Group-3">
                                <mask id="mask-2" fill="white">
                                    <use xlink:href="#path-1"></use>
                                </mask>
                                <g id="Clip-2"></g>
                                <path d="M112,28.7922 C112,30.5642 110.558,32.0002 108.775,32.0002 L3.229,32.0002 C1.447,32.0002 0,30.5642 0,28.7922 L0,3.2122 C0,1.4402 1.447,0.0002 3.229,0.0002 L108.774,0.0002 C110.558,0.0002 111.999,1.4402 111.999,3.2122 L112,28.7922 Z" id="Fill-1" fill="#A8A8A8" mask="url(#mask-2)"></path>
                            </g>
                            <path d="M24.5952,15.8241 C24.5712,13.1251 26.8152,11.8111 26.9182,11.7501 C25.6472,9.9051 23.6762,9.6531 22.9842,9.6331 C21.3292,9.4601 19.7242,10.6191 18.8822,10.6191 C18.0222,10.6191 16.7242,9.6501 15.3252,9.6781 C13.5252,9.7061 11.8412,10.7441 10.9172,12.3551 C9.0112,15.6411 10.4322,20.4691 12.2592,23.1251 C13.1722,24.4251 14.2402,25.8781 15.6372,25.8271 C17.0042,25.7701 17.5152,24.9591 19.1642,24.9591 C20.7992,24.9591 21.2782,25.8271 22.7032,25.7941 C24.1702,25.7701 25.0942,24.4871 25.9752,23.1751 C27.0312,21.6841 27.4552,20.2161 27.4722,20.1411 C27.4372,20.1291 24.6232,19.0591 24.5952,15.8241" id="Fill-4" fill="#FFFFFF"></path>
                            <path d="M21.9034,7.886 C22.6384,6.971 23.1414,5.725 23.0024,4.461 C21.9374,4.508 20.6074,5.194 19.8404,6.09 C19.1624,6.878 18.5574,8.172 18.7134,9.388 C19.9084,9.476 21.1364,8.787 21.9034,7.886" id="Fill-6" fill="#FFFFFF"></path>
                            <path d="M44.3779,25.6398 L42.4679,25.6398 L41.4209,22.3658 L37.7839,22.3658 L36.7869,25.6398 L34.9269,25.6398 L38.5309,14.4938 L40.7569,14.4938 L44.3779,25.6398 Z M41.1059,20.9928 L40.1589,18.0818 C40.0589,17.7848 39.8719,17.0848 39.5949,15.9828 L39.5609,15.9828 C39.4509,16.4568 39.2739,17.1568 39.0299,18.0818 L38.0999,20.9928 L41.1059,20.9928 Z" id="Fill-8" fill="#FFFFFF"></path>
                            <path d="M53.6454,21.5226 C53.6454,22.8896 53.2744,23.9696 52.5324,24.7626 C51.8684,25.4686 51.0424,25.8216 50.0574,25.8216 C48.9944,25.8216 48.2304,25.4416 47.7654,24.6806 L47.7314,24.6806 L47.7314,28.9146 L45.9384,28.9146 L45.9384,20.2486 C45.9384,19.3896 45.9154,18.5076 45.8714,17.6026 L47.4494,17.6026 L47.5494,18.8766 L47.5824,18.8766 C48.1814,17.9166 49.0884,17.4376 50.3064,17.4376 C51.2584,17.4376 52.0534,17.8126 52.6894,18.5616 C53.3274,19.3126 53.6454,20.2986 53.6454,21.5226 M51.8184,21.5876 C51.8184,20.8056 51.6414,20.1606 51.2864,19.6536 C50.8984,19.1236 50.3784,18.8596 49.7254,18.8596 C49.2824,18.8596 48.8804,19.0066 48.5214,19.2976 C48.1614,19.5906 47.9264,19.9736 47.8154,20.4476 C47.7604,20.6686 47.7324,20.8496 47.7324,20.9916 L47.7324,22.3316 C47.7324,22.9166 47.9124,23.4096 48.2724,23.8126 C48.6324,24.2156 49.1004,24.4166 49.6754,24.4166 C50.3514,24.4166 50.8774,24.1566 51.2534,23.6386 C51.6294,23.1206 51.8184,22.4376 51.8184,21.5876" id="Fill-10" fill="#FFFFFF"></path>
                            <path d="M62.9299,21.5226 C62.9299,22.8896 62.5589,23.9696 61.8159,24.7626 C61.1529,25.4686 60.3269,25.8216 59.3419,25.8216 C58.2789,25.8216 57.5149,25.4416 57.0509,24.6806 L57.0169,24.6806 L57.0169,28.9146 L55.2239,28.9146 L55.2239,20.2486 C55.2239,19.3896 55.2009,18.5076 55.1569,17.6026 L56.7339,17.6026 L56.8349,18.8766 L56.8679,18.8766 C57.4659,17.9166 58.3729,17.4376 59.5919,17.4376 C60.5429,17.4376 61.3379,17.8126 61.9759,18.5616 C62.6109,19.3126 62.9299,20.2986 62.9299,21.5226 M61.1029,21.5876 C61.1029,20.8056 60.9249,20.1606 60.5699,19.6536 C60.1829,19.1236 59.6639,18.8596 59.0099,18.8596 C58.5669,18.8596 58.1649,19.0066 57.8049,19.2976 C57.4449,19.5906 57.2109,19.9736 57.0999,20.4476 C57.0459,20.6686 57.0169,20.8496 57.0169,20.9916 L57.0169,22.3316 C57.0169,22.9166 57.1969,23.4096 57.5559,23.8126 C57.9159,24.2146 58.3829,24.4166 58.9599,24.4166 C59.6359,24.4166 60.1619,24.1566 60.5379,23.6386 C60.9139,23.1206 61.1029,22.4376 61.1029,21.5876" id="Fill-12" fill="#FFFFFF"></path>
                            <path d="M73.3104,22.5142 C73.3104,23.4622 72.9794,24.2332 72.3164,24.8292 C71.5864,25.4802 70.5714,25.8052 69.2664,25.8052 C68.0624,25.8052 67.0964,25.5732 66.3654,25.1102 L66.7814,23.6222 C67.5684,24.0962 68.4324,24.3342 69.3734,24.3342 C70.0494,24.3342 70.5744,24.1812 70.9524,23.8782 C71.3284,23.5752 71.5164,23.1682 71.5164,22.6612 C71.5164,22.2082 71.3614,21.8272 71.0514,21.5182 C70.7424,21.2092 70.2264,20.9222 69.5064,20.6562 C67.5464,19.9292 66.5674,18.8622 66.5674,17.4602 C66.5674,16.5442 66.9104,15.7932 67.5974,15.2082 C68.2824,14.6232 69.1964,14.3312 70.3384,14.3312 C71.3574,14.3312 72.2034,14.5072 72.8784,14.8602 L72.4304,16.3152 C71.7994,15.9742 71.0864,15.8032 70.2884,15.8032 C69.6574,15.8032 69.1644,15.9582 68.8104,16.2662 C68.5124,16.5422 68.3624,16.8772 68.3624,17.2752 C68.3624,17.7162 68.5334,18.0802 68.8764,18.3672 C69.1754,18.6312 69.7174,18.9182 70.5054,19.2272 C71.4684,19.6132 72.1754,20.0642 72.6304,20.5822 C73.0844,21.0982 73.3104,21.7432 73.3104,22.5142" id="Fill-14" fill="#FFFFFF"></path>
                            <path d="M79.24,18.943 L77.263,18.943 L77.263,22.845 C77.263,23.837 77.611,24.333 78.31,24.333 C78.63,24.333 78.896,24.306 79.106,24.25 L79.156,25.606 C78.803,25.738 78.337,25.804 77.761,25.804 C77.053,25.804 76.499,25.589 76.1,25.159 C75.702,24.729 75.502,24.007 75.502,22.992 L75.502,18.941 L74.324,18.941 L74.324,17.601 L75.502,17.601 L75.502,16.13 L77.263,15.6 L77.263,17.601 L79.24,17.601 L79.24,18.943 Z" id="Fill-16" fill="#FFFFFF"></path>
                            <path d="M88.1594,21.5552 C88.1594,22.7902 87.8044,23.8052 87.0964,24.5982 C86.3534,25.4142 85.3674,25.8212 84.1384,25.8212 C82.9544,25.8212 82.0114,25.4302 81.3074,24.6482 C80.6044,23.8662 80.2524,22.8782 80.2524,21.6882 C80.2524,20.4432 80.6144,19.4232 81.3404,18.6302 C82.0644,17.8362 83.0424,17.4392 84.2714,17.4392 C85.4554,17.4392 86.4084,17.8302 87.1284,18.6132 C87.8164,19.3722 88.1594,20.3532 88.1594,21.5552 M86.2984,21.6132 C86.2984,20.8722 86.1394,20.2362 85.8174,19.7062 C85.4414,19.0642 84.9044,18.7442 84.2074,18.7442 C83.4864,18.7442 82.9384,19.0652 82.5624,19.7062 C82.2404,20.2372 82.0814,20.8822 82.0814,21.6462 C82.0814,22.3872 82.2404,23.0232 82.5624,23.5522 C82.9504,24.1942 83.4924,24.5142 84.1914,24.5142 C84.8764,24.5142 85.4134,24.1872 85.8014,23.5362 C86.1324,22.9962 86.2984,22.3532 86.2984,21.6132" id="Fill-18" fill="#FFFFFF"></path>
                            <path d="M93.9889,19.1733 C93.8119,19.1403 93.6219,19.1243 93.4239,19.1243 C92.7929,19.1243 92.3049,19.3613 91.9619,19.8353 C91.6629,20.2543 91.5129,20.7843 91.5129,21.4233 L91.5129,25.6403 L89.7209,25.6403 L89.7379,20.1343 C89.7379,19.2073 89.7149,18.3643 89.6699,17.6033 L91.2319,17.6033 L91.2979,19.1413 L91.3479,19.1413 C91.5369,18.6133 91.8359,18.1873 92.2439,17.8683 C92.6439,17.5813 93.0749,17.4383 93.5409,17.4383 C93.7059,17.4383 93.8559,17.4493 93.9889,17.4703 L93.9889,19.1733 Z" id="Fill-20" fill="#FFFFFF"></path>
                            <path d="M102.0098,21.2411 C102.0098,21.5611 101.9888,21.8311 101.9438,22.0511 L96.5638,22.0511 C96.5848,22.8451 96.8448,23.4521 97.3448,23.8711 C97.7978,24.2451 98.3838,24.4331 99.1038,24.4331 C99.9008,24.4331 100.6278,24.3061 101.2818,24.0531 L101.5618,25.2921 C100.7988,25.6241 99.8968,25.7891 98.8558,25.7891 C97.6048,25.7891 96.6218,25.4221 95.9068,24.6891 C95.1938,23.9561 94.8358,22.9721 94.8358,21.7381 C94.8358,20.5261 95.1678,19.5171 95.8338,18.7121 C96.5298,17.8521 97.4718,17.4231 98.6558,17.4231 C99.8188,17.4231 100.6998,17.8521 101.2978,18.7121 C101.7718,19.3941 102.0098,20.2381 102.0098,21.2411 L102.0098,21.2411 Z M100.2998,20.7781 C100.3118,20.2491 100.1948,19.7911 99.9518,19.4051 C99.6408,18.9081 99.1638,18.6611 98.5218,18.6611 C97.9358,18.6611 97.4588,18.9031 97.0948,19.3881 C96.7958,19.7741 96.6188,20.2381 96.5638,20.7771 L100.2998,20.7771 L100.2998,20.7781 Z" id="Fill-22" fill="#FFFFFF"></path>
                            <path d="M35.7799,5.3458 C35.9709,5.2318 36.1859,5.1368 36.4289,5.0578 C36.6699,4.9788 36.9539,4.9398 37.2819,4.9398 C37.8089,4.9398 38.2249,5.0648 38.5289,5.3128 C38.8339,5.5618 38.9859,5.8978 38.9859,6.3208 C38.9859,6.6568 38.8839,6.9378 38.6799,7.1658 C38.4769,7.3938 38.2159,7.5448 37.9009,7.6208 L37.9009,7.6448 C38.0749,7.6728 38.2399,7.7198 38.3939,7.7868 C38.5499,7.8548 38.6859,7.9458 38.8019,8.0598 C38.9189,8.1728 39.0119,8.3058 39.0799,8.4578 C39.1469,8.6098 39.1819,8.7768 39.1819,8.9618 C39.1819,9.2658 39.1199,9.5198 38.9979,9.7258 C38.8749,9.9318 38.7149,10.0998 38.5159,10.2298 C38.3189,10.3598 38.0969,10.4538 37.8519,10.5098 C37.6069,10.5658 37.3619,10.5958 37.1179,10.5958 C36.8559,10.5958 36.5979,10.5678 36.3419,10.5138 C36.0859,10.4608 35.8499,10.3708 35.6319,10.2458 L35.8519,9.5718 C35.9939,9.6418 36.1759,9.7098 36.3989,9.7758 C36.6219,9.8408 36.8469,9.8728 37.0759,9.8728 C37.4509,9.8728 37.7419,9.7888 37.9449,9.6218 C38.1489,9.4528 38.2509,9.2288 38.2509,8.9468 C38.2509,8.7568 38.2099,8.6018 38.1289,8.4798 C38.0459,8.3578 37.9399,8.2618 37.8099,8.1908 C37.6789,8.1208 37.5339,8.0718 37.3729,8.0448 C37.2129,8.0188 37.0539,8.0038 36.8959,8.0038 L36.5289,8.0038 L36.5289,7.3368 L36.8959,7.3368 C37.0649,7.3368 37.2209,7.3158 37.3659,7.2708 C37.5099,7.2288 37.6349,7.1678 37.7409,7.0888 C37.8469,7.0098 37.9299,6.9158 37.9899,6.8078 C38.0489,6.6998 38.0789,6.5778 38.0789,6.4418 C38.0789,6.1988 37.9919,6.0078 37.8169,5.8688 C37.6429,5.7308 37.4089,5.6618 37.1159,5.6618 C36.9149,5.6618 36.7129,5.6938 36.5119,5.7588 C36.3109,5.8238 36.1309,5.8948 35.9729,5.9698 L35.7799,5.3458 Z" id="Fill-24" fill="#FFFFFF"></path>
                            <path d="M42.788,10.505 L42.723,10.05 L42.699,10.05 C42.433,10.413 42.047,10.595 41.54,10.595 C41.36,10.595 41.198,10.564 41.051,10.505 C40.904,10.446 40.776,10.364 40.667,10.261 C40.558,10.158 40.475,10.037 40.414,9.895 C40.354,9.755 40.325,9.6 40.325,9.432 C40.325,8.94 40.526,8.569 40.929,8.323 C41.332,8.077 41.902,7.954 42.642,7.954 L42.642,7.881 C42.642,7.361 42.368,7.101 41.82,7.101 C41.429,7.101 41.084,7.199 40.786,7.394 L40.607,6.817 C40.971,6.59 41.424,6.476 41.967,6.476 C43.004,6.476 43.523,7.021 43.523,8.11 L43.523,9.564 C43.523,9.97 43.543,10.284 43.58,10.506 L42.788,10.506 L42.788,10.505 Z M42.666,8.539 C42.174,8.539 41.807,8.601 41.567,8.726 C41.326,8.851 41.206,9.054 41.206,9.336 C41.206,9.542 41.262,9.696 41.376,9.799 C41.489,9.902 41.633,9.953 41.806,9.953 C41.92,9.953 42.028,9.933 42.131,9.892 C42.234,9.852 42.324,9.796 42.402,9.725 C42.481,9.655 42.544,9.569 42.594,9.469 C42.642,9.368 42.666,9.262 42.666,9.148 L42.666,8.539 Z" id="Fill-26" fill="#FFFFFF"></path>
                        </g>
                        <polygon id="Fill-29" fill="#FFFFFF" points="47.7747 6.5569 47.7747 7.2799 46.1257 7.2799 46.1257 10.5049 45.2447 10.5049 45.2447 6.5569"></polygon>
                        <g id="Group-38" transform="translate(48.000000, 6.000000)" fill="#FFFFFF">
                            <path d="M4.8169,2.4823 C4.8169,2.7963 4.7729,3.0833 4.6869,3.3433 C4.5989,3.6033 4.4789,3.8253 4.3229,4.0093 C4.1679,4.1933 3.9829,4.3373 3.7689,4.4393 C3.5529,4.5423 3.3159,4.5943 3.0549,4.5943 C2.5319,4.5943 2.1569,4.4073 1.9279,4.0343 L1.9109,4.0343 L1.9109,6.1133 L1.0299,6.1133 L1.0299,1.8563 C1.0299,1.6453 1.0269,1.4333 1.0209,1.2183 C1.0159,1.0053 1.0079,0.7833 0.9979,0.5563 L1.7729,0.5563 L1.8219,1.1813 L1.8389,1.1813 C2.1329,0.7113 2.5789,0.4743 3.1769,0.4743 C3.4109,0.4743 3.6279,0.5233 3.8259,0.6203 C4.0249,0.7183 4.1969,0.8553 4.3439,1.0313 C4.4909,1.2063 4.6069,1.4183 4.6909,1.6653 C4.7749,1.9123 4.8169,2.1843 4.8169,2.4823 M3.9199,2.5153 C3.9199,2.3203 3.8969,2.1393 3.8499,1.9743 C3.8039,1.8093 3.7359,1.6693 3.6469,1.5523 C3.5579,1.4363 3.4479,1.3443 3.3199,1.2763 C3.1929,1.2083 3.0499,1.1753 2.8909,1.1753 C2.7669,1.1753 2.6439,1.2023 2.5239,1.2563 C2.4039,1.3093 2.2989,1.3833 2.2099,1.4753 C2.1199,1.5673 2.0489,1.6793 1.9939,1.8093 C1.9389,1.9383 1.9109,2.0773 1.9109,2.2233 L1.9109,2.8813 C1.9109,3.0273 1.9339,3.1633 1.9809,3.2883 C2.0279,3.4123 2.0919,3.5213 2.1759,3.6133 C2.2609,3.7053 2.3619,3.7773 2.4779,3.8283 C2.5949,3.8803 2.7239,3.9053 2.8649,3.9053 C3.1979,3.9053 3.4559,3.7793 3.6409,3.5273 C3.8259,3.2753 3.9199,2.9373 3.9199,2.5153" id="Fill-30"></path>
                            <path d="M9.5512,0.5569 L8.5472,3.2949 C8.3082,3.9449 8.0752,4.4769 7.8492,4.8909 C7.6232,5.3059 7.4082,5.6069 7.2012,5.7969 C6.8962,6.0679 6.5722,6.2339 6.2292,6.2919 L6.0172,5.5539 C6.2452,5.4939 6.4632,5.3779 6.6702,5.2039 C6.8762,5.0309 7.0422,4.8149 7.1682,4.5539 C7.2122,4.4679 7.2332,4.4089 7.2332,4.3759 C7.2332,4.3429 7.2162,4.2809 7.1842,4.1889 L5.7472,0.5579 L6.7182,0.5579 L7.4692,2.7599 C7.5082,2.8629 7.5462,2.9789 7.5832,3.1089 C7.6222,3.2389 7.6622,3.3829 7.7062,3.5389 L7.7232,3.5389 C7.7502,3.4519 7.7802,3.3429 7.8122,3.2099 C7.8452,3.0779 7.8892,2.9249 7.9432,2.7509 L8.6122,0.5579 L9.5512,0.5579 L9.5512,0.5569 Z" id="Fill-32"></path>
                            <path d="M11.0771,2.1976 L11.4841,2.1976 C11.7831,2.1976 12.0151,2.1436 12.1771,2.0356 C12.3401,1.9266 12.4221,1.7936 12.4221,1.6366 C12.4221,1.4736 12.3531,1.3446 12.2131,1.2466 C12.0761,1.1496 11.8831,1.1006 11.6381,1.1006 C11.4801,1.1006 11.3211,1.1266 11.1621,1.1776 C11.0011,1.2296 10.8531,1.2926 10.7171,1.3686 L10.4891,0.8006 C10.7171,0.6766 10.9441,0.5916 11.1711,0.5456 C11.3971,0.4986 11.6231,0.4756 11.8521,0.4756 C12.0331,0.4756 12.2131,0.4936 12.3951,0.5286 C12.5761,0.5636 12.7381,0.6226 12.8801,0.7066 C13.0211,0.7906 13.1381,0.9006 13.2261,1.0356 C13.3161,1.1716 13.3611,1.3396 13.3611,1.5406 C13.3611,1.6646 13.3361,1.7746 13.2871,1.8696 C13.2391,1.9636 13.1731,2.0476 13.0921,2.1206 C13.0111,2.1936 12.9191,2.2536 12.8191,2.2986 C12.7191,2.3446 12.6161,2.3796 12.5141,2.4016 L12.5141,2.4256 C12.6431,2.4426 12.7701,2.4746 12.8931,2.5236 C13.0151,2.5716 13.1251,2.6356 13.2241,2.7146 C13.3211,2.7926 13.4001,2.8876 13.4601,2.9986 C13.5191,3.1096 13.5481,3.2356 13.5481,3.3756 C13.5481,3.6086 13.4931,3.8036 13.3781,3.9606 C13.2641,4.1176 13.1181,4.2416 12.9401,4.3346 C12.7641,4.4266 12.5691,4.4926 12.3571,4.5336 C12.1451,4.5736 11.9381,4.5946 11.7381,4.5946 C11.4931,4.5946 11.2501,4.5686 11.0121,4.5176 C10.7721,4.4656 10.5571,4.3856 10.3661,4.2776 L10.5961,3.7006 C10.7371,3.7776 10.8981,3.8406 11.0801,3.8916 C11.2631,3.9426 11.4491,3.9686 11.6391,3.9686 C11.9381,3.9686 12.1681,3.9116 12.3291,3.7946 C12.4881,3.6786 12.5681,3.5336 12.5681,3.3596 C12.5681,3.2466 12.5421,3.1506 12.4881,3.0716 C12.4331,2.9936 12.3561,2.9296 12.2601,2.8806 C12.1611,2.8326 12.0481,2.7976 11.9171,2.7796 C11.7871,2.7606 11.6441,2.7516 11.4931,2.7516 L11.0771,2.7516 L11.0771,2.1976 Z" id="Fill-34"></path>
                            <path d="M15.7845,0.5569 L15.7845,1.9539 C15.7845,2.2739 15.7795,2.5609 15.7675,2.8149 C15.7555,3.0699 15.7435,3.3379 15.7265,3.6189 L15.7435,3.6349 C15.8465,3.4289 15.9485,3.2279 16.0485,3.0289 C16.1505,2.8319 16.2525,2.6299 16.3555,2.4239 L17.3345,0.5549 L18.4765,0.5549 L18.4765,4.5029 L17.6435,4.5029 L17.6435,3.1059 C17.6435,2.8139 17.6515,2.5219 17.6645,2.2299 C17.6785,1.9359 17.6925,1.6419 17.7095,1.3429 L17.6675,1.3429 C17.5765,1.5869 17.4835,1.7979 17.3905,1.9769 C17.2985,2.1559 17.2065,2.3399 17.1145,2.5299 C16.9455,2.8549 16.7775,3.1799 16.6115,3.5049 C16.4455,3.8299 16.2695,4.1629 16.0855,4.5039 L14.9445,4.5039 L14.9445,0.5569 L15.7845,0.5569 Z" id="Fill-36"></path>
                        </g>
                        <polygon id="Fill-39" fill="#FFFFFF" points="71.1283 6.5569 71.1283 7.2799 69.9213 7.2799 69.9213 10.5049 69.0543 10.5049 69.0543 7.2799 67.8553 7.2799 67.8553 6.5569"></polygon>
                        <g id="Group-44" transform="translate(72.000000, 6.000000)" fill="#FFFFFF">
                            <path d="M3.6237,2.3441 C3.6237,2.4191 3.6207,2.4911 3.6157,2.5591 C3.6107,2.6271 3.6017,2.6881 3.5907,2.7421 L0.9467,2.7421 C0.9587,3.1151 1.0767,3.4041 1.3017,3.6071 C1.5277,3.8101 1.8257,3.9121 2.1957,3.9121 C2.5817,3.9121 2.9377,3.8501 3.2647,3.7251 L3.4027,4.3351 C3.0267,4.4971 2.5837,4.5781 2.0717,4.5781 C1.7627,4.5781 1.4857,4.5311 1.2407,4.4361 C0.9957,4.3411 0.7887,4.2071 0.6197,4.0341 C0.4527,3.8611 0.3217,3.6521 0.2317,3.4081 C0.1437,3.1651 0.0987,2.8921 0.0987,2.5891 C0.0987,2.2851 0.1437,2.0051 0.2317,1.7481 C0.3217,1.4911 0.4487,1.2671 0.6117,1.0781 C0.7757,0.8881 0.9727,0.7391 1.2027,0.6301 C1.4337,0.5221 1.6927,0.4681 1.9747,0.4681 C2.2247,0.4681 2.4507,0.5121 2.6567,0.6021 C2.8607,0.6911 3.0347,0.8181 3.1777,0.9841 C3.3227,1.1491 3.4327,1.3471 3.5087,1.5771 C3.5857,1.8061 3.6237,2.0631 3.6237,2.3441 L3.6237,2.3441 Z M2.7827,2.1171 C2.7827,1.8081 2.7087,1.5581 2.5587,1.3661 C2.4087,1.1741 2.1927,1.0771 1.9097,1.0771 C1.6537,1.0771 1.4377,1.1741 1.2587,1.3691 C1.0787,1.5641 0.9757,1.8131 0.9477,2.1171 L2.7827,2.1171 Z" id="Fill-40"></path>
                            <path d="M7.1744,0.5895 C7.3324,0.5625 7.5324,0.5405 7.7774,0.5245 C8.0224,0.5075 8.2724,0.4995 8.5284,0.4995 C8.6914,0.4995 8.8754,0.5095 9.0784,0.5285 C9.2824,0.5465 9.4784,0.5905 9.6614,0.6585 C9.8474,0.7265 10.0014,0.8275 10.1274,0.9635 C10.2524,1.0985 10.3164,1.2825 10.3164,1.5145 C10.3164,1.6345 10.2934,1.7415 10.2504,1.8355 C10.2064,1.9305 10.1484,2.0135 10.0744,2.0835 C10.0004,2.1535 9.9164,2.2125 9.8214,2.2575 C9.7264,2.3035 9.6284,2.3385 9.5234,2.3595 L9.5324,2.3835 C9.8204,2.4325 10.0544,2.5355 10.2334,2.6925 C10.4134,2.8495 10.5034,3.0665 10.5034,3.3425 C10.5034,3.6185 10.4254,3.8385 10.2754,4.0005 C10.1224,4.1635 9.9354,4.2855 9.7114,4.3665 C9.4874,4.4475 9.2534,4.4995 9.0044,4.5215 C8.7584,4.5425 8.5364,4.5545 8.3414,4.5545 C8.1224,4.5545 7.9084,4.5495 7.7004,4.5375 C7.4894,4.5265 7.3154,4.5155 7.1744,4.5045 L7.1744,0.5895 Z M8.0224,2.1655 L8.4704,2.1655 C8.6074,2.1655 8.7364,2.1565 8.8584,2.1375 C8.9814,2.1185 9.0884,2.0885 9.1804,2.0485 C9.2744,2.0075 9.3444,1.9535 9.3974,1.8855 C9.4494,1.8185 9.4754,1.7365 9.4754,1.6385 C9.4754,1.4595 9.4014,1.3285 9.2494,1.2445 C9.1004,1.1605 8.8654,1.1185 8.5444,1.1185 C8.4534,1.1185 8.3724,1.1215 8.3034,1.1275 C8.2364,1.1325 8.1424,1.1405 8.0224,1.1515 L8.0224,2.1655 Z M8.0224,3.9115 C8.1304,3.9225 8.2224,3.9305 8.2944,3.9365 C8.3694,3.9425 8.4534,3.9445 8.5534,3.9445 C8.6734,3.9445 8.7944,3.9375 8.9194,3.9205 C9.0444,3.9045 9.1594,3.8735 9.2634,3.8275 C9.3664,3.7825 9.4494,3.7205 9.5114,3.6415 C9.5734,3.5635 9.6064,3.4595 9.6064,3.3305 C9.6064,3.1045 9.5044,2.9485 9.3044,2.8625 C9.1024,2.7765 8.8314,2.7335 8.4874,2.7335 L8.0224,2.7335 L8.0224,3.9115 Z" id="Fill-42"></path>
                        </g>
                    </g>
                </g>
            </g>
        </g>
    </g>
</svg>