<?xml version="1.0" encoding="UTF-8" standalone="no"?>
<svg width="100%" height="100%" viewBox="0 0 266 229" version="1.1" xmlns="http://www.w3.org/2000/svg" xmlns:xlink="http://www.w3.org/1999/xlink">
    <!-- Generator: Sketch 43 (38999) - http://www.bohemiancoding.com/sketch -->
    <title>Group 3</title>
    <desc>Created with Sketch.</desc>
    <defs>
        <style type="text/css">
            .building-path:hover {
                fill: #00ff00;
            }
        </style>
    </defs>
    <g class="building-path" id="Symbols" stroke="none" stroke-width="1" fill="none" fill-rule="evenodd">
        <g id="museum" transform="translate(-3.000000, -198.000000)">
            <g id="buildings">
                <g transform="translate(0.000000, 198.000000)">
                    <g id="buildings-01">
                        <g id="Group-3" transform="translate(3.000000, 0.000000)">
                            <path d="M0.4815,81.9241 L0.4815,101.2451 L22.7795,123.1731 L26.9185,120.6881 L53.8675,147.1861 L53.8675,153.7401 L76.1675,175.6651 L80.3055,173.1831 L107.2545,199.6821 L107.2545,206.2341 L129.5535,228.1591 L140.0355,221.8681 L143.7515,225.5221 L183.7085,201.5411 L192.9995,210.6761 L227.2485,190.1191 L227.2485,178.5261 L225.2805,176.5901 L257.9165,157.0031 L257.9165,151.1181 L264.6805,147.0551 L264.6805,127.7341 L242.3825,105.8071 L238.2435,108.2921 L211.2935,81.7931 L211.2935,75.2391 L188.9955,53.3141 L184.8575,55.7991 L157.9075,29.2981 L157.9075,22.7461 L135.6095,0.820099961 L0.4815,81.9241 Z M141.9745,70.2401 L128.1325,56.4801 L134.6705,52.5551 L153.5565,71.1241 L141.9745,78.0761 L141.9745,70.2401 Z M65.4715,94.0871 L77.0525,87.1391 L95.9385,105.7081 L84.3565,112.6601 L65.4715,94.0871 Z" id="Fill-7" fill="#FFFFFF"></path>
                            <g id="Group-14" transform="translate(0.000000, 0.763600)">
                                <path d="M242.3826,105.0436 L238.2426,107.5286 L211.2946,81.0306 L211.2946,74.4756 L188.9956,52.5506 L184.8576,55.0356 L157.9076,28.5346 L157.9076,21.9826 L135.6096,0.0576 L0.4816,81.1606 L0.4816,100.4816 L22.7806,122.4086 L26.9186,119.9236 L53.8686,146.4226 L53.8686,152.9776 L76.1666,174.9026 L80.3046,172.4196 L107.2546,198.9176 L107.2546,205.4706 L129.5526,227.3956 L140.0356,221.1046 L143.7516,224.7586 L183.7086,200.7776 L192.9996,209.9126 L227.2476,189.3556 L227.2476,177.7626 L225.2806,175.8266 L257.9166,156.2396 L257.9166,150.3546 L264.6806,146.2916 L264.6806,126.9706 L242.3826,105.0436 Z M84.3566,111.8956 L65.4716,93.3246 L77.0526,86.3756 L95.9386,104.9446 L84.3566,111.8956 Z M141.9746,77.3126 L141.9746,69.4766 L128.1336,55.7166 L134.6706,51.7916 L153.5556,70.3606 L141.9746,77.3126 Z" id="Stroke-8" stroke="#FFFFFF" stroke-width="0.963"></path>
                                <path d="M77.0528,86.3752 L77.0528,67.0522 M77.0528,86.3752 L95.9378,104.9452 M188.9958,52.5502 L211.2938,74.4752 M246.4988,143.7672 L246.4988,163.0902 M235.0838,150.6202 L235.0838,169.9412 M240.7908,147.1952 L240.7908,166.5162 M229.3738,154.0462 L229.3738,173.3692 M252.2068,140.3412 L252.2068,159.6652 M264.6808,146.2922 L264.6808,126.9712 M211.2938,74.4752 L207.1568,76.9602 M235.0838,169.9412 L229.3738,173.3692 M264.6808,146.2922 L257.9158,150.3542 M252.2068,159.6642 L246.4988,163.0902 M257.9158,156.2392 L252.2068,159.6652 M240.7908,166.5162 L235.0838,169.9412 M188.9958,52.5502 L184.8578,55.0352 M229.3738,173.3692 L225.2808,175.8262 M223.6658,157.4712 L223.6658,174.2392 M246.4988,163.0902 L240.7908,166.5162 M107.2548,186.1472 L111.3928,183.6642 M76.1668,174.9022 L80.3048,172.4192 M80.3048,172.4192 L80.3048,153.0962 M143.7518,205.4372 L143.7518,224.7582 M22.7798,122.4092 L26.9188,119.9242 M26.9188,119.9242 L26.9188,100.6032 M178.0008,184.8802 L178.0008,204.2032 M178.0008,204.2032 L183.7088,200.7772 M183.7088,181.4542 L183.7088,200.7772 M80.3048,172.4192 L107.2548,198.9182 M140.0348,221.1042 L143.7518,224.7582 M53.8678,152.9772 L76.1668,174.9022 M149.4598,202.0092 L155.1678,198.5842 M155.1678,198.5842 L160.8758,195.1582 M160.8758,195.1582 L166.5848,191.7332 M166.5848,191.7332 L172.2928,188.3052 M172.2928,188.3052 L178.0008,184.8802 M26.9188,119.9242 L53.8678,146.4222 M129.5528,227.3952 L129.5528,208.0742 M107.4068,186.2962 L129.5528,208.0742 M107.2548,205.4702 L129.5528,227.3952 M80.3048,153.0962 L111.3928,183.6642 M26.9188,100.6032 L58.0068,131.1712 M166.5848,191.7332 L166.5848,211.0542 M166.5848,211.0542 L172.2928,207.6282 M172.2928,188.3052 L172.2928,207.6282 M187.4258,185.1082 L183.7088,181.4542 M0.4818,100.4812 L22.7798,122.4092 M172.2928,207.6282 L178.0008,204.2032 M149.4598,202.0092 L149.4598,221.3332 M149.4598,221.3332 L155.1678,217.9072 M155.1678,198.5842 L155.1678,217.9072 M129.5528,208.0742 L140.0348,201.7832 M129.5528,227.3952 L140.0348,221.1042 M192.9998,209.9132 L187.4258,204.4322 M160.8758,214.4822 L166.5848,211.0542 M155.1678,217.9072 L160.8758,214.4822 M160.8758,195.1582 L160.8758,214.4822 M153.7698,24.4672 L157.9078,21.9822 M238.2428,107.5282 L242.3828,105.0432 M221.6758,164.5532 L217.9588,160.8992 M242.3828,105.0432 L264.6808,126.9712 M264.6808,126.9712 L254.1988,133.2622 M211.2938,81.0302 L211.2938,74.4752 M187.4258,204.4322 L183.7088,200.7772 M187.4258,185.1082 L187.4258,192.8372 M140.0348,201.7832 L140.0348,221.1042 M143.7518,205.4372 L140.0348,201.7832 M178.0008,184.8802 L183.7088,181.4542 M183.7088,181.4542 L179.9928,177.8002 M140.0348,201.7832 L179.9928,177.8002 M221.6758,172.2812 L221.6758,164.5532 M192.9998,209.9132 L192.9998,198.3182 M227.2478,189.3552 L192.9998,209.9132 M227.2478,189.3552 L227.2478,177.7632 M187.4258,185.1082 L198.0938,155.7582 M198.0938,155.7582 L221.6758,164.5532 M221.6758,164.5532 L187.4258,185.1082 M53.8678,133.6542 L76.1668,155.5792 M76.1668,174.9022 L76.1668,155.5792 M76.1668,155.5792 L80.3048,153.0962 M53.8678,133.6542 L58.0068,131.1712 M22.7798,122.4092 L22.7798,103.0862 M0.4818,81.1612 L22.7798,103.0862 M0.4818,100.4812 L0.4818,81.1612 M22.7798,103.0862 L26.9188,100.6032 M157.9078,21.9822 L135.6088,0.0572 M157.9078,28.5342 L157.9078,21.9822 M252.2068,140.3412 L246.4988,143.7672 M257.9158,136.9162 L252.2068,140.3412 M246.4988,143.7672 L240.7908,147.1952 M240.7908,147.1952 L235.0838,150.6202 M235.0838,150.6202 L229.3738,154.0462 M229.3738,154.0462 L223.6658,157.4712 M257.9158,136.9162 L254.1988,133.2622 M223.6658,157.4712 L217.9588,160.8992 M217.9588,160.8992 L214.2408,157.2422 M254.1988,133.2622 L214.2408,157.2422 M143.7518,205.4372 L149.4598,202.0092 M143.7518,224.7582 L149.4598,221.3332 M128.1328,55.7162 L134.6708,51.7912 M192.8148,197.9472 L210.7718,182.2762 M226.7368,177.5092 L210.7718,182.2762 M221.6758,172.2812 L205.1978,176.7942 M187.4258,192.8372 L205.1978,176.7942 M192.9998,198.3182 L187.4258,192.8372 M210.7718,182.2762 L205.1978,176.7942 M187.4258,192.8372 L187.4258,204.4322 M192.9998,198.3182 L227.2478,177.7632 M135.6088,0.0572 L134.4608,8.3852 M263.9548,127.1482 L240.9568,112.8982 M188.9958,52.5502 L187.0158,60.1892 M157.1418,22.2392 L134.4608,8.3852 M242.3828,105.0432 L240.9568,112.8982 M210.7698,74.7902 L187.0158,60.1892 M134.6708,32.4702 L165.7588,63.0382 M54.5868,133.9332 L72.5548,129.0712 M107.9358,186.2962 L125.0278,182.2762 M76.1668,155.5792 L72.5548,129.0712 M129.5528,208.0742 L125.0278,182.2762 M22.7798,103.0862 L20.5768,76.7122 M115.9308,43.7172 L134.6708,32.4702 M1.1518,81.4792 L20.5768,76.7122 M134.6708,51.7912 L134.6708,32.4702 M195.6828,133.0712 L164.5948,102.5032 M164.5948,102.5032 L188.1708,88.3532 M188.1708,88.3532 L219.2598,118.9212 M219.2598,118.9212 L195.6828,133.0712 M112.6398,134.4162 L137.3128,119.1322 M137.3128,119.1312 L168.4008,149.7002 M168.4008,149.7002 L143.7268,164.9832 M143.7278,164.9842 L112.6398,134.4162 M26.0838,73.4312 L78.6388,125.2382 M78.6388,125.2382 L132.5818,177.9472 M130.3878,10.8302 L182.9428,62.6352 M182.9428,62.6352 L236.8848,115.3432 M72.5548,129.0712 L182.9428,62.6352 M182.9428,62.6352 L187.0158,60.1892 M125.0278,182.2762 L132.5818,177.9472 M132.5818,177.9472 L240.9568,112.8982 M20.5768,76.7122 L26.0838,73.4312 M130.3878,10.8302 L134.4608,8.3842 M26.0838,73.4312 L130.3878,10.8302 M141.9738,77.3122 L141.9738,69.4762 M108.1408,97.6202 L108.1408,89.7822 M140.3798,67.7562 L141.9738,69.4762 M108.1408,89.7822 L77.0528,59.2142 M141.9738,69.4762 L108.1408,89.7822 M257.9158,136.9162 L257.9158,150.3542 M257.9158,150.3542 L257.9158,156.2392 M107.2548,205.4702 L107.2548,198.9182 M107.2548,198.9182 L107.2548,186.1472 M184.8578,55.0352 L157.9078,28.5352 M157.9078,28.5342 L153.7698,24.4672 M238.2428,107.5282 L211.2938,81.0302 M211.2938,81.0302 L207.1568,76.9602 M53.8678,152.9772 L53.8678,146.4222 M53.8678,146.4222 L53.8678,133.6542 M227.2478,177.7632 L225.2808,175.8262 M165.7588,63.0382 L153.5558,70.3612 M84.3568,111.8962 L65.4708,93.3242 M65.4708,93.3242 L53.2688,81.3282 M84.3568,111.8962 L95.9378,104.9452 M77.0528,67.0522 L77.0528,59.2142 M140.3798,67.7562 L128.1328,55.7162 M225.2808,175.8262 L223.6658,174.2392 M223.6658,174.2392 L221.6758,172.2812 M128.1328,55.7162 L115.9308,43.7172 M115.9308,43.7172 L109.2918,37.1882 M0.4818,81.1612 L135.6088,0.0572 M153.5558,70.3612 L141.9738,77.3122 M108.1408,97.6202 L141.9738,77.3122 M108.1408,97.6202 L95.9378,104.9452 M77.0528,67.0522 L53.2688,81.3282 M65.4708,93.3242 L77.0528,86.3752 M134.6708,51.7912 L153.5558,70.3612 M198.0938,155.7582 L133.8188,92.6772 M84.9688,164.0472 L84.9688,168.5952 M84.9688,168.5952 L84.9688,173.1402 M84.9688,164.0472 L84.9688,161.5452 M89.4288,168.4312 L89.4288,172.9792 M89.4288,172.9792 L89.4288,177.5252 M89.4288,168.4312 L89.4288,165.9322 M93.8888,172.8182 L93.8888,177.3642 M93.8888,177.3642 L93.8888,181.9092 M93.8888,172.8182 L93.8888,170.3172 M98.3488,177.2032 L98.3488,181.7482 M98.3488,181.7482 L98.3488,186.2962 M98.3488,177.2032 L98.3488,174.7012 M102.8078,181.5872 L102.8078,186.1352 M102.8078,186.1352 L102.8078,190.6812 M102.8078,181.5872 L102.8078,179.0882 M36.0418,115.9382 L36.0418,120.4862 M36.0418,120.4862 L36.0418,125.0322 M36.0418,115.9382 L36.0418,113.4392 M44.9618,124.7102 L44.9618,129.2552 M44.9618,129.2552 L44.9618,133.8012 M44.9618,124.7102 L44.9618,122.2082 M40.5018,120.3232 L40.5018,124.8712 M40.5018,124.8712 L40.5018,129.4162 M40.5018,120.3232 L40.5018,117.8242" id="Stroke-10" stroke="#7D7D7D" stroke-width="0.963" stroke-linecap="round" stroke-linejoin="round"></path>
                                <path d="M49.4215,129.0944 L49.4215,133.6404 M49.4215,133.6404 L49.4215,138.1874 M49.4215,129.0944 L49.4215,126.5934 M31.5825,111.5544 L31.5825,116.0994 M31.5825,116.0994 L31.5825,120.6474 M31.5825,111.5544 L31.5825,109.0524 M198.7085,194.8924 L198.7085,206.4874 M204.4175,191.4674 L204.4175,203.0594 M210.1255,188.0414 L210.1255,199.6344 M215.8325,184.6144 L215.8325,196.2084 M221.5405,181.1884 L221.5405,192.7834 M77.0525,59.2144 C77.3095,57.2114 80.6345,47.5304 92.9615,40.1274 C105.3985,32.6574 109.2915,37.1884 109.2915,37.1884 M108.1405,89.7824 C108.9385,86.2044 112.4885,77.3654 124.0855,70.4614 C136.5515,63.0394 141.5375,69.2574 141.5375,69.2574" id="Stroke-12" stroke="#7D7D7D" stroke-width="1.021" stroke-linecap="round" stroke-linejoin="round"></path>
                            </g>
                        </g>
                    </g>
                </g>
            </g>
        </g>
    </g>
</svg>