<?xml version="1.0" encoding="UTF-8" standalone="no"?>
<svg width="100%" height="100%" viewBox="0 0 230 165" version="1.1" xmlns="http://www.w3.org/2000/svg" xmlns:xlink="http://www.w3.org/1999/xlink">
    <!-- Generator: Sketch 43 (38999) - http://www.bohemiancoding.com/sketch -->
    <title>Group 7</title>
    <desc>Created with Sketch.</desc>
    <defs></defs>
    <g id="Symbols" stroke="none" stroke-width="1" fill="none" fill-rule="evenodd">
        <g id="museum" transform="translate(-884.000000, -262.000000)">
            <g id="buildings">
                <g transform="translate(0.000000, 198.000000)">
                    <g id="buildings-04" transform="translate(864.000000, 65.000000)">
                        <g id="Group-7" transform="translate(20.000000, 0.000000)">
                            <polygon id="Fill-4" fill="#FFFFFF" points="129.1861 15.0584 129.1861 23.6784 124.1861 26.3154 117.9861 20.9624 33.9971 65.2464 33.9971 73.8674 1.0001 91.2654 1.0001 106.5834 66.6191 163.2634 94.6151 148.5024 94.6151 133.1844 68.0801 110.2644 68.2661 110.1644 152.2561 65.8804 152.2561 57.2594 157.2561 54.6224 201.0031 92.4094 229.0001 77.6484 229.0001 62.3304 163.3791 5.64939996 157.1821 0.296399961"></polygon>
                            <path d="M146.0682,45.2091 L157.2712,39.3051 M124.1882,26.3161 L123.1532,31.9701 M62.0472,89.4931 L57.9472,71.2971 M57.9472,71.2971 L40.1682,70.5991 M201.0352,77.0911 L157.2712,39.3051 M229.0422,62.3301 L163.3962,5.65009996 M229.0422,77.6491 L229.0422,62.3301 M157.2712,54.6231 L152.2692,57.2601 M116.4572,38.4341 L69.7792,63.0361 M116.4572,38.4341 L117.9872,20.9621 M152.2692,50.5621 L68.2482,94.8461 M116.4572,38.4341 L152.2692,50.5621 M201.0352,92.4101 L157.2712,54.6231 M201.0352,92.4101 L201.0352,77.0911 M201.0352,92.4101 L229.0422,77.6491 M152.2692,65.8801 L68.2482,110.1641 M146.0682,45.2091 L152.2692,50.5621 M124.1882,26.3161 L117.9872,20.9621 M68.2482,110.1641 L68.2482,94.8461 M40.1682,70.5991 L33.9672,65.2461 M69.7792,63.0361 L34.2372,65.4791 M33.9672,65.2461 L33.9672,73.8671 M69.7792,63.0361 L68.2482,94.8461 M61.8612,104.9091 L62.0472,104.8111 M66.6012,147.9451 L0.9582,91.2651 M66.6012,163.2641 L0.9582,106.5831 M66.6012,163.2641 L66.6012,147.9451 M0.9582,106.5831 L0.9582,91.2651 M62.0472,104.8111 L62.0472,89.4931 M50.8472,95.3971 L62.0472,89.4931 M94.6082,148.5021 L94.6082,133.1841 M94.6082,148.5021 L66.6012,163.2641 M62.0472,89.4931 L68.2482,94.8461 M62.0472,104.8111 L68.2482,110.1641 M66.6012,147.9451 L94.6082,133.1841 M70.9762,125.4771 L27.2152,87.6901 M70.9762,125.4771 L66.6012,147.9451 M70.9762,125.4771 L94.6082,133.1841 M201.0352,77.0911 L229.0422,62.3301 M204.9922,54.7431 L161.2292,16.9551 M204.9922,54.7431 L201.0352,77.0911 M204.9922,54.7431 L229.0422,62.3301 M157.2712,54.6231 L157.2712,39.3051 M129.1912,15.0581 L129.1912,23.6791 M135.3892,20.4111 L129.1912,15.0581 M163.3962,5.65009996 L157.1982,0.297099961 M129.1912,15.0581 L157.1982,0.297099961 M161.2292,16.9551 L155.0302,11.6021 M155.0302,11.6021 L157.1982,0.297099961 M155.0302,11.6021 L129.5822,15.3961 M147.8632,18.9471 L135.3892,20.4111 M123.1532,31.9701 L147.8632,18.9471 M134.0942,41.4161 L146.0682,45.2091 M158.8042,28.3931 L134.0942,41.4161 M158.8042,28.3931 L157.2712,39.3051 M123.1532,31.9701 L134.0942,41.4161 M147.8632,18.9471 L158.8042,28.3931 M135.3892,20.4111 L129.1912,23.6791 M129.1912,23.6791 L124.1882,26.3161 M40.1682,70.5991 L33.9672,73.8671 M152.2692,65.8801 L152.2692,57.2601 M152.2692,57.2601 L152.2692,50.5621 M94.6082,133.1841 L61.8612,104.9091 M61.8612,104.9091 L50.8472,95.3971 M0.9582,91.2651 L33.9672,73.8671 M117.9872,20.9621 L33.9672,65.2461 M27.2152,87.6901 L57.7482,71.5801 M83.4052,142.4191 L83.4052,145.0831 M83.4052,148.4131 L83.4052,151.0771 M77.8042,145.3711 L77.8042,148.0351 M77.8042,151.3651 L77.8042,154.0291 M90.6532,86.3671 L90.6532,89.0311 M90.6532,92.3611 L90.6532,95.0251 M85.0522,89.3191 L85.0522,91.9831 M85.0522,95.3131 L85.0522,97.9771 M73.8492,95.2241 L73.8492,97.8881 M73.8492,101.2181 L73.8492,103.8821 M79.4522,92.2711 L79.4522,94.9351 M79.4522,98.2651 L79.4522,100.9291 M96.2552,83.4151 L96.2552,86.0791 M96.2552,89.4091 L96.2552,92.0731 M101.8562,80.4631 L101.8562,83.1261 M101.8562,86.4561 L101.8562,89.1201 M107.4592,77.5101 L107.4592,80.1741 M107.4592,83.5041 L107.4592,86.1681 M118.6592,71.6061 L118.6592,74.2701 M118.6592,77.6001 L118.6592,80.2641 M124.2622,68.6531 L124.2622,71.3171 M124.2622,74.6471 L124.2622,77.3121 M113.0592,74.5581 L113.0592,77.2221 M113.0592,80.5521 L113.0592,83.2161 M129.8632,65.7011 L129.8632,68.3651 M129.8632,71.6951 L129.8632,74.3591 M135.4652,62.7491 L135.4652,65.4131 M135.4652,68.7431 L135.4652,71.4071 M146.6662,56.8441 L146.6662,59.5081 M146.6662,62.8391 L146.6662,65.5031 M129.8632,65.7011 L129.8632,68.3651 M129.8632,71.6951 L129.8632,74.3591 M141.0662,59.7971 L141.0662,62.4611 M141.0662,65.7911 L141.0662,68.4551 M217.8392,71.5651 L217.8392,74.2291 M217.8392,77.5591 L217.8392,80.2231 M212.2382,74.5171 L212.2382,77.1811 M212.2382,80.5111 L212.2382,83.1751 M49.0952,136.1611 L49.0952,138.8251 M49.0952,142.1551 L49.0952,144.8191 M40.3432,128.6031 L40.3432,131.2671 M40.3432,134.5971 L40.3432,137.2611 M53.4722,139.9391 L53.4722,142.6031 M53.4722,145.9331 L53.4722,148.5971 M53.4722,139.9391 L53.4722,142.6031 M53.4722,145.9331 L53.4722,148.5971 M31.5902,121.0461 L31.5902,123.7101 M31.5902,127.0401 L31.5902,129.7041 M27.2162,117.2671 L27.2162,119.9311 M27.2162,123.2611 L27.2162,125.9251 M22.8402,113.4881 L22.8402,116.1531 M22.8402,119.4821 L22.8402,122.1471 M18.4632,109.7101 L18.4632,112.3741 M18.4632,115.7041 L18.4632,118.3681 M9.7112,102.1521 L9.7112,104.8161 M9.7112,108.1461 L9.7112,110.8101 M57.8482,143.7181 L57.8482,146.3821 M57.8482,149.7121 L57.8482,152.3761 M14.0872,105.9311 L14.0872,108.5951 M14.0872,111.9251 L14.0872,114.5891 M35.9662,124.8251 L35.9662,127.4881 M35.9662,130.8181 L35.9662,133.4831 M5.3342,98.3741 L5.3342,101.0381 M5.3342,104.3681 L5.3342,107.0321 M170.4002,53.9711 L170.4002,56.6351 M170.4002,59.9651 L170.4002,62.6291 M174.7772,57.7491 L174.7772,60.4131 M174.7772,63.7441 L174.7772,66.4081 M179.1532,61.5281 L179.1532,64.1921 M179.1532,67.5221 L179.1532,70.1861 M183.5292,65.3071 L183.5292,67.9711 M183.5292,71.3011 L183.5292,73.9651 M192.2822,72.8641 L192.2822,75.5281 M192.2822,78.8581 L192.2822,81.5221 M157.2712,42.6351 L157.2712,45.2991 M157.2712,48.6291 L157.2712,51.2931 M161.6472,46.4131 L161.6472,49.0771 M161.6472,52.4071 L161.6472,55.0711 M166.0242,50.1921 L166.0242,52.8561 M166.0242,56.1861 L166.0242,58.8501 M187.9062,69.0861 L187.9062,71.7491 M187.9062,75.0791 L187.9062,77.7441" id="Stroke-5" stroke="#7D7D7D" stroke-linecap="round" stroke-linejoin="round"></path>
                        </g>
                    </g>
                </g>
            </g>
        </g>
    </g>
</svg>