<?xml version="1.0" encoding="UTF-8" standalone="no"?>
<svg width="100%" height="100%" viewBox="0 0 210 143" version="1.1" xmlns="http://www.w3.org/2000/svg" xmlns:xlink="http://www.w3.org/1999/xlink">
    <!-- Generator: Sketch 43 (38999) - http://www.bohemiancoding.com/sketch -->
    <title>Group 10</title>
    <desc>Created with Sketch.</desc>
    <defs></defs>
    <g id="Symbols" stroke="none" stroke-width="1" fill="none" fill-rule="evenodd">
        <g id="museum" transform="translate(-891.000000, -824.000000)">
            <g id="buildings">
                <g transform="translate(0.000000, 198.000000)">
                    <g id="buildings-08" transform="translate(864.000000, 626.000000)">
                        <g id="Group-10" transform="translate(27.000000, 0.000000)">
                            <polygon id="Fill-1" fill="#FFFFFF" points="28.8556 43.7987 21.7986 47.5617 21.7986 65.7007 31.0996 73.7327 20.6196 79.2577 20.6076 79.2817 0.7156 95.6847 0.7156 113.8227 31.7956 140.6697 43.6086 141.6477 209.3626 54.2527 209.3626 36.1147 177.1666 8.3037 141.7006 27.0027 141.7096 27.0707 110.9596 0.5097"></polygon>
                            <path d="M43.5792,141.648 L31.7612,140.669 M31.7612,140.669 L0.6652,113.823 M31.0642,73.732 L21.7592,65.7 M169.5202,65.774 L153.9722,50.379 M169.6122,75.228 L169.6122,57.089 M153.9722,43.675 L169.6122,57.089 M153.9722,43.675 L153.9722,50.379 M142.9862,79.757 L142.9862,89.22 M142.9862,79.757 L142.9862,71.082 M136.3532,74.578 L142.9862,71.082 M136.3532,74.578 L136.3532,92.716 M129.7182,78.074 L136.3532,74.578 M129.7182,78.074 L129.7182,96.212 M122.8802,75.491 L142.5642,70.732 M95.2862,51.563 L123.0862,75.655 M110.9632,0.509 L141.7262,27.07 M110.9632,0.509 L28.8192,43.799 M58.2482,64.103 L123.3232,29.808 M37.9252,46.56 L58.2482,64.103 M61.1032,92.617 L87.6382,78.633 M28.9522,86.521 L95.2862,51.563 M113.1642,13.149 L103.0032,8.321 M123.3232,25.864 L113.1642,13.149 M123.3232,29.808 L123.3232,25.864 M177.2012,8.304 L141.7182,27.003 M171.1052,24.982 L142.1542,27.285 M171.1652,24.95 L177.2012,8.304 M123.0862,81.569 L116.4512,85.065 M123.0862,81.569 L129.7182,78.074 M123.0862,75.655 L102.7982,91.566 M109.8192,88.561 L103.1862,92.057 M116.4512,85.065 L109.8192,88.561 M103.1862,92.057 L87.6382,78.633 M31.7612,122.531 L31.7612,140.669 M0.6652,95.684 L31.7612,122.531 M0.6652,113.823 L0.6652,95.684 M109.8192,88.561 L109.8192,106.699 M116.4512,85.065 L116.4512,103.204 M142.9862,79.757 L169.5202,65.774 M153.9722,50.379 L132.2612,61.821 M103.1862,110.109 L103.1862,92.057 M153.9722,43.675 L127.4382,57.659 M43.5792,123.509 L43.5792,141.648 M87.6382,85.337 L87.6382,78.633 M65.9262,96.779 L87.6382,85.337 M123.0862,81.569 L123.0862,99.708 M20.5682,79.282 L28.9522,86.521 M58.2482,60.16 L123.3232,25.864 M48.0872,47.445 L113.1642,13.149 M48.0872,47.445 L58.2482,60.16 M141.7182,27.093 L95.2862,51.563 M20.5682,79.282 L0.6652,95.684 M31.7612,122.531 L42.2822,97.95 M31.7612,122.531 L43.5792,123.509 M103.1862,100.732 L76.7462,114.666 M103.1862,100.732 L87.6382,85.337 M28.9522,86.521 L42.2822,97.95 M42.2822,97.95 L76.7462,106.03 M37.9252,46.56 L37.9252,42.617 M103.0032,8.321 L37.9252,42.617 M58.2482,64.103 L58.2482,60.16 M28.8192,43.799 L21.7592,47.561 M21.7592,65.7 L21.7592,47.561 M37.9252,42.617 L48.0872,47.445 M44.1082,66.857 L21.7592,47.561 M209.4112,54.253 L209.4112,36.114 M142.9862,71.082 L132.2612,61.821 M132.2612,61.821 L127.4382,57.659 M31.0642,73.732 L20.5792,79.258 M61.1032,92.617 L65.9262,96.779 M65.9262,96.779 L76.7462,106.03 M76.7462,124.169 L76.7462,121.167 M153.9722,43.675 L141.7262,27.07 M141.7182,27.093 L141.7182,27.003 M44.1082,66.857 L31.0642,73.732 M76.7462,121.167 L76.7462,111.703 M76.7462,111.703 L76.7462,106.03 M177.2012,8.304 L209.4112,36.114 M43.5792,141.648 L209.4112,54.253 M76.7462,106.03 L43.5792,123.509 M169.6122,57.089 L209.4112,36.114 M169.6122,57.089 L178.1902,32.04 L209.4112,36.114 M26.5792,122 L26.5792,125.154 M26.5792,129.097 L26.5792,132.252 M11.0312,108.576 L11.0312,111.731 M11.0312,115.674 L11.0312,118.829 M26.5792,122 L26.5792,125.154 M26.5792,129.097 L26.5792,132.252 M5.8482,104.102 L5.8482,107.256 M5.8482,111.2 L5.8482,114.354 M21.3962,117.525 L21.3962,120.68 M21.3962,124.623 L21.3962,127.777 M16.2132,113.051 L16.2132,116.205 M16.2132,120.148 L16.2132,123.303 M56.8442,120.461 L56.8442,123.616 M56.8442,127.559 L56.8442,130.713 M50.2112,123.957 L50.2112,127.111 M50.2112,131.055 L50.2112,134.209 M70.1112,113.469 L70.1112,116.624 M70.1112,120.567 L70.1112,123.722 M63.4792,116.965 L63.4792,120.12 M63.4792,124.063 L63.4792,127.217 M37.6692,126.963 L37.6692,130.118 M37.6692,134.061 L37.6692,137.216 M83.2842,113.585 L83.2842,116.739 M89.9192,110.089 L89.9192,113.244 M96.5512,106.593 L96.5512,109.748 M162.8852,71.635 L162.8852,74.79 M149.6182,78.627 L149.6182,81.782 M156.2532,75.131 L156.2532,78.286 M182.8792,54.041 L182.8792,57.195 M182.8792,61.138 L182.8792,64.293 M176.2442,57.537 L176.2442,60.691 M176.2442,64.634 L176.2442,67.789 M189.5122,50.545 L189.5122,53.699 M189.5122,57.642 L189.5122,60.797 M196.1472,47.049 L196.1472,50.204 M196.1472,54.147 L196.1472,57.301 M37.3072,64.928 L37.3072,68.082 M32.1242,60.453 L32.1242,63.608 M32.1242,67.551 L32.1242,70.705 M26.9422,55.979 L26.9422,59.133 M26.9422,63.076 L26.9422,66.231 M202.7792,43.553 L202.7792,46.708 M202.7792,50.651 L202.7792,53.806 M171.1052,24.982 L178.1902,32.04" id="Stroke-2" stroke="#7D7D7D" stroke-linecap="round" stroke-linejoin="round"></path>
                        </g>
                    </g>
                </g>
            </g>
        </g>
    </g>
</svg>