<?xml version="1.0" encoding="UTF-8" standalone="no"?>
<svg width="100%" height="100%" viewBox="0 0 150 124" version="1.1" xmlns="http://www.w3.org/2000/svg" xmlns:xlink="http://www.w3.org/1999/xlink">
    <!-- Generator: Sketch 43 (38999) - http://www.bohemiancoding.com/sketch -->
    <title>Group 4</title>
    <desc>Created with Sketch.</desc>
    <defs></defs>
    <g id="Symbols" stroke="none" stroke-width="1" fill="none" fill-rule="evenodd">
        <g id="museum" transform="translate(-348.000000, -303.000000)">
            <g id="buildings">
                <g transform="translate(0.000000, 198.000000)">
                    <g id="buildings-02" transform="translate(288.000000, 106.000000)">
                        <g id="Group-4" transform="translate(60.000000, 0.000000)">
                            <polygon id="Fill-1" fill="#FFFFFF" points="40.9839 16.7562 32.0359 24.7832 32.0359 37.7532 8.8499 49.9052 1.0159 57.3132 1.0159 84.6252 8.3329 90.9462 8.3329 102.0672 23.6449 115.2922 31.6389 111.0782 38.6479 117.1312 48.8129 111.7722 48.8129 102.0232 74.3399 88.6352 84.4229 97.3462 84.4229 112.9832 95.1679 122.2632 113.1059 112.8072 120.2819 109.0242 127.4579 105.2392 134.6339 101.4562 148.9849 93.8902 148.9849 66.5772 141.0859 59.7312 72.2479 0.272199961"></polygon>
                            <path d="M38.6212,89.8192 L39.8552,76.7092 M33.0612,70.8442 L39.8552,76.7092 M31.6082,83.7652 L38.6212,89.8192 M76.9302,47.8042 L105.3552,72.3382 M74.3392,61.3232 L94.0192,78.3122 M96.1812,83.4132 L91.6902,79.5372 M72.2462,0.272199961 L40.9592,16.7562 M52.6702,26.8652 L40.9592,16.7562 M141.1332,59.7312 L72.2462,0.272199961 M0.9622,57.3122 L8.8022,49.9042 M96.1812,83.4132 L141.1332,59.7312 M95.1822,94.9542 L96.1812,83.4132 M16.6902,66.9842 L24.0792,63.0922 M76.9302,47.8042 L33.0612,70.8442 M23.6072,87.9812 L25.6722,74.7362 M24.0792,63.0922 L8.8022,49.9042 M149.0382,66.5772 L141.1332,59.7312 M32.0042,24.7832 L40.9592,16.7562 M25.6722,74.7362 L16.6902,66.9842 M95.1822,94.9542 L113.1342,85.4952 M95.1822,122.2632 L113.1342,112.8072 M149.0382,93.8892 L149.0382,66.5772 M23.6072,115.2932 L8.2842,102.0672 M95.1822,94.9542 L84.4292,85.6712 M74.3392,88.6362 L48.7942,102.0232 M74.3392,88.6362 L74.3392,61.3232 M74.3392,61.3232 L41.8012,78.3952 M23.6072,87.9812 L8.2842,74.7542 M95.1822,122.2632 L95.1822,94.9542 M95.1822,122.2632 L84.4292,112.9832 M74.3392,88.6362 L84.4292,97.3462 M23.6072,115.2932 L23.6072,87.9812 M14.5052,69.0032 L0.9622,57.3122 M31.6082,111.0772 L23.6072,115.2932 M31.6082,111.0772 L31.6082,83.7652 M31.6082,83.7652 L23.6072,87.9812 M0.9622,84.6252 L0.9622,57.3122 M41.3342,32.8362 L32.0042,24.7832 M48.7942,84.4592 L38.6212,89.8192 M48.7942,111.7712 L38.6212,117.1312 M31.6082,111.0772 L38.6212,117.1312 M8.2842,90.9452 L0.9622,84.6252 M32.0042,37.7532 L32.0042,24.7832 M38.6212,117.1312 L38.6212,89.8192 M33.0612,70.8442 L25.6722,74.7362 M84.4292,85.6712 L91.6902,79.5372 M127.4962,105.2382 L134.6762,101.4552 M119.6832,109.3482 L119.6832,101.6652 M120.3152,109.0242 L127.4962,105.2382 M113.1342,112.8072 L120.3152,109.0242 M133.4512,102.0812 L133.4512,75.0872 M126.8632,105.5622 L126.8632,97.8822 M134.6762,101.4552 L149.0382,93.8892 M134.6762,74.1432 L149.0382,66.5772 M113.1342,85.4952 L134.6762,74.1432 M119.6832,101.6652 L126.8632,97.8822 M39.8552,76.7092 L41.8012,78.3952 M41.8012,78.3952 L48.7942,84.4592 M8.2842,74.7542 L14.5052,69.0032 M14.5052,69.0032 L16.6902,66.9842 M91.6902,79.5372 L94.0192,78.3122 M94.0192,78.3122 L105.3552,72.3382 M8.8022,49.9042 L32.0042,37.7532 M84.4292,112.9832 L84.4292,97.3462 M84.4292,97.3462 L84.4292,85.6712 M8.2842,74.7542 L8.2842,90.9452 M8.2842,90.9452 L8.2842,102.0672 M48.7942,111.7712 L48.7942,102.0232 M48.7942,102.0232 L48.7942,84.4592 M32.0042,37.7532 L41.3342,32.8362 M41.3342,32.8362 L52.6702,26.8652 M111.9092,113.4332 L111.9092,86.3512 M89.8052,94.5782 L89.8052,97.9942 M89.8052,102.2612 L89.8052,105.6732 M89.8052,109.9432 L89.8052,113.3562 M43.7072,91.4062 L43.7072,94.8192 M43.7072,99.0892 L43.7072,102.5022 M43.7072,106.7692 L43.7072,110.1842 M15.9462,85.6352 L15.9462,89.0502 M15.9462,93.3172 L15.9462,96.7302 M15.9462,100.9972 L15.9462,104.4122 M67.1582,69.3762 L67.1582,72.7892 M67.1582,77.0562 L67.1582,80.4712 M67.1582,84.7392 L67.1582,88.1512 M59.9772,73.1592 L59.9772,76.5722 M59.9772,80.8392 L59.9772,84.2552 M59.9772,88.5222 L59.9772,91.9342 M52.7962,76.9422 L52.7962,80.3552 M52.7962,84.6252 L52.7962,88.0382 M52.7962,92.3052 L52.7962,95.7202 M79.9492,70.4352 L79.9492,73.8482 M79.9492,78.1152 L79.9492,81.5312 M79.9492,85.7982 L79.9492,89.2102 M85.5602,75.2772 L85.5602,78.6902" id="Stroke-2" stroke="#7D7D7D" stroke-linecap="round" stroke-linejoin="round"></path>
                        </g>
                    </g>
                </g>
            </g>
        </g>
    </g>
</svg>