<?xml version="1.0" encoding="UTF-8" standalone="no"?>
<svg width="100%" height="100%" viewBox="0 0 197 153" version="1.1" xmlns="http://www.w3.org/2000/svg" xmlns:xlink="http://www.w3.org/1999/xlink">
    <!-- Generator: Sketch 43 (38999) - http://www.bohemiancoding.com/sketch -->
    <title>Group 8</title>
    <desc>Created with Sketch.</desc>
    <defs></defs>
    <g id="Symbols" stroke="none" stroke-width="1" fill="none" fill-rule="evenodd">
        <g id="museum" transform="translate(-34.000000, -814.000000)">
            <g id="buildings">
                <g transform="translate(0.000000, 198.000000)">
                    <g id="buildings-05" transform="translate(0.000000, 616.000000)">
                        <g id="Group-8" transform="translate(34.000000, 0.000000)">
                            <polygon id="Fill-13" fill="#FFFFFF" points="6.9957 26.5044 6.9957 39.5234 30.2887 59.6444 0.5587 75.3174 0.5587 88.3374 24.5817 109.0894 24.5817 118.1534 49.0137 139.2554 55.5297 135.8194 73.8547 151.6484 101.2157 137.2214 107.3227 142.4964 119.0517 136.3124 119.0517 123.2954 112.9437 118.0204 94.6197 102.1914 94.6197 97.5424 85.4087 86.0804 101.4597 77.6194 117.0967 69.3764 123.2037 74.6524 172.0657 116.8584 195.5187 104.4914 195.5187 83.1044 146.6567 40.8984 146.6327 40.8724 134.9077 42.4074 123.1797 53.2404 123.2037 53.2624 123.2037 58.6294 123.1797 58.6294 56.1077 0.6924"></polygon>
                            <path d="M183.845,84.6388 L134.93,42.4078 L183.845,84.6388 Z M123.219,53.2628 L172.11,95.4718 L123.219,53.2628 Z M172.11,95.4718 L183.845,84.6388 L172.11,95.4718 Z M123.219,74.6518 L123.219,53.2628 L123.219,74.6518 Z M117.107,59.3628 L123.219,64.6388 L117.107,59.3628 Z M117.107,69.3768 L117.107,59.3628 L117.107,69.3768 Z M117.107,69.3768 L123.219,74.6518 L117.107,69.3768 Z M195.577,104.4908 L195.577,83.1038 L195.577,104.4908 Z M73.84,151.6478 L101.217,137.2208 L73.84,151.6478 Z M172.11,116.8588 L195.577,104.4908 L172.11,116.8588 Z M0.5,88.3368 L0.5,75.3178 L0.5,88.3368 Z M0.5,88.3368 L24.538,109.0888 L0.5,88.3368 Z M70.17,76.4378 L70.17,72.7198 L70.17,76.4378 Z M56.082,0.6918 L6.941,26.5048 L56.082,0.6918 Z M183.845,84.6388 L195.577,83.1038 L183.845,84.6388 Z M123.194,53.2408 L134.93,42.4078 L123.194,53.2408 Z M134.93,42.4078 L146.662,40.8728 L134.93,42.4078 Z M85.401,86.0808 L101.462,77.6198 L85.401,86.0808 Z M94.617,102.1918 L94.617,97.5428 L94.617,102.1918 Z M172.11,116.8588 L172.11,95.4718 L172.11,116.8588 Z M123.219,74.6518 L172.11,116.8588 L123.219,74.6518 Z M6.941,39.5238 L6.941,26.5048 L6.941,39.5238 Z M112.952,118.0208 L94.617,102.1918 L112.952,118.0208 Z M6.941,39.5238 L30.248,59.6438 L6.941,39.5238 Z M0.5,75.3178 L31.058,101.6978 L0.5,75.3178 Z M55.505,122.8028 L73.84,138.6288 L55.505,122.8028 Z M39.611,54.7098 L6.941,26.5048 L39.611,54.7098 Z M195.577,83.1038 L146.686,40.8978 L195.577,83.1038 Z M55.505,118.1538 L75.061,107.8478 L55.505,118.1538 Z M70.17,76.4378 L82.394,82.3428 L70.17,76.4378 Z M31.058,97.0488 L50.614,86.7438 L31.058,97.0488 Z M43.281,102.9508 L82.394,82.3428 L43.281,102.9508 Z M75.061,107.8478 L94.617,97.5428 L75.061,107.8478 Z M107.329,129.4798 L107.329,142.4968 L107.329,129.4798 Z M119.064,136.3128 L119.064,123.2958 L119.064,136.3128 Z M101.217,137.2208 L107.329,142.4968 L101.217,137.2208 Z M101.217,124.2018 L107.329,129.4798 L101.217,124.2018 Z M107.329,129.4798 L119.064,123.2958 L107.329,129.4798 Z M112.952,118.0208 L119.064,123.2958 L112.952,118.0208 Z M101.217,124.2018 L101.217,137.2208 L101.217,124.2018 Z M55.505,135.8188 L48.985,139.2548 L55.505,135.8188 Z M123.194,58.6288 L56.082,0.6918 L123.194,58.6288 Z M117.107,59.3628 L108.764,59.5298 L117.107,59.3628 Z M39.611,54.7098 L66.825,78.2008 L39.611,54.7098 Z M39.611,54.7098 L39.611,46.3398 L39.611,54.7098 Z M55.505,122.8028 L55.505,135.8188 L55.505,122.8028 Z M55.505,135.8188 L73.84,151.6478 L55.505,135.8188 Z M73.84,151.6478 L73.84,138.6288 L73.84,151.6478 Z M24.538,118.1538 L48.985,139.2548 L24.538,118.1538 Z M48.985,126.2358 L48.985,139.2548 L48.985,126.2358 Z M24.538,105.1338 L48.985,126.2358 L24.538,105.1338 Z M31.058,101.6978 L24.538,105.1338 L31.058,101.6978 Z M31.058,101.6978 L31.058,97.0488 L31.058,101.6978 Z M31.058,101.6978 L55.505,122.8028 L31.058,101.6978 Z M55.505,122.8028 L55.505,118.1538 L55.505,122.8028 Z M55.505,118.1538 L43.281,102.9508 L55.505,118.1538 Z M43.281,102.9508 L31.058,97.0488 L43.281,102.9508 Z M48.985,126.2358 L55.505,122.8028 L48.985,126.2358 Z M70.17,72.7198 L101.462,56.2328 L70.17,72.7198 Z M90.098,45.1968 L71.763,29.3708 L90.098,45.1968 Z M70.17,72.7198 L39.611,46.3398 L70.17,72.7198 Z M108.764,52.3718 L108.764,59.5298 L108.764,52.3718 Z M90.098,45.1968 L96.54,41.8158 L108.75,52.3558 L101.462,56.2328 L90.098,45.1968 Z M101.462,77.6198 L117.107,69.3768 L101.462,77.6198 Z M101.462,56.2328 L101.462,77.6198 L101.462,56.2328 Z M101.217,124.2018 L112.952,118.0208 L101.217,124.2018 Z M82.394,82.3428 L85.401,86.0808 L82.394,82.3428 Z M85.401,86.0808 L94.617,97.5428 L85.401,86.0808 Z M50.614,86.7438 L66.825,78.2008 L50.614,86.7438 Z M66.825,78.2008 L70.17,76.4378 L66.825,78.2008 Z M39.611,54.7098 L30.248,59.6438 L39.611,54.7098 Z M30.248,59.6438 L0.5,75.3178 L30.248,59.6438 Z M24.538,118.1538 L24.538,109.0888 L24.538,118.1538 Z M24.538,109.0888 L24.538,105.1338 L24.538,109.0888 Z M71.763,29.3708 L60.405,35.3858 L71.763,29.3708 Z M60.405,35.3858 L39.611,46.3398 L60.405,35.3858 Z M73.84,138.6288 L101.217,124.2018 L73.84,138.6288 Z M107.329,142.4968 L119.064,136.3128 L107.329,142.4968 Z M141.551,73.7408 L141.551,77.4588 L141.551,73.7408 Z M141.551,82.1078 L141.551,85.8298 L141.551,82.1078 Z M135.439,68.4658 L135.439,72.1838 L135.439,68.4658 Z M135.439,76.8328 L135.439,80.5538 L135.439,76.8328 Z M129.328,63.1898 L129.328,66.9078 L129.328,63.1898 Z M129.328,71.5578 L129.328,75.2788 L129.328,71.5578 Z M147.663,79.0168 L147.663,82.7378 L147.663,79.0168 Z M147.663,87.3868 L147.663,91.1048 L147.663,87.3868 Z M165.998,94.8458 L165.998,98.5638 L165.998,94.8458 Z M165.998,103.2128 L165.998,106.9338 L165.998,103.2128 Z M153.775,84.2918 L153.775,88.0128 L153.775,84.2918 Z M153.775,92.6618 L153.775,96.3798 L153.775,92.6618 Z M141.551,73.7408 L141.551,77.4588 L141.551,73.7408 Z M141.551,82.1078 L141.551,85.8298 L141.551,82.1078 Z M159.886,89.5668 L159.886,93.2878 L159.886,89.5668 Z M159.886,97.9378 L159.886,101.6558 L159.886,97.9378 Z M179.934,95.9998 L179.934,99.7178 L179.934,95.9998 Z M179.934,104.3668 L179.934,108.0878 L179.934,104.3668 Z M187.756,91.8748 L187.756,95.5958 L187.756,91.8748 Z M187.756,100.2448 L187.756,103.9658 L187.756,100.2448 Z M93.637,65.0038 L93.637,68.7218 L93.637,65.0038 Z M93.637,73.3718 L93.637,77.0928 L93.637,73.3718 Z M85.816,69.1258 L85.816,72.8438 L85.816,69.1258 Z M85.816,77.4928 L85.816,81.2138 L85.816,77.4928 Z M77.995,73.2468 L77.995,76.9658 L77.995,73.2468 Z M97.307,130.9128 L97.307,134.6338 L97.307,130.9128 Z M89.486,135.0348 L89.486,138.7558 L89.486,135.0348 Z M81.661,139.1568 L81.661,142.8778 L81.661,139.1568 Z M61.616,132.7268 L61.616,136.4478 L61.616,132.7268 Z M67.728,138.0028 L67.728,141.7238 L67.728,138.0028 Z M55.505,127.4518 L55.505,131.1698 L55.505,127.4518 Z M18.835,95.7958 L18.835,99.5168 L18.835,95.7958 Z M6.612,85.2458 L6.612,88.9638 L6.612,85.2458 Z M12.723,90.5208 L12.723,94.2388 L12.723,90.5208 Z M42.873,120.9608 L42.873,133.9798 L42.873,120.9608 Z M36.761,115.6848 L36.761,128.7038 L36.761,115.6848 Z M30.653,110.4098 L30.653,123.4288 L30.653,110.4098 Z M109.283,65.1278 L109.283,68.8468 L109.283,65.1278 Z M19.164,41.7078 L19.164,45.4258 L19.164,41.7078 Z M25.277,46.9828 L25.277,50.7008 L25.277,46.9828 Z M13.053,36.4318 L13.053,40.1498 L13.053,36.4318 Z M13.053,36.4318 L13.053,40.1498 L13.053,36.4318 Z M25.277,46.9828 L25.277,50.7008 L25.277,46.9828 Z M19.164,41.7078 L19.164,45.4258 L19.164,41.7078 Z M31.388,52.2588 L31.388,55.9798 L31.388,52.2588 Z M70.217,60.7418 C78.095,60.7418 84.609,56.2648 84.025,50.4108 C83.751,47.6388 82.695,44.6018 80.458,42.5488 C77.56,39.8888 73.688,38.0288 69.056,38.0288 C64.425,38.0288 60.794,39.9008 58.181,42.5488 C56.156,44.6048 55.412,47.6388 55.418,50.4108 C55.433,56.2648 62.339,60.7418 70.217,60.7418 Z" id="Stroke-14" stroke="#7D7D7D" stroke-linecap="round" stroke-linejoin="round"></path>
                        </g>
                    </g>
                </g>
            </g>
        </g>
    </g>
</svg>