<?xml version="1.0" encoding="UTF-8" standalone="no"?>
<svg width="100%" height="100%" viewBox="0 0 168 161" version="1.1" xmlns="http://www.w3.org/2000/svg" xmlns:xlink="http://www.w3.org/1999/xlink">
    <!-- Generator: Sketch 43 (38999) - http://www.bohemiancoding.com/sketch -->
    <title>Group 9</title>
    <desc>Created with Sketch.</desc>
    <defs></defs>
    <g id="Symbols" stroke="none" stroke-width="1" fill="none" fill-rule="evenodd">
        <g id="museum" transform="translate(-336.000000, -806.000000)">
            <g id="buildings">
                <g transform="translate(0.000000, 198.000000)">
                    <g id="buildings-06" transform="translate(288.000000, 609.000000)">
                        <g id="Group-9" transform="translate(48.000000, 0.000000)">
                            <polygon id="Fill-10" fill="#FFFFFF" points="0.67 47.6317 0.67 96.5127 33.321 124.7157 59.303 111.0167 67.498 118.0947 67.498 144.5467 83.822 158.6487 111.683 143.9577 111.683 132.6037 124.417 125.8897 132.58 132.9407 167.407 114.5787 167.407 65.6967 151.083 51.5957 124.622 65.5457 123.417 64.5037 123.417 28.3317 107.091 5.9457 90.764 0.1287"></polygon>
                            <path d="M83.8219,158.6481 L111.7009,143.9581 M83.8219,158.6481 L83.8219,109.7671 M67.4879,144.5461 L83.8219,158.6481 M67.4879,118.0941 L59.2879,111.0171 M0.6189,96.5121 L33.2899,124.7161 M132.6109,132.9401 L167.4579,114.5781 M167.4579,114.5781 L167.4579,65.6971 M132.6109,84.0601 L132.6109,132.9401 M132.6109,132.9401 L124.4419,125.8901 M33.2899,124.7161 L59.2879,111.0171 M59.2879,111.0171 L59.2879,62.1361 M33.2899,124.7161 L33.2899,75.8351 M90.7679,0.1291 L0.6189,47.6311 M0.6189,96.5121 L0.6189,47.6311 M33.2899,75.8351 L59.2879,62.1361 M123.4419,28.3321 L107.1049,5.9451 M123.4419,28.3321 L123.4419,64.5041 M123.4419,28.3321 L97.4209,42.0431 M111.7009,132.6031 L124.4419,125.8901 M124.4419,77.0091 L124.4419,125.8901 M111.7009,95.0771 L103.5319,88.0261 M132.6109,84.0601 L124.4419,77.0091 M167.4579,65.6971 L132.6109,84.0601 M167.4579,65.6971 L151.1239,51.5951 M124.6469,65.5461 L151.1239,51.5951 M86.5139,85.6391 L59.2879,62.1361 M67.4879,95.6651 L86.5139,85.6391 M67.4879,95.6651 L83.8219,109.7671 M111.7009,95.0771 L83.8219,109.7671 M33.2899,75.8351 L16.9559,53.4481 M16.9559,53.4481 L0.6189,47.6311 M107.1049,5.9451 L90.7679,0.1291 M16.9559,53.4481 L107.1049,5.9451 M113.9889,76.3041 L69.1629,38.1421 M59.2879,62.1361 L69.1629,37.7671 M69.1629,37.7671 L97.4209,42.0431 M103.5319,88.0261 L113.9889,76.3041 M113.9889,76.3041 L124.4419,77.0091 M111.7009,95.0771 L111.7009,132.6031 M111.7009,132.6031 L111.7009,143.9581 M67.4879,144.5461 L67.4879,118.0941 M67.4879,118.0941 L67.4879,95.6651 M97.4209,42.0431 L123.4419,64.5041 M123.4419,64.5041 L124.6469,65.5461 M124.4419,77.0091 L103.5319,88.0261 M97.7629,128.9341 L97.7629,132.2481 M97.7629,136.3901 L97.7629,139.7041 M97.7629,121.4771 L97.7629,124.7911 M97.7629,143.8471 L97.7629,147.1611 M97.7629,114.0211 L97.7629,117.3351 M97.7629,106.5651 L97.7629,109.8781 M104.7319,125.2611 L104.7319,128.5751 M104.7319,132.7181 L104.7319,136.0321 M104.7319,117.8051 L104.7319,121.1191 M104.7319,140.1741 L104.7319,143.4881 M104.7319,110.3481 L104.7319,113.6621 M104.7319,102.8921 L104.7319,106.2061 M160.4889,95.8811 L160.4889,99.1951 M160.4889,103.3381 L160.4889,106.6521 M160.4889,88.4251 L160.4889,91.7391 M160.4889,110.7941 L160.4889,114.1081 M160.4889,80.9681 L160.4889,84.2821 M160.4889,73.5121 L160.4889,76.8261 M153.5199,99.5541 L153.5199,102.8681 M153.5199,107.0101 L153.5199,110.3241 M153.5199,92.0971 L153.5199,95.4111 M153.5199,114.4671 L153.5199,117.7811 M153.5199,84.6411 L153.5199,87.9551 M153.5199,77.1841 L153.5199,80.4981 M146.5489,103.2261 L146.5489,106.5401 M146.5489,110.6831 L146.5489,113.9971 M146.5489,95.7701 L146.5489,99.0841 M146.5489,118.1391 L146.5489,121.4531 M146.5489,88.3131 L146.5489,91.6271 M146.5489,80.8571 L146.5489,84.1711 M139.5799,106.8991 L139.5799,110.2131 M139.5799,114.3551 L139.5799,117.6691 M139.5799,99.4421 L139.5799,102.7561 M139.5799,121.8111 L139.5799,125.1251 M139.5799,91.9861 L139.5799,95.3001 M139.5799,84.5291 L139.5799,87.8431 M78.3769,131.5781 L78.3769,134.8921 M78.3769,139.0351 L78.3769,142.3491 M78.3769,124.1221 L78.3769,127.4361 M78.3769,146.4911 L78.3769,149.8051 M78.3769,116.6651 L78.3769,119.9791 M78.3769,109.2091 L78.3769,112.5231 M72.9329,126.8781 L72.9329,130.1921 M72.9329,134.3341 L72.9329,137.6481 M72.9329,119.4211 L72.9329,122.7351 M72.9329,141.7901 L72.9329,145.1041 M72.9329,111.9651 L72.9329,115.2781 M72.9329,104.5081 L72.9329,107.8221 M54.1999,91.3291 L54.1999,94.6431 M54.1999,98.7851 L54.1999,102.0991 M54.1999,83.8721 L54.1999,87.1861 M54.1999,106.2421 L54.1999,109.5561 M54.1999,76.4161 L54.1999,79.7301 M54.1999,68.9601 L54.1999,72.2741 M47.2309,95.0021 L47.2309,98.3161 M47.2309,102.4581 L47.2309,105.7721 M47.2309,87.5451 L47.2309,90.8591 M47.2309,109.9141 L47.2309,113.2281 M47.2309,80.0891 L47.2309,83.4031 M47.2309,72.6321 L47.2309,75.9461 M40.2589,98.6741 L40.2589,101.9881 M40.2589,106.1301 L40.2589,109.4441 M40.2589,91.2181 L40.2589,94.5321 M40.2589,113.5871 L40.2589,116.9011 M40.2589,83.7611 L40.2589,87.0751 M40.2589,76.3051 L40.2589,79.6191 M102.5319,43.4921 L102.5319,46.4551 M109.5009,47.2761 L109.5009,50.5901 M109.5009,39.8201 L109.5009,43.1341 M116.4729,51.0601 L116.4729,54.3741 M116.4729,43.6041 L116.4729,46.9181 M116.4729,36.1471 L116.4729,39.4611 M117.4729,107.1931 L117.4729,110.5071 M117.4729,114.6491 L117.4729,117.9631 M117.4729,99.7361 L117.4729,103.0501 M117.4729,122.1061 L117.4729,125.4201 M117.4729,92.2801 L117.4729,95.5941 M117.4729,84.8241 L117.4729,88.1371 M110.5039,88.4961 L110.5039,91.8101 M59.2879,88.6481 L59.2879,91.9621 M59.2879,96.1041 L59.2879,99.4181 M59.2879,81.1911 L59.2879,84.5051 M59.2879,103.5601 L59.2879,106.8741 M59.2879,73.7351 L59.2879,77.0491 M59.2879,66.2781 L59.2879,69.5921 M64.7329,93.3481 L64.7329,96.6621 M64.7329,100.8051 L64.7329,104.1191 M64.7329,85.8921 L64.7329,89.2061 M64.7329,108.2611 L64.7329,111.5751 M64.7329,78.4351 L64.7329,81.7491 M64.7329,70.9791 L64.7329,74.2931 M70.1769,90.5921 L70.1769,93.9061 M70.1769,83.1361 L70.1769,86.4501 M70.1769,75.6801 L70.1769,78.9931 M75.6249,87.8371 L75.6249,91.1511 M75.6249,80.3801 L75.6249,83.6941 M81.0699,85.0811 L81.0699,88.3951 M14.2319,85.8951 L14.2319,89.2081 M14.2319,93.3511 L14.2319,96.6651 M14.2319,78.4381 L14.2319,81.7521 M14.2319,100.8071 L14.2319,104.1211 M14.2319,70.9821 L14.2319,74.2961 M14.2319,63.5251 L14.2319,66.8391 M19.6769,90.5951 L19.6769,93.9091 M19.6769,98.0511 L19.6769,101.3651 M19.6769,83.1391 L19.6769,86.4531 M19.6769,105.5081 L19.6769,108.8221 M19.6769,75.6821 L19.6769,78.9961 M19.6769,68.2261 L19.6769,71.5401" id="Stroke-11" stroke="#7D7D7D" stroke-linecap="round" stroke-linejoin="round"></path>
                        </g>
                    </g>
                </g>
            </g>
        </g>
    </g>
</svg>