<?xml version="1.0" encoding="UTF-8" standalone="no"?>
<svg width="100%" height="100%" viewBox="0 0 173 193" version="1.1" xmlns="http://www.w3.org/2000/svg" xmlns:xlink="http://www.w3.org/1999/xlink">
    <!-- Generator: Sketch 43 (38999) - http://www.bohemiancoding.com/sketch -->
    <title>Group 6</title>
    <desc>Created with Sketch.</desc>
    <defs></defs>
    <g id="Symbols" stroke="none" stroke-width="1" fill="none" fill-rule="evenodd">
        <g id="museum" transform="translate(-626.000000, -234.000000)">
            <g id="buildings">
                <g transform="translate(0.000000, 198.000000)">
                    <g id="buildings-03" transform="translate(576.000000, 36.000000)">
                        <g id="Group-6" transform="translate(50.000000, 0.000000)">
                            <polygon id="Fill-15" fill="#FFFFFF" points="35.9989 22.741 27.9229 14.799 0.2059 31.435 0.2059 88.496 23.9119 111.805 29.4899 108.456 82.0329 160.121 82.0329 168.954 105.7389 192.263 169.7939 153.818 169.7939 96.758 148.1189 75.446 140.0999 80.258 87.9669 28.997 87.9669 16.299 72.3369 0.929999961"></polygon>
                            <path d="M171.588,153.817 L171.588,108.169 M107.533,192.263 L83.827,168.954 M171.588,153.817 L107.533,192.263 M107.533,192.263 L107.533,146.615 M107.533,146.615 L83.827,123.306 M171.588,108.169 L107.533,146.615 M89.761,27.71 L88.949,28.197 M89.761,27.71 L89.761,28.996 M107.533,135.203 L83.827,111.894 M171.588,96.757 L107.533,135.203 M149.913,75.445 L171.588,96.757 M149.913,75.445 L141.894,80.258 M89.761,16.298 L81.742,21.111 M74.131,0.929999961 L89.761,16.298 M37.793,22.74 L74.131,0.929999961 M29.717,14.799 L37.793,22.74 M2,31.435 L29.717,14.799 M25.706,54.744 L2,31.435 M89.406,108.545 L31.284,51.396 M83.827,111.894 L89.406,108.545 M107.533,146.615 L107.533,135.203 M171.588,108.169 L171.588,96.757 M89.761,27.71 L89.761,16.298 M2,42.847 L2,31.435 M83.827,114.472 L31.284,62.808 M25.706,111.804 L25.706,66.156 M31.284,62.808 L31.284,51.396 M25.706,54.744 L31.284,51.396 M25.706,66.156 L25.706,54.744 M25.706,66.156 L31.284,62.808 M25.706,111.804 L31.284,108.456 M2,88.495 L2,42.847 M25.706,111.804 L2,88.495 M25.706,66.156 L2,42.847 M31.284,62.808 L31.284,108.456 M81.742,21.111 L88.949,28.198 M83.827,123.306 L83.827,114.472 M83.827,114.472 L83.827,111.894 M83.827,123.306 L83.827,160.12 M83.827,160.12 L83.827,168.954 M88.949,28.197 L89.761,28.996 M89.761,28.996 L141.894,80.258 M83.827,160.12 L31.284,108.456 M115.961,162.554 L115.961,166.206 M115.961,170.771 L115.961,174.423 M115.961,154.338 L115.961,157.99 M115.961,178.988 L115.961,182.64 M115.961,146.121 L115.961,149.773 M122.704,158.507 L122.704,162.159 M122.704,166.724 L122.704,170.376 M122.704,150.291 L122.704,153.943 M122.704,174.941 L122.704,178.592 M122.704,142.074 L122.704,145.726 M129.446,154.461 L129.446,158.112 M129.446,162.677 L129.446,166.329 M129.446,146.244 L129.446,149.896 M129.446,170.894 L129.446,174.546 M129.446,138.027 L129.446,141.679 M136.189,150.413 L136.189,154.065 M136.189,158.63 L136.189,162.282 M136.189,142.197 L136.189,145.849 M136.189,166.847 L136.189,170.499 M136.189,133.98 L136.189,137.632 M142.932,146.367 L142.932,150.019 M142.932,154.583 L142.932,158.235 M142.932,138.15 L142.932,141.802 M142.932,162.8 L142.932,166.452 M142.932,129.933 L142.932,133.585 M149.674,142.32 L149.674,145.971 M149.674,150.536 L149.674,154.188 M149.674,134.103 L149.674,137.755 M149.674,158.753 L149.674,162.405 M149.674,125.886 L149.674,129.538 M156.417,138.273 L156.417,141.925 M156.417,146.489 L156.417,150.141 M156.417,130.056 L156.417,133.708 M156.417,154.706 L156.417,158.358 M156.417,121.84 L156.417,125.491 M100.948,161.138 L100.948,164.79 M100.948,169.355 L100.948,173.007 M100.948,152.922 L100.948,156.573 M100.948,177.572 L100.948,181.223 M100.948,144.705 L100.948,148.357 M95.68,155.958 L95.68,159.61 M95.68,164.175 L95.68,167.827 M95.68,147.742 L95.68,151.394 M95.68,172.392 L95.68,176.043 M95.68,139.525 L95.68,143.177 M90.412,150.778 L90.412,154.43 M90.412,158.995 L90.412,162.647 M90.412,142.562 L90.412,146.214 M90.412,167.212 L90.412,170.864 M90.412,134.345 L90.412,137.997 M63.066,115.056 L63.066,118.708 M63.066,123.273 L63.066,126.925 M63.066,106.839 L63.066,110.491 M63.066,131.489 L63.066,135.141 M63.066,98.623 L63.066,102.275 M73.602,125.416 L73.602,129.068 M73.602,133.632 L73.602,137.284 M73.602,117.199 L73.602,120.851 M73.602,141.849 L73.602,145.501 M73.602,108.982 L73.602,112.634 M52.53,104.696 L52.53,108.348 M52.53,112.913 L52.53,116.565 M52.53,96.48 L52.53,100.132 M52.53,121.13 L52.53,124.782 M52.53,88.263 L52.53,91.915 M78.87,130.596 L78.87,134.247 M78.87,138.812 L78.87,142.464 M78.87,122.379 L78.87,126.031 M78.87,147.029 L78.87,150.681 M78.87,114.162 L78.87,117.814 M68.334,120.236 L68.334,123.888 M68.334,128.453 L68.334,132.104 M68.334,112.019 L68.334,115.671 M68.334,136.669 L68.334,140.321 M68.334,103.803 L68.334,107.455 M47.263,99.517 L47.263,103.169 M47.263,107.733 L47.263,111.385 M47.263,91.3 L47.263,94.952 M47.263,115.95 L47.263,119.602 M47.263,83.083 L47.263,86.735 M57.798,109.876 L57.798,113.528 M57.798,118.093 L57.798,121.745 M57.798,101.66 L57.798,105.312 M57.798,126.309 L57.798,129.961 M57.798,93.443 L57.798,97.095 M41.994,94.337 L41.994,97.989 M41.994,102.553 L41.994,106.205 M41.994,86.12 L41.994,89.772 M41.994,110.77 L41.994,114.422 M41.994,77.904 L41.994,81.555 M36.727,89.157 L36.727,92.809 M36.727,97.374 L36.727,101.025 M36.727,80.94 L36.727,84.592 M36.727,105.59 L36.727,109.242 M36.727,72.724 L36.727,76.375 M19.121,80.679 L19.121,84.331 M19.121,88.896 L19.121,92.548 M19.121,72.463 L19.121,76.115 M19.121,97.113 L19.121,100.764 M19.121,64.246 L19.121,67.898 M8.585,70.32 L8.585,73.972 M8.585,78.536 L8.585,82.188 M8.585,62.103 L8.585,65.755 M8.585,86.753 L8.585,90.405 M8.585,53.886 L8.585,57.538 M13.853,75.499 L13.853,79.151 M13.853,83.716 L13.853,87.368 M13.853,67.283 L13.853,70.935 M13.853,91.933 L13.853,95.585 M13.853,59.066 L13.853,62.718 M163.159,134.226 L163.159,137.878 M163.159,142.442 L163.159,146.094 M163.159,126.009 L163.159,129.661 M163.159,150.659 L163.159,154.311 M163.159,117.792 L163.159,121.444" id="Stroke-16" stroke="#7D7D7D" stroke-linecap="round" stroke-linejoin="round"></path>
                        </g>
                    </g>
                </g>
            </g>
        </g>
    </g>
</svg>