<?xml version="1.0" encoding="UTF-8" standalone="no"?>
<svg width="100%" height="100%" viewBox="0 0 178 244" version="1.1" xmlns="http://www.w3.org/2000/svg" xmlns:xlink="http://www.w3.org/1999/xlink">
    <!-- Generator: Sketch 43 (38999) - http://www.bohemiancoding.com/sketch -->
    <title>Group 10</title>
    <desc>Created with Sketch.</desc>
    <defs></defs>
    <g id="Symbols" stroke="none" stroke-width="1" fill="none" fill-rule="evenodd">
        <g id="museum" transform="translate(-619.000000, -723.000000)">
            <g id="buildings">
                <g transform="translate(0.000000, 198.000000)">
                    <g id="buildings-07" transform="translate(576.000000, 525.000000)">
                        <g id="Group-10" transform="translate(44.000000, 0.000000)">
                            <polygon id="Fill-4" fill="#FFFFFF" points="0.2789 150.8179 0.2789 194.3329 53.2099 240.0549 83.1719 224.2579 88.4639 228.8299 93.7569 233.4019 99.0489 237.9749 104.3419 242.5469 111.1189 238.9749 117.8929 235.4029 124.6669 231.8299 131.4409 228.2589 138.2179 224.6859 150.7589 207.2459 150.7589 203.5689 158.5409 199.4639 158.5409 184.9599 131.5759 161.6879 113.2259 171.3629 113.1129 171.3629 113.1129 164.9359 113.1129 164.9559 60.1809 119.2329"></polygon>
                            <polygon id="Stroke-5" stroke="#7D7D7D" points="0.2786 194.3331 0.2786 150.8181 60.1816 119.2331 113.1126 164.9561 113.1126 164.9361 113.1126 171.3631 113.2256 171.3631 131.5756 161.6881 158.5416 184.9591 158.5416 199.4641 150.7596 203.5681 150.7596 207.2461 138.2186 224.6861 131.4416 228.2581 124.6676 231.8301 117.8926 235.4021 111.1186 238.9741 104.3416 242.5471 99.0486 237.9741 93.7566 233.4021 88.4636 228.8301 83.1716 224.2581 53.2106 240.0541"></polygon>
                            <polygon id="Fill-7" fill="#FFFFFF" points="175.7983 42.0547 175.7983 77.1087 128.4723 102.0607 128.4723 102.1697 128.4723 109.4227 87.8233 130.8567 56.0653 103.4227 56.0653 77.6367 75.4403 67.4207 72.2503 64.7857 72.2503 29.7317 127.6913 0.4997"></polygon>
                            <path d="M175.8488,77.1085 L128.4958,102.0605 M127.7138,0.5005 L175.8488,42.0545 M175.8488,42.0545 L175.8488,77.1085 M87.8238,130.8565 L87.8238,105.0705 M128.4958,109.4225 L87.8238,130.8565 M128.4958,83.6365 L87.8238,105.0705 M56.0468,103.4235 L87.8238,130.8565 M56.0468,77.6365 L87.8238,105.0705 M56.0468,103.4235 L56.0468,77.6365 M72.2408,64.7855 L72.2408,29.7315 M72.2408,29.7315 L127.7138,0.5005 M72.2408,29.7315 L120.3758,71.2865 M175.8488,42.0545 L120.3758,71.2865 M128.4958,83.6365 L123.1998,79.0645 M123.1998,79.0645 L120.3758,80.5535 M120.3758,80.5535 L120.3758,71.2865 M96.1008,59.5985 L93.8948,57.6935 M75.4338,67.4205 L72.2408,64.7855 M120.3758,80.5535 L96.1008,59.5985 M128.4958,109.4225 L128.4958,102.0605 M128.4958,102.0605 L128.4958,83.6365 M93.8948,57.6935 L75.4338,67.4205 M75.4338,67.4205 L56.0468,77.6365 M101.3798,116.4585 L108.1608,112.8875 M108.1608,112.8875 L108.1608,120.1395 M94.6018,120.0325 L94.6018,127.2855 M87.8238,123.6045 L87.8238,130.8565 M94.6018,127.2855 L87.8238,130.8565 M108.1608,112.8875 L114.9388,109.3155 M101.3798,123.7115 L94.6018,127.2855 M101.3798,123.7115 L108.1608,120.1395 M108.1608,120.1395 L114.9388,116.5685 M101.3798,116.4585 L101.3798,123.7115 M101.3798,116.4585 L94.6018,120.0325 M94.6018,120.0325 L87.8238,123.6045 M121.7168,112.9965 L128.4958,109.4225 M114.9388,109.3155 L114.9388,116.5685 M121.7168,105.7445 L121.7168,112.9965 M121.7168,105.7445 L128.4958,102.1705 M114.9388,109.3155 L121.7168,105.7445 M128.4958,102.1705 L128.4958,109.4225 M148.7328,84.1445 L155.5138,80.5735 M155.5138,80.5735 L162.2928,76.9995 M155.5138,80.5735 L155.5138,87.8255 M148.7328,84.1445 L148.7328,91.3975 M155.5138,87.8255 L162.2928,84.2515 M135.1768,91.2875 L128.4958,94.8085 M135.1768,91.2875 L135.1768,98.5405 M141.9548,94.9685 L148.7328,91.3975 M135.1768,98.5405 L141.9548,94.9685 M135.1768,98.5405 L128.4958,102.0605 M141.9548,87.7165 L148.7328,84.1445 M135.1768,91.2875 L141.9548,87.7165 M141.9548,87.7165 L141.9548,94.9685 M162.2928,76.9995 L169.0708,73.4275 M162.2928,76.9995 L162.2928,84.2515 M169.0708,73.4275 L169.0708,80.6805 M169.0708,73.4275 L175.8488,69.8555 M16.1148,208.0495 L21.4138,212.6215 M21.4138,212.6215 L21.4138,169.1065 M16.1148,164.5345 L21.4138,169.1065 M16.1148,208.0495 L16.1148,164.5345 M32.0048,221.7655 L37.3008,226.3385 M37.3008,226.3385 L37.3008,182.8235 M32.0048,178.2495 L37.3008,182.8235 M32.0048,221.7655 L32.0048,178.2495 M37.3008,226.3385 L42.5958,230.9105 M42.5958,230.9105 L42.5958,187.3945 M37.3008,182.8235 L42.5958,187.3945 M5.5238,198.9055 L10.8198,203.4775 M10.8198,203.4775 L10.8198,159.9605 M5.5238,155.3895 L10.8198,159.9605 M5.5238,198.9055 L5.5238,155.3895 M47.8948,191.9665 L53.1898,196.5385 M47.8948,235.4825 L47.8948,191.9665 M47.8948,235.4825 L53.1898,240.0545 M53.1898,240.0545 L53.1898,196.5385 M42.5958,187.3945 L47.8948,191.9665 M42.5958,230.9105 L47.8948,235.4825 M21.4138,169.1065 L26.7088,173.6775 M21.4138,212.6215 L26.7088,217.1935 M26.7088,217.1935 L26.7088,173.6775 M10.8198,159.9605 L16.1148,164.5345 M10.8198,203.4775 L16.1148,208.0495 M26.7088,173.6775 L32.0048,178.2495 M26.7088,217.1935 L32.0048,221.7655 M124.6888,224.5775 L117.9098,228.1495 M117.9098,235.4025 L124.6888,231.8305 M124.6888,224.5775 L124.6888,231.8305 M104.3508,242.5465 L111.1318,238.9745 M117.9098,228.1495 L111.1318,231.7215 M138.2478,224.6855 L138.2478,217.4335 M131.4668,221.0055 L138.2478,217.4335 M131.4668,221.0055 L131.4668,228.2575 M131.4668,228.2575 L138.2478,224.6855 M124.6888,224.5775 L131.4668,221.0055 M138.2478,217.4335 L138.2478,210.1805 M158.5818,199.4645 L158.5818,184.9595 M104.3508,213.5365 L158.5818,184.9595 M124.6888,231.8305 L131.4668,228.2575 M150.7958,207.2455 L138.2478,224.6855 M150.7958,207.2455 L150.7958,203.5685 M53.1898,196.5385 L113.1268,164.9555 M53.1898,240.0545 L83.1688,224.2575 M83.1688,195.2475 L85.9918,193.7595 M158.5818,184.9595 L131.6008,161.6875 M60.1648,119.2335 L0.2278,150.8175 M0.2278,150.8175 L5.5238,155.3895 M0.2278,194.3335 L0.2278,150.8175 M0.2278,194.3335 L5.5238,198.9055 M99.0558,237.9745 L99.0558,223.4685 M93.7598,233.4025 L93.7598,218.8965 M93.7598,233.4025 L99.0558,237.9745 M93.7598,218.8965 L99.0558,223.4685 M83.1688,209.7525 L83.1688,195.2475 M83.1688,209.7525 L88.4638,214.3245 M104.3508,228.0415 L104.3508,213.5365 M83.1688,195.2475 L104.3508,213.5365 M99.0558,223.4685 L104.3508,228.0415 M99.0558,237.9745 L104.3508,242.5465 M104.3508,242.5465 L104.3508,235.2935 M104.3508,235.2935 L104.3508,228.0415 M83.1688,224.2575 L88.4638,228.8305 M83.1688,224.2575 L83.1688,209.7525 M88.4638,214.3245 L93.7598,218.8965 M88.4638,228.8305 L88.4638,214.3245 M88.4638,228.8305 L93.7598,233.4025 M111.1318,231.7215 L111.1318,238.9745 M117.9098,228.1495 L117.9098,235.4025 M111.1318,238.9745 L117.9098,235.4025 M111.1318,231.7215 L104.3508,235.2935 M113.1268,164.9555 L60.1648,119.2335 M138.2478,210.1805 L150.7958,203.5685 M150.7958,203.5685 L158.5818,199.4645 M113.1268,164.9555 L113.1268,173.3245 M113.1268,173.3245 L113.1268,179.4605 M113.2408,171.3625 L131.6008,161.6875 M85.9918,193.7595 L113.1268,179.4605 M53.1898,240.0545 L0.2278,194.3335 M53.1898,225.5495 L0.2278,179.8285 M53.1898,211.0435 L0.2278,165.3225 M53.1898,196.5385 L0.2278,150.8175 M138.2478,217.4335 L146.6528,205.7515 M111.1318,214.9605 L111.1318,218.1835 M117.9098,211.3875 L117.9098,214.6115 M83.1688,197.2625 L83.1688,180.7425 M89.4148,191.7805 L89.4148,177.6085 M95.4068,188.7595 L95.4068,174.6015 M101.3988,185.6065 L101.3988,171.3625 M107.3908,182.3825 L107.3908,168.2255 M113.1268,179.4425 L113.1268,164.9365 M5.5238,198.9055 L10.8198,203.4775" id="Stroke-8" stroke="#7D7D7D" stroke-linecap="round" stroke-linejoin="round"></path>
                        </g>
                    </g>
                </g>
            </g>
        </g>
    </g>
</svg>