<?xml version="1.0" encoding="UTF-8" standalone="no"?>
<svg width="153px" height="99px" viewBox="0 0 153 99" version="1.1" xmlns="http://www.w3.org/2000/svg" xmlns:xlink="http://www.w3.org/1999/xlink">
    <!-- Generator: Sketch 43 (38999) - http://www.bohemiancoding.com/sketch -->
    <title>logo</title>
    <desc>Created with Sketch.</desc>
    <defs></defs>
    <g id="Symbols" stroke="none" stroke-width="1" fill="none" fill-rule="evenodd">
        <g id="footer_320" transform="translate(-24.000000, -755.000000)">
            <g id="logo">
                <g transform="translate(24.000000, 755.000000)">
                    <polygon id="Fill-1" fill="#3B3B3B" points="0 39.656 54.994 39.656 54.994 0 0 0"></polygon>
                    <polygon id="Fill-2" fill="#676767" points="0 39.656 54.994 39.656 54.994 0 0 0"></polygon>
                    <polygon id="Fill-3" fill="#676767" points="93.076 39.656 148.071 39.656 148.071 0 93.076 0"></polygon>
                    <path d="M54.943,48 L93.165,48 L93.165,8.247 L54.943,8.247 L54.943,48 Z M58.134,19.402 L74.662,15.411 L89.983,19.395 L89.062,20.988 L74.656,16.719 L59.057,20.994 L58.134,19.402 Z M85.732,24.971 L87.082,24.971 L87.422,40.1 L85.387,40.1 L85.732,24.971 Z M80.943,24.971 L82.293,24.971 L82.633,40.1 L80.598,40.1 L80.943,24.971 Z M76.177,24.971 L77.527,24.971 L77.867,40.1 L75.831,40.1 L76.177,24.971 Z M71.399,24.971 L72.75,24.971 L73.088,40.1 L71.053,40.1 L71.399,24.971 Z M66.621,24.971 L67.972,24.971 L68.311,40.1 L66.276,40.1 L66.621,24.971 Z M61.853,24.971 L63.204,24.971 L63.544,40.1 L61.509,40.1 L61.853,24.971 Z" id="Fill-4" fill="#676767"></path>
                    <g id="Group-13" transform="translate(0.000000, 57.000000)" fill="#7D7D7D">
                        <path d="M0.9407,38.356 C1.3337,38.317 1.8767,38.292 2.2797,38.292 C2.6097,38.292 3.0897,38.317 3.4437,38.343 L3.4437,38.04 C3.2287,38.052 2.9247,37.989 2.8117,37.876 C2.7227,37.799 2.6717,37.648 2.6717,37.482 L2.6717,37.217 L5.7857,34.512 L5.7857,37.395 C5.7857,37.534 5.7857,37.673 5.6337,37.811 C5.4937,37.939 5.1907,38.014 4.9627,38.027 L4.9627,38.356 C5.3547,38.317 5.8987,38.292 6.3027,38.292 C6.6317,38.292 7.1127,38.317 7.4657,38.343 L7.4657,38.04 C7.3017,38.052 6.9977,38.014 6.8717,37.913 C6.7077,37.787 6.6947,37.571 6.6947,37.419 L6.6947,33.841 C6.6947,33.702 6.6947,33.563 6.8467,33.424 C6.9857,33.297 7.2897,33.222 7.5167,33.21 L7.5167,32.88 C7.1247,32.919 6.5807,32.943 6.1777,32.943 C5.8487,32.943 5.3677,32.919 5.0137,32.893 L5.0137,33.197 C5.2287,33.184 5.5327,33.247 5.6457,33.361 C5.7727,33.487 5.7857,33.677 5.7857,33.803 L5.7857,34.031 L2.6717,36.737 L2.6717,33.841 C2.6717,33.702 2.6717,33.563 2.8247,33.424 C2.9637,33.297 3.2667,33.222 3.4957,33.21 L3.4957,32.88 C3.1027,32.919 2.5587,32.943 2.1547,32.943 C1.8267,32.943 1.3467,32.919 0.9917,32.893 L0.9917,33.197 C1.2067,33.184 1.5097,33.247 1.6247,33.361 C1.7507,33.487 1.7637,33.677 1.7637,33.803 L1.7637,37.395 C1.7637,37.534 1.7637,37.673 1.6117,37.811 C1.4727,37.939 1.1687,38.014 0.9407,38.027 L0.9407,38.356 Z M8.6497,33.197 C8.8407,33.21 9.0677,33.247 9.2697,33.335 C9.3967,33.399 9.5237,33.462 9.6367,33.576 L9.6367,34.069 L9.6367,34.31 C9.6367,34.777 9.6117,35.043 9.5997,35.397 C9.5617,36.168 9.5867,36.422 9.4977,37.344 C9.4847,37.496 9.4597,37.711 9.3327,37.85 C9.2827,37.9 9.1187,38.052 8.5997,38.065 L8.5997,38.38 L9.4467,38.38 C9.5737,38.38 9.7127,38.368 9.8377,38.368 C9.9507,38.368 10.0537,38.38 10.1667,38.38 C10.3057,38.394 10.4577,38.394 10.5967,38.394 L10.5967,38.065 C10.4197,38.078 10.1537,38.04 10.0407,37.939 C9.9267,37.836 9.9147,37.711 9.9147,37.584 C9.9017,37.129 9.8877,36.915 9.9147,36.269 C9.9267,36.004 9.9387,35.739 9.9507,35.473 C9.9767,34.993 9.9767,34.499 9.9897,34.019 C10.4197,34.854 10.7227,35.548 11.0777,36.446 L11.8877,38.47 L12.1407,38.507 C12.3807,37.876 12.5957,37.356 14.2657,33.551 L14.3287,37.419 C14.3287,37.673 14.2287,37.799 14.2157,37.811 C14.1137,37.926 13.8347,37.989 13.6337,38.002 L13.6207,38.343 C14.1017,38.38 14.2417,38.33 14.8607,38.33 C15.3517,38.33 15.2887,38.356 16.0107,38.343 L16.0107,38.014 L15.9717,38.014 C15.7817,38.014 15.5177,38.002 15.3777,37.85 C15.2137,37.673 15.2267,37.294 15.2267,37.002 L15.1627,33.753 C15.1627,33.602 15.1627,33.462 15.2887,33.335 C15.3907,33.234 15.5807,33.184 15.8827,33.222 L15.8827,32.906 L15.5927,32.906 C15.3267,32.906 15.0607,32.931 14.7967,32.931 C14.6457,32.931 14.4937,32.906 14.3417,32.906 L14.1517,32.906 L13.3427,34.752 C13.2157,35.043 13.0897,35.345 12.9627,35.637 C12.8997,35.776 12.8487,35.902 12.7857,36.041 C12.6467,36.358 12.5957,36.484 12.3297,37.091 L12.2667,37.091 C11.3427,34.891 11.1287,34.297 10.8747,33.715 L10.5217,32.906 L10.1287,32.906 C10.0277,32.906 9.9147,32.919 9.8127,32.919 C9.6997,32.931 9.5867,32.931 9.4727,32.931 C9.3217,32.931 9.1697,32.919 8.6497,32.906 L8.6497,33.197 Z M21.5347,35.017 C21.6227,34.082 21.2947,33.549 20.9667,33.245 C20.6627,32.968 20.2077,32.767 19.6517,32.767 C19.0817,32.767 18.5377,32.968 18.0447,33.448 C17.4237,34.056 17.0707,34.953 17.0707,35.927 C17.0707,36.864 17.4127,37.521 17.8287,37.913 C18.1837,38.254 18.7387,38.507 19.3477,38.507 C19.8407,38.507 20.3097,38.356 20.7517,38.04 C21.0547,37.825 21.3457,37.533 21.5847,37.179 L21.4077,36.977 C21.2447,37.142 21.0157,37.331 20.8027,37.47 C20.5367,37.635 20.2327,37.748 19.8797,37.748 C19.4497,37.748 19.0307,37.584 18.6507,37.217 C18.3987,36.964 18.2457,36.711 18.1327,36.408 C18.0307,36.129 17.9557,35.775 17.9557,35.446 C17.9557,35.307 17.9687,35.143 17.9927,35.017 L21.5347,35.017 Z M18.0447,34.664 C18.1197,34.297 18.3087,33.816 18.5877,33.524 C18.8157,33.284 19.1187,33.132 19.4607,33.132 C19.7647,33.132 20.0557,33.245 20.2467,33.436 C20.4607,33.651 20.5367,33.892 20.5367,34.195 C20.5367,34.297 20.5247,34.411 20.4477,34.512 C20.3217,34.664 20.1307,34.664 19.9927,34.664 L18.0447,34.664 Z M22.6027,38.356 C22.9947,38.317 23.5387,38.292 23.9427,38.292 C24.2707,38.292 24.7517,38.317 25.1057,38.343 L25.1057,38.04 C24.8407,38.052 24.5997,37.963 24.4737,37.876 C24.4217,37.836 24.3857,37.787 24.3587,37.673 C24.3347,37.546 24.3347,37.344 24.3347,37.433 L24.3347,37.482 L24.3347,35.637 L27.4477,35.637 L27.4477,37.395 C27.4477,37.534 27.4477,37.673 27.2947,37.811 C27.1557,37.939 26.8527,38.014 26.6237,38.027 L26.6237,38.356 C27.0167,38.317 27.5607,38.292 27.9647,38.292 C28.2927,38.292 28.7727,38.317 29.1277,38.343 L29.1277,38.04 C28.9127,38.052 28.6087,37.989 28.4947,37.876 C28.3687,37.748 28.3557,37.571 28.3557,37.419 L28.3557,33.841 C28.3557,33.702 28.3557,33.563 28.5077,33.424 C28.6467,33.297 28.9507,33.222 29.1787,33.21 L29.1787,32.88 C28.7857,32.919 28.2427,32.943 27.8387,32.943 C27.5097,32.943 27.0287,32.919 26.6757,32.893 L26.6757,33.197 C26.8907,33.184 27.1937,33.247 27.3067,33.361 C27.4337,33.487 27.4477,33.677 27.4477,33.803 L27.4477,35.246 L24.3347,35.246 L24.3347,33.841 C24.3347,33.702 24.3347,33.563 24.4857,33.424 C24.6247,33.297 24.9287,33.222 25.1557,33.21 L25.1557,32.88 C24.7647,32.919 24.2207,32.943 23.8167,32.943 C23.4877,32.943 23.0067,32.919 22.6527,32.893 L22.6527,33.197 C22.8677,33.184 23.1717,33.247 23.2847,33.361 C23.4127,33.487 23.4247,33.677 23.4247,33.803 L23.4247,37.395 C23.4247,37.534 23.4247,37.673 23.2737,37.811 C23.1337,37.939 22.8297,38.014 22.6027,38.027 L22.6027,38.356 Z M30.3117,38.356 C30.7037,38.317 31.2477,38.292 31.6517,38.292 C31.9797,38.292 32.4617,38.317 32.8147,38.343 L32.8147,38.04 C32.5997,38.052 32.2957,37.989 32.1817,37.876 C32.0937,37.799 32.0427,37.648 32.0427,37.482 L32.0427,37.217 L35.1557,34.512 L35.1557,37.395 C35.1557,37.534 35.1557,37.673 35.0037,37.811 C34.8647,37.939 34.5607,38.014 34.3337,38.027 L34.3337,38.356 C34.7257,38.317 35.2687,38.292 35.6727,38.292 C36.0017,38.292 36.4817,38.317 36.8367,38.343 L36.8367,38.04 C36.6717,38.052 36.3687,38.014 36.2417,37.913 C36.0777,37.787 36.0647,37.571 36.0647,37.419 L36.0647,33.841 C36.0647,33.702 36.0647,33.563 36.2167,33.424 C36.3557,33.297 36.6597,33.222 36.8867,33.21 L36.8867,32.88 C36.4957,32.919 35.9517,32.943 35.5467,32.943 C35.2197,32.943 34.7377,32.919 34.3837,32.893 L34.3837,33.197 C34.5987,33.184 34.9027,33.247 35.0167,33.361 C35.1437,33.487 35.1557,33.677 35.1557,33.803 L35.1557,34.031 L32.0427,36.737 L32.0427,33.841 C32.0427,33.702 32.0427,33.563 32.1947,33.424 C32.3337,33.297 32.6387,33.222 32.8657,33.21 L32.8657,32.88 C32.4727,32.919 31.9297,32.943 31.5257,32.943 C31.1967,32.943 30.7157,32.919 30.3627,32.893 L30.3627,33.197 C30.5777,33.184 30.8807,33.247 30.9947,33.361 C31.1207,33.487 31.1337,33.677 31.1337,33.803 L31.1337,37.395 C31.1337,37.534 31.1337,37.673 30.9817,37.811 C30.8427,37.939 30.5397,38.014 30.3117,38.027 L30.3117,38.356 Z M40.7217,38.317 L42.0497,38.292 L43.5157,38.33 L43.7447,38.33 L43.7447,37.976 C43.5297,37.976 43.2637,37.939 43.0997,37.874 C42.8717,37.787 42.7457,37.622 42.7457,37.305 C42.7457,37.129 42.8337,36.8 42.8717,36.673 C42.9217,36.483 43.2887,35.333 43.4537,34.84 L44.1227,34.853 C44.7427,34.865 44.4647,34.865 46.4247,34.903 L47.2347,36.952 C47.3487,37.242 47.3607,37.419 47.3607,37.496 C47.3607,37.609 47.3357,37.748 47.1967,37.85 C47.1717,37.874 47.0207,37.963 46.6657,37.963 L46.4137,37.963 L46.4137,38.343 L46.8807,38.356 L48.1947,38.317 L49.3327,38.356 L49.7127,38.343 L49.7127,37.976 C49.5477,37.963 49.3327,37.939 49.1807,37.9 C48.9537,37.836 48.8517,37.761 48.7257,37.571 C48.5747,37.331 48.4347,37.015 48.1697,36.37 C47.8157,35.484 47.7277,35.257 47.4877,34.626 L45.4267,29.314 L45.2617,29.251 C45.0967,29.352 44.9207,29.465 44.7427,29.592 C44.6427,29.668 44.5407,29.743 44.4907,29.845 C44.4397,29.946 44.4277,30.035 44.3007,30.465 C44.0857,31.198 43.8067,32.147 42.6947,35.472 C42.5047,36.041 42.4287,36.282 42.3277,36.56 C42.1257,37.116 42.0237,37.331 41.9347,37.458 C41.7957,37.659 41.6447,37.787 41.4047,37.863 C41.2147,37.913 40.8727,37.939 40.7217,37.951 L40.7217,38.317 Z M43.6297,34.347 C43.8707,33.539 44.0467,32.969 44.2757,32.273 L44.7557,30.781 C45.0837,31.502 45.5537,32.589 46.1727,34.347 L43.6297,34.347 Z M50.9907,37.724 C50.9907,38.141 51.3577,38.507 51.7747,38.507 C52.1917,38.507 52.5447,38.153 52.5447,37.724 C52.5447,37.294 52.2047,36.953 51.7747,36.953 C51.3447,36.953 50.9907,37.307 50.9907,37.724 L50.9907,37.724 Z M61.3297,36.106 C61.2157,36.637 60.9507,37.092 60.6467,37.396 C60.3297,37.712 59.7107,38.117 58.6097,38.117 C57.9277,38.117 57.1687,37.953 56.5727,37.611 C55.9667,37.257 55.4477,36.675 55.1067,36.004 C54.7777,35.359 54.6387,34.65 54.6387,33.854 C54.6387,33.133 54.7647,32.487 55.1327,31.791 C55.4987,31.095 55.9797,30.576 56.5617,30.235 C57.0427,29.957 57.6617,29.754 58.4197,29.754 C59.2557,29.754 59.9127,30.021 60.4317,30.539 C60.7107,30.817 61.0267,31.248 61.1777,31.868 L61.4937,31.817 C61.4187,30.83 61.3927,30.893 61.3297,30.046 C61.1017,29.932 60.5827,29.692 59.9507,29.528 C59.4957,29.415 58.9517,29.339 58.3707,29.339 C57.7747,29.339 57.1307,29.415 56.5107,29.629 C55.2207,30.059 54.4117,30.907 53.9567,31.627 C53.3627,32.564 53.2617,33.398 53.2617,33.93 C53.2617,34.663 53.4387,35.384 53.8677,36.118 C54.3607,36.965 55.0687,37.585 55.8027,37.978 C56.5357,38.369 57.4597,38.595 58.4587,38.595 C59.0917,38.595 60.1657,38.508 61.3677,37.915 C61.4307,37.535 61.4827,37.32 61.5447,37.016 C61.6077,36.738 61.6457,36.536 61.6967,36.194 L61.3297,36.106 Z M63.1397,37.724 C63.1397,38.141 63.5057,38.507 63.9237,38.507 C64.3397,38.507 64.6947,38.153 64.6947,37.724 C64.6947,37.294 64.3527,36.953 63.9237,36.953 C63.4927,36.953 63.1397,37.307 63.1397,37.724 L63.1397,37.724 Z M69.3127,29.958 C69.5397,29.958 69.8817,29.97 70.0837,30.008 C70.2227,30.033 70.3997,30.071 70.4757,30.147 C70.6027,30.261 70.6657,30.602 70.6777,30.729 C70.7157,31.058 70.7417,31.539 70.7417,32.576 L70.7417,36.928 C70.7417,37.13 70.7417,37.497 70.5647,37.7 C70.3997,37.877 70.0707,37.939 69.5017,37.953 L69.5017,38.33 C70.3757,38.368 70.7297,38.317 71.2087,38.317 C72.1057,38.317 72.0297,38.368 73.0547,38.33 L73.0547,37.953 L72.8397,37.953 C72.4217,37.953 72.1947,37.902 72.0677,37.788 C71.8907,37.624 71.8787,37.307 71.8787,37.079 L71.8787,30.741 C71.8787,30.615 71.8907,30.375 72.0417,30.248 C72.1187,30.185 72.2837,30.096 72.9537,30.096 L75.9267,30.096 C76.5977,30.096 76.7617,30.185 76.8377,30.248 C76.9907,30.375 77.0027,30.615 77.0027,30.741 L77.0027,37.042 C77.0027,37.231 77.0027,37.561 76.8377,37.724 C76.6357,37.927 76.0287,37.953 75.7627,37.953 L75.7627,38.33 C76.7237,38.368 76.9767,38.317 77.5967,38.317 C78.3797,38.317 78.4177,38.368 79.3407,38.33 L79.3407,37.953 L79.1767,37.953 C78.9227,37.953 78.5437,37.939 78.3537,37.762 C78.1517,37.572 78.1387,37.218 78.1387,36.978 L78.1387,32.576 C78.1387,31.539 78.1647,31.058 78.2027,30.729 C78.2147,30.602 78.2787,30.261 78.4047,30.147 C78.4817,30.071 78.6577,30.033 78.7967,30.008 C78.9987,29.97 79.3407,29.958 79.5677,29.958 L79.5677,29.579 C78.3537,29.542 78.4927,29.605 76.7237,29.605 L72.2447,29.605 C70.3757,29.605 70.5267,29.542 69.3127,29.579 L69.3127,29.958 Z M79.8577,32.906 L79.8577,33.234 L79.9837,33.234 C80.1867,33.234 80.4637,33.247 80.6927,33.45 C80.8317,33.576 80.9707,33.791 81.2107,34.411 L82.7287,38.28 L82.5137,38.749 C82.1977,39.444 82.0327,39.748 81.9197,39.936 C81.7547,40.203 81.6407,40.329 81.5657,40.405 C81.4257,40.544 81.2867,40.607 81.1087,40.607 C81.0597,40.607 80.9957,40.607 80.9447,40.595 C80.8937,40.582 80.8317,40.582 80.7807,40.582 C80.6287,40.582 80.5027,40.632 80.4017,40.759 C80.3247,40.86 80.2877,40.974 80.2877,41.088 C80.2877,41.214 80.3507,41.354 80.4147,41.429 C80.5027,41.53 80.6547,41.606 80.8317,41.606 C81.1597,41.606 81.4007,41.417 81.5777,41.227 C81.7547,41.037 81.9317,40.759 82.1977,40.266 C82.5017,39.684 82.7927,39.064 83.2477,38.053 C83.9677,36.471 84.2467,35.864 84.4617,35.397 C84.6257,35.043 85.0167,34.247 85.1827,33.942 C85.2957,33.728 85.4357,33.525 85.6247,33.399 C85.8147,33.273 86.1177,33.222 86.3467,33.222 L86.3467,32.919 L86.0307,32.906 L85.1447,32.943 L84.1957,32.906 L83.9047,32.919 L83.9047,33.222 L84.1077,33.234 C84.2467,33.247 84.4997,33.285 84.6257,33.373 C84.7147,33.437 84.7527,33.5 84.7527,33.614 C84.7527,33.753 84.6887,33.905 84.6387,34.019 L83.2477,37.117 L82.0587,34.056 C81.9067,33.677 81.9067,33.588 81.9067,33.551 C81.9067,33.488 81.9317,33.424 81.9947,33.373 C82.0207,33.361 82.0957,33.297 82.2857,33.285 L82.8047,33.234 L82.8047,32.919 L81.5397,32.956 L80.2367,32.906 L79.8577,32.906 Z M87.2907,33.26 L87.3907,33.26 C87.5557,33.26 87.7837,33.26 87.9097,33.373 C88.0357,33.488 88.0357,33.703 88.0357,33.867 L88.0357,37.648 C88.0357,37.8 87.9857,37.902 87.8347,37.991 C87.6947,38.066 87.4167,38.091 87.2647,38.091 L87.2647,38.38 C88.2757,38.419 88.0617,38.356 90.0467,38.356 L93.1077,38.356 C95.3707,38.356 95.1307,38.419 96.1427,38.38 L96.1427,38.091 C95.9907,38.091 95.7117,38.066 95.5737,37.991 C95.4217,37.902 95.3707,37.8 95.3707,37.648 L95.3707,33.867 C95.3707,33.703 95.3707,33.488 95.4967,33.373 C95.6237,33.26 95.8517,33.26 96.0167,33.26 L96.1167,33.26 L96.1167,32.943 L95.7627,32.943 C95.4467,32.943 95.1437,32.956 94.8277,32.956 C94.2347,32.956 94.3607,32.943 93.6897,32.943 L93.6897,33.26 C93.8547,33.26 94.2347,33.273 94.3607,33.399 C94.4747,33.512 94.4617,33.703 94.4617,33.829 L94.4617,37.561 C94.4617,37.762 94.3867,37.839 94.3607,37.864 C94.2967,37.915 94.1707,37.965 93.7917,37.965 L92.8297,37.965 C92.4497,37.965 92.3227,37.915 92.2587,37.864 C92.2337,37.839 92.1587,37.762 92.1587,37.561 L92.1587,33.816 C92.1587,33.69 92.1717,33.501 92.2977,33.373 C92.4107,33.26 92.7157,33.197 92.9307,33.21 L92.9307,32.906 C92.5757,32.931 92.0947,32.956 91.7667,32.956 C91.3637,32.956 90.8187,32.931 90.4267,32.893 L90.4267,33.222 C90.6537,33.234 90.9577,33.31 91.0977,33.437 C91.2487,33.576 91.2487,33.715 91.2487,33.854 L91.2487,37.561 C91.2487,37.762 91.1737,37.839 91.1487,37.864 C91.0847,37.915 90.9577,37.965 90.5787,37.965 L89.6167,37.965 C89.2367,37.965 89.1097,37.915 89.0467,37.864 C89.0207,37.839 88.9457,37.762 88.9457,37.561 L88.9457,33.829 C88.9457,33.703 88.9327,33.512 89.0467,33.399 C89.1727,33.273 89.5537,33.26 89.7177,33.26 L89.7177,32.943 C89.0467,32.943 89.1727,32.956 88.5787,32.956 C88.2647,32.956 87.9607,32.943 87.6447,32.943 L87.2907,32.943 L87.2907,33.26 Z M97.3077,33.222 C97.5347,33.234 97.8397,33.31 97.9787,33.437 C98.1287,33.576 98.1287,33.715 98.1287,33.854 L98.1287,37.407 C98.1287,37.546 98.1287,37.686 97.9787,37.825 C97.8397,37.951 97.5347,38.027 97.3077,38.04 L97.3077,38.368 C97.6997,38.33 98.2437,38.305 98.6477,38.305 C98.9757,38.305 99.4557,38.33 99.8097,38.356 L99.8097,38.052 C99.5957,38.065 99.2917,38.002 99.1787,37.888 C99.0507,37.761 99.0397,37.571 99.0397,37.445 L99.0397,35.712 L99.5327,35.712 C99.7857,35.712 100.0627,35.751 100.3037,36.003 C100.4807,36.192 100.6067,36.483 100.7717,36.927 C100.9617,37.445 100.9867,37.533 101.0637,37.724 C101.1637,37.989 101.2777,38.178 101.3917,38.356 L102.9347,38.356 L102.9347,38.052 L102.7947,38.052 C102.6057,38.052 102.3907,37.976 102.2517,37.863 C102.1247,37.761 102.0237,37.584 101.7957,37.052 C101.5937,36.56 101.4167,36.129 101.1507,35.89 C100.9107,35.662 100.4807,35.498 100.0377,35.498 C100.3167,35.486 100.5437,35.385 100.7587,35.094 C100.8857,34.917 101.0127,34.651 101.0637,34.512 C101.1257,34.36 101.1887,34.196 101.2527,34.006 C101.3277,33.791 101.3667,33.728 101.3917,33.703 C101.4297,33.665 101.4677,33.627 101.5167,33.627 C101.5687,33.627 101.5937,33.665 101.6067,33.69 C101.6447,33.753 101.7077,33.816 101.7707,33.842 C101.8597,33.892 101.9867,33.905 102.0737,33.905 C102.1887,33.905 102.2777,33.854 102.3527,33.791 C102.4537,33.703 102.5167,33.576 102.5167,33.387 C102.5167,33.197 102.4537,33.058 102.3527,32.956 C102.2137,32.817 102.0367,32.767 101.8337,32.767 C101.5427,32.767 101.3537,32.893 101.2017,33.095 C101.1257,33.197 101.0757,33.335 100.9997,33.525 C100.9237,33.741 100.8347,34.019 100.7717,34.184 C100.6067,34.651 100.4937,34.84 100.4307,34.93 C100.1767,35.284 99.8857,35.347 99.5447,35.347 L99.0397,35.347 L99.0397,33.803 C99.0397,33.677 99.0507,33.501 99.1657,33.387 C99.3297,33.222 99.7217,33.21 99.8097,33.21 L99.8097,32.906 C99.4557,32.931 98.9757,32.956 98.6477,32.956 C98.2437,32.956 97.6997,32.931 97.3077,32.893 L97.3077,33.222 Z M103.8987,38.356 C104.2907,38.317 104.8347,38.292 105.2387,38.292 C105.5667,38.292 106.0467,38.317 106.4017,38.343 L106.4017,38.04 C106.1877,38.052 105.8827,37.989 105.7687,37.876 C105.6797,37.799 105.6297,37.648 105.6297,37.482 L105.6297,37.217 L108.7427,34.512 L108.7427,37.395 C108.7427,37.534 108.7427,37.673 108.5907,37.811 C108.4517,37.939 108.1487,38.014 107.9197,38.027 L107.9197,38.356 C108.3127,38.317 108.8567,38.292 109.2597,38.292 C109.5887,38.292 110.0697,38.317 110.4237,38.343 L110.4237,38.04 C110.2587,38.052 109.9557,38.014 109.8287,37.913 C109.6647,37.787 109.6517,37.571 109.6517,37.419 L109.6517,33.841 C109.6517,33.702 109.6517,33.563 109.8037,33.424 C109.9427,33.297 110.2457,33.222 110.4737,33.21 L110.4737,32.88 C110.0817,32.919 109.5387,32.943 109.1347,32.943 C108.8057,32.943 108.3247,32.919 107.9707,32.893 L107.9707,33.197 C108.1857,33.184 108.4897,33.247 108.6047,33.361 C108.7297,33.487 108.7427,33.677 108.7427,33.803 L108.7427,34.031 L105.6297,36.737 L105.6297,33.841 C105.6297,33.702 105.6297,33.563 105.7817,33.424 C105.9197,33.297 106.2247,33.222 106.4527,33.21 L106.4527,32.88 C106.0597,32.919 105.5157,32.943 105.1117,32.943 C104.7837,32.943 104.3037,32.919 103.9487,32.893 L103.9487,33.197 C104.1647,33.184 104.4677,33.247 104.5817,33.361 C104.7077,33.487 104.7207,33.677 104.7207,33.803 L104.7207,37.395 C104.7207,37.534 104.7207,37.673 104.5687,37.811 C104.4297,37.939 104.1267,38.014 103.8987,38.027 L103.8987,38.356 Z M111.6007,38.356 C111.9927,38.317 112.5367,38.292 112.9417,38.292 C113.2697,38.292 113.7497,38.317 114.1037,38.343 L114.1037,38.04 C113.8387,38.052 113.5977,37.963 113.4717,37.876 C113.4207,37.836 113.3827,37.787 113.3577,37.673 C113.3327,37.546 113.3327,37.344 113.3327,37.433 L113.3327,37.482 L113.3327,35.637 L116.4447,35.637 L116.4447,37.395 C116.4447,37.534 116.4447,37.673 116.2937,37.811 C116.1547,37.939 115.8497,38.014 115.6227,38.027 L115.6227,38.356 C116.0147,38.317 116.5587,38.292 116.9637,38.292 C117.2917,38.292 117.7717,38.317 118.1257,38.343 L118.1257,38.04 C117.9107,38.052 117.6077,37.989 117.4937,37.876 C117.3667,37.748 117.3547,37.571 117.3547,37.419 L117.3547,33.841 C117.3547,33.702 117.3547,33.563 117.5057,33.424 C117.6457,33.297 117.9487,33.222 118.1777,33.21 L118.1777,32.88 C117.7847,32.919 117.2407,32.943 116.8367,32.943 C116.5087,32.943 116.0277,32.919 115.6737,32.893 L115.6737,33.197 C115.8887,33.184 116.1927,33.247 116.3057,33.361 C116.4327,33.487 116.4447,33.677 116.4447,33.803 L116.4447,35.246 L113.3327,35.246 L113.3327,33.841 C113.3327,33.702 113.3327,33.563 113.4837,33.424 C113.6237,33.297 113.9267,33.222 114.1547,33.21 L114.1547,32.88 C113.7637,32.919 113.2177,32.943 112.8147,32.943 C112.4867,32.943 112.0057,32.919 111.6517,32.893 L111.6517,33.197 C111.8667,33.184 112.1707,33.247 112.2837,33.361 C112.4107,33.487 112.4227,33.677 112.4227,33.803 L112.4227,37.395 C112.4227,37.534 112.4227,37.673 112.2717,37.811 C112.1327,37.939 111.8287,38.014 111.6007,38.027 L111.6007,38.356 Z M120.1487,34.322 C120.1377,34.309 120.0997,34.234 120.0997,34.119 C120.0997,34.044 120.1247,33.942 120.2007,33.841 C120.3017,33.728 120.4657,33.639 120.6047,33.602 C120.7197,33.563 120.8587,33.551 121.0237,33.551 C121.4157,33.551 121.6807,33.665 121.8457,33.829 C122.0347,34.019 122.0737,34.271 122.0737,34.461 L122.0737,35.473 L121.2887,35.752 C120.6807,35.965 120.2007,36.118 119.8087,36.345 C119.4037,36.585 119.2407,36.814 119.2407,37.23 C119.2407,37.546 119.4037,38.014 119.6067,38.229 C119.7957,38.432 120.0357,38.507 120.2767,38.507 C120.6047,38.507 120.9607,38.38 121.2757,38.166 C121.5297,37.989 121.8587,37.673 122.0867,37.419 L122.0867,37.509 C122.0867,37.711 122.1107,38.027 122.2767,38.242 C122.4647,38.482 122.7427,38.507 122.8817,38.507 C123.2477,38.507 123.4887,38.356 123.6277,38.217 C123.8167,38.027 123.9567,37.711 124.0077,37.419 L123.8307,37.344 C123.7797,37.459 123.7167,37.559 123.6407,37.622 C123.5527,37.711 123.4507,37.748 123.3117,37.748 C123.2357,37.748 123.1477,37.736 123.0847,37.66 C123.0467,37.609 122.9827,37.509 122.9827,37.192 L122.9827,34.258 C122.9827,33.955 122.9457,33.551 122.6037,33.222 C122.3017,32.931 121.7317,32.779 121.3397,32.767 L119.9347,33.588 C119.7837,33.677 119.5187,33.867 119.4177,34.069 C119.3667,34.157 119.3417,34.297 119.3417,34.398 C119.3417,34.474 119.3537,34.563 119.4177,34.739 L120.1487,34.322 Z M122.0737,37.066 C121.9977,37.154 121.7957,37.369 121.5417,37.571 C121.3777,37.698 121.0867,37.9 120.8207,37.9 C120.6697,37.9 120.4657,37.85 120.3147,37.622 C120.2127,37.47 120.1377,37.217 120.1377,37.028 C120.1377,36.712 120.3147,36.56 120.5677,36.408 C120.7327,36.306 121.0107,36.156 121.5297,35.954 L122.0737,35.739 L122.0737,37.066 Z" id="Fill-5"></path>
                        <path d="M0.9407,23.5742 C1.3337,23.5362 1.8767,23.5112 2.2797,23.5112 C2.6097,23.5112 3.0897,23.5362 3.4437,23.5612 L3.4437,23.2582 C3.2287,23.2702 2.9247,23.2072 2.8117,23.0932 C2.7227,23.0172 2.6717,22.8662 2.6717,22.7012 L2.6717,22.4352 L5.7857,19.7302 L5.7857,22.6132 C5.7857,22.7522 5.7857,22.8912 5.6337,23.0302 C5.4937,23.1572 5.1907,23.2322 4.9627,23.2452 L4.9627,23.5742 C5.3547,23.5362 5.8987,23.5112 6.3027,23.5112 C6.6317,23.5112 7.1127,23.5362 7.4657,23.5612 L7.4657,23.2582 C7.3017,23.2702 6.9977,23.2322 6.8717,23.1312 C6.7077,23.0052 6.6947,22.7902 6.6947,22.6382 L6.6947,19.0592 C6.6947,18.9212 6.6947,18.7822 6.8467,18.6432 C6.9857,18.5162 7.2897,18.4402 7.5167,18.4272 L7.5167,18.0992 C7.1247,18.1372 6.5807,18.1622 6.1777,18.1622 C5.8487,18.1622 5.3677,18.1372 5.0137,18.1112 L5.0137,18.4142 C5.2287,18.4022 5.5327,18.4652 5.6457,18.5792 C5.7727,18.7062 5.7857,18.8952 5.7857,19.0212 L5.7857,19.2502 L2.6717,21.9542 L2.6717,19.0592 C2.6717,18.9212 2.6717,18.7822 2.8247,18.6432 C2.9637,18.5162 3.2667,18.4402 3.4957,18.4272 L3.4957,18.0992 C3.1027,18.1372 2.5587,18.1622 2.1547,18.1622 C1.8267,18.1622 1.3467,18.1372 0.9917,18.1112 L0.9917,18.4142 C1.2067,18.4022 1.5097,18.4652 1.6247,18.5792 C1.7507,18.7062 1.7637,18.8952 1.7637,19.0212 L1.7637,22.6132 C1.7637,22.7522 1.7637,22.8912 1.6117,23.0302 C1.4727,23.1572 1.1687,23.2322 0.9407,23.2452 L0.9407,23.5742 Z M8.6447,22.0822 C8.6947,22.4742 8.6947,22.6892 8.7207,23.2212 C9.0357,23.4232 9.6317,23.7262 10.5667,23.7262 C10.9577,23.7262 11.4647,23.6762 11.8307,23.4862 C12.0837,23.3602 12.3367,23.1582 12.5257,22.8672 C12.6907,22.6142 12.7787,22.3612 12.7787,22.0202 C12.7787,21.6532 12.6777,21.3372 12.4117,21.0832 C12.1967,20.8812 11.7927,20.6542 11.2497,20.6162 C11.3627,20.6032 11.7047,20.5272 12.0337,20.3122 C12.3487,20.0972 12.5647,19.8192 12.5647,19.3882 C12.5647,19.0862 12.4747,18.6432 11.9697,18.3142 C11.5287,18.0232 11.0087,17.9852 10.6047,17.9852 C10.1617,17.9852 9.6437,18.0362 8.9227,18.3392 C8.9597,18.7562 8.9727,19.1492 8.9597,19.5032 L9.2127,19.5032 C9.2257,19.3512 9.2637,19.0732 9.4787,18.8072 C9.7947,18.4272 10.1747,18.3772 10.5277,18.3772 C10.7187,18.3772 10.9327,18.3902 11.1737,18.5292 C11.4897,18.7192 11.6157,19.0232 11.6157,19.4012 C11.6157,19.8052 11.4397,20.0592 11.2747,20.1982 C10.9577,20.4762 10.5277,20.4902 10.1617,20.4902 L9.9467,20.4902 L9.8827,20.9072 C10.1747,20.8682 10.9577,20.8182 11.3887,21.1732 C11.6917,21.4252 11.7427,21.7792 11.7427,22.0452 C11.7427,22.5632 11.5407,22.8802 11.3507,23.0442 C11.1347,23.2352 10.7697,23.3352 10.4147,23.3352 C9.9597,23.3352 9.5677,23.1582 9.3657,22.9432 C9.1617,22.7282 9.0117,22.3362 8.9597,22.0452 L8.6447,22.0822 Z M16.9827,17.9852 C16.3637,17.9852 15.5407,18.1742 14.8717,18.8432 C14.2907,19.4382 14.0247,20.1972 14.0247,20.9432 C14.0247,21.6522 14.2767,22.3732 14.8207,22.9182 C15.3767,23.4742 16.1107,23.7262 16.8187,23.7262 C17.3127,23.7262 17.7937,23.6122 18.2737,23.3352 C18.7927,23.0322 19.1977,22.6012 19.4367,22.1702 C19.6517,21.8042 19.7907,21.3362 19.7907,20.7922 C19.7907,20.0582 19.5007,19.4002 18.9947,18.8682 C18.5137,18.3622 17.8557,17.9852 16.9827,17.9852 L16.9827,17.9852 Z M16.8317,18.3762 C17.2997,18.3762 17.6677,18.5532 17.9577,18.8432 C18.4887,19.3752 18.7167,20.2612 18.7167,21.1082 C18.7167,21.6522 18.6157,22.3732 18.1097,22.8672 C17.8447,23.1332 17.4387,23.3352 16.9707,23.3352 C16.6427,23.3352 16.2237,23.2352 15.8327,22.8422 C15.3887,22.3862 15.0977,21.6272 15.0977,20.6782 C15.0977,20.2352 15.1487,19.4122 15.7057,18.8432 C15.9077,18.6412 16.2747,18.3762 16.8317,18.3762 L16.8317,18.3762 Z M21.7317,19.2102 C21.7317,18.7802 21.7437,18.3882 21.8197,17.9342 C21.8827,17.5292 22.0097,16.9972 22.4397,16.6812 C22.6917,16.5042 23.0587,16.3892 23.8297,16.2502 C24.4137,16.1502 24.1847,16.2002 25.1597,16.0222 C25.6657,15.9342 25.9307,15.8722 26.1587,15.2902 C26.2597,15.0252 26.3857,14.6072 26.4367,14.3802 L26.1457,14.3162 C26.1077,14.4812 26.0207,14.6832 25.9187,14.7852 C25.7667,14.9242 25.5137,14.9872 25.3117,15.0252 C24.9567,15.0882 24.9827,15.0632 24.3747,15.1642 C23.5907,15.2902 23.1347,15.4802 22.8567,15.6312 C22.1477,16.0352 21.7817,16.6422 21.5547,17.3012 C21.3017,18.0352 21.0877,19.1982 21.0877,20.1592 C21.0877,21.4622 21.4417,22.2722 21.8337,22.7792 C22.2997,23.3722 22.9457,23.7262 23.8687,23.7262 C24.5017,23.7262 25.0077,23.5622 25.3997,23.3222 C25.8677,23.0322 26.2087,22.6142 26.4367,22.1582 C26.6127,21.7922 26.7647,21.2852 26.7647,20.8182 C26.7647,20.4492 26.6757,19.9192 26.5117,19.5402 C26.3097,19.0842 25.9697,18.6662 25.5017,18.3762 C25.0337,18.0852 24.5767,17.9852 24.0337,17.9852 C23.5277,17.9852 23.1727,18.0732 22.7427,18.3382 C22.2487,18.6412 22.0097,18.9452 21.8447,19.2102 L21.7317,19.2102 Z M23.9697,18.3762 C24.4507,18.3762 24.8307,18.6032 25.1087,18.9322 C25.5887,19.5012 25.6907,20.2232 25.6907,20.8672 C25.6907,22.0192 25.3617,22.5382 25.1847,22.7652 C24.8187,23.2352 24.3497,23.3352 23.9947,23.3352 C23.4517,23.3352 22.9577,23.1332 22.5907,22.5512 C22.2367,21.9942 22.1597,21.2982 22.1597,20.7032 C22.1597,20.0832 22.2367,19.4382 22.6797,18.9452 C22.9697,18.6162 23.4517,18.3762 23.9697,18.3762 L23.9697,18.3762 Z M27.4657,26.7732 L27.7057,26.7732 C28.2757,26.7732 28.0857,26.7492 28.6917,26.7492 C29.1717,26.7492 29.9427,26.8242 30.4497,26.8242 L30.5887,26.8242 L30.5887,26.5342 C29.9057,26.5082 29.6777,26.4072 29.5757,26.3052 C29.3987,26.1292 29.4127,25.7492 29.4127,25.4712 L29.4127,23.6882 C30.3607,23.7392 30.8417,23.6762 31.2207,23.5742 C31.7917,23.4232 32.4367,23.0702 32.8527,22.6262 C33.1567,22.3092 33.5977,21.7032 33.5977,20.6652 C33.5977,19.5522 33.0677,18.9192 32.8167,18.6662 C32.4247,18.2872 31.9177,18.0732 31.4237,18.0732 C31.1707,18.0732 30.8547,18.1372 30.4497,18.3132 C30.1967,18.4272 29.7147,18.6792 29.4127,18.8562 L29.4127,17.9852 C28.9317,18.2122 28.3887,18.4652 27.7567,18.7312 L27.7567,18.8952 C27.9587,18.9462 28.2627,19.0732 28.3757,19.2252 C28.4647,19.3382 28.5027,19.5152 28.5027,19.7182 L28.5027,25.3062 C28.5027,25.8512 28.4387,26.0782 28.3387,26.2042 C28.1607,26.4202 27.7817,26.4702 27.4657,26.4832 L27.4657,26.7732 Z M29.4127,19.1732 C29.7527,18.9702 30.2467,18.7802 30.6897,18.7802 C31.1077,18.7802 31.5757,18.9322 31.9297,19.2732 C32.3357,19.6652 32.5877,20.2992 32.5877,21.0322 C32.5877,21.7412 32.3727,22.2722 31.9927,22.6522 C31.7777,22.8672 31.4107,23.1332 30.7657,23.1332 C30.5757,23.1332 30.3357,23.1072 30.1207,23.0442 C29.6277,22.9052 29.5257,22.7532 29.4757,22.6012 C29.4237,22.4492 29.4127,22.1582 29.4127,21.9942 L29.4127,19.1732 Z M35.6237,19.5402 C35.6107,19.5282 35.5727,19.4512 35.5727,19.3382 C35.5727,19.2622 35.5977,19.1602 35.6747,19.0592 C35.7757,18.9462 35.9397,18.8582 36.0797,18.8192 C36.1927,18.7822 36.3317,18.7692 36.4967,18.7692 C36.8897,18.7692 37.1547,18.8822 37.3197,19.0482 C37.5097,19.2362 37.5467,19.4892 37.5467,19.6792 L37.5467,20.6912 L36.7617,20.9702 C36.1547,21.1842 35.6747,21.3362 35.2827,21.5632 C34.8787,21.8042 34.7137,22.0312 34.7137,22.4482 C34.7137,22.7652 34.8787,23.2322 35.0797,23.4482 C35.2687,23.6502 35.5087,23.7262 35.7507,23.7262 C36.0797,23.7262 36.4337,23.5992 36.7507,23.3852 C37.0027,23.2072 37.3327,22.8912 37.5607,22.6382 L37.5607,22.7262 C37.5607,22.9292 37.5857,23.2452 37.7497,23.4612 C37.9387,23.7002 38.2167,23.7262 38.3557,23.7262 C38.7217,23.7262 38.9617,23.5742 39.1017,23.4352 C39.2907,23.2452 39.4297,22.9292 39.4817,22.6382 L39.3047,22.5622 C39.2537,22.6762 39.1907,22.7782 39.1137,22.8412 C39.0257,22.9292 38.9247,22.9672 38.7857,22.9672 C38.7097,22.9672 38.6217,22.9542 38.5577,22.8782 C38.5197,22.8282 38.4567,22.7262 38.4567,22.4102 L38.4567,19.4772 C38.4567,19.1732 38.4187,18.7692 38.0767,18.4402 C37.7747,18.1492 37.2067,17.9972 36.8137,17.9852 L35.4087,18.8062 C35.2567,18.8952 34.9927,19.0852 34.8907,19.2872 C34.8397,19.3762 34.8157,19.5152 34.8157,19.6162 C34.8157,19.6922 34.8277,19.7802 34.8907,19.9582 L35.6237,19.5402 Z M37.5467,22.2842 C37.4717,22.3722 37.2697,22.5882 37.0157,22.7902 C36.8507,22.9172 36.5607,23.1192 36.2947,23.1192 C36.1427,23.1192 35.9397,23.0682 35.7877,22.8412 C35.6867,22.6892 35.6107,22.4362 35.6107,22.2462 C35.6107,21.9302 35.7877,21.7782 36.0407,21.6262 C36.2057,21.5252 36.4847,21.3732 37.0027,21.1712 L37.5467,20.9562 L37.5467,22.2842 Z M40.5077,22.0822 C40.5577,22.4742 40.5577,22.6892 40.5837,23.2212 C40.8987,23.4232 41.4937,23.7262 42.4297,23.7262 C42.8217,23.7262 43.3277,23.6762 43.6937,23.4862 C43.9467,23.3602 44.1997,23.1582 44.3887,22.8672 C44.5527,22.6142 44.6417,22.3612 44.6417,22.0202 C44.6417,21.6532 44.5407,21.3372 44.2757,21.0832 C44.0607,20.8812 43.6567,20.6542 43.1127,20.6162 C43.2257,20.6032 43.5677,20.5272 43.8967,20.3122 C44.2117,20.0972 44.4277,19.8192 44.4277,19.3882 C44.4277,19.0862 44.3377,18.6432 43.8327,18.3142 C43.3907,18.0232 42.8717,17.9852 42.4677,17.9852 C42.0247,17.9852 41.5067,18.0362 40.7857,18.3392 C40.8237,18.7562 40.8357,19.1492 40.8237,19.5032 L41.0767,19.5032 C41.0897,19.3512 41.1267,19.0732 41.3417,18.8072 C41.6577,18.4272 42.0377,18.3772 42.3917,18.3772 C42.5807,18.3772 42.7957,18.3902 43.0367,18.5292 C43.3527,18.7192 43.4797,19.0232 43.4797,19.4012 C43.4797,19.8052 43.3017,20.0592 43.1377,20.1982 C42.8217,20.4762 42.3917,20.4902 42.0247,20.4902 L41.8087,20.4902 L41.7467,20.9072 C42.0377,20.8682 42.8217,20.8182 43.2527,21.1732 C43.5547,21.4252 43.6067,21.7792 43.6067,22.0452 C43.6067,22.5632 43.4037,22.8802 43.2137,23.0442 C42.9987,23.2352 42.6317,23.3352 42.2777,23.3352 C41.8227,23.3352 41.4307,23.1582 41.2287,22.9432 C41.0247,22.7282 40.8747,22.3362 40.8237,22.0452 L40.5077,22.0822 Z M45.6877,23.5742 C46.0797,23.5362 46.6237,23.5112 47.0277,23.5112 C47.3547,23.5112 47.8367,23.5362 48.1907,23.5612 L48.1907,23.2582 C47.9767,23.2702 47.6717,23.2072 47.5587,23.0932 C47.4697,23.0172 47.4187,22.8662 47.4187,22.7012 L47.4187,22.4352 L50.5327,19.7302 L50.5327,22.6132 C50.5327,22.7522 50.5327,22.8912 50.3797,23.0302 C50.2407,23.1572 49.9377,23.2322 49.7087,23.2452 L49.7087,23.5742 C50.1027,23.5362 50.6457,23.5112 51.0497,23.5112 C51.3777,23.5112 51.8577,23.5362 52.2127,23.5612 L52.2127,23.2582 C52.0487,23.2702 51.7447,23.2322 51.6187,23.1312 C51.4537,23.0052 51.4407,22.7902 51.4407,22.6382 L51.4407,19.0592 C51.4407,18.9212 51.4407,18.7822 51.5927,18.6432 C51.7317,18.5162 52.0357,18.4402 52.2637,18.4272 L52.2637,18.0992 C51.8707,18.1372 51.3277,18.1622 50.9237,18.1622 C50.5947,18.1622 50.1147,18.1372 49.7607,18.1112 L49.7607,18.4142 C49.9757,18.4022 50.2777,18.4652 50.3927,18.5792 C50.5187,18.7062 50.5327,18.8952 50.5327,19.0212 L50.5327,19.2502 L47.4187,21.9542 L47.4187,19.0592 C47.4187,18.9212 47.4187,18.7822 47.5697,18.6432 C47.7097,18.5162 48.0137,18.4402 48.2407,18.4272 L48.2407,18.0992 C47.8497,18.1372 47.3057,18.1622 46.9017,18.1622 C46.5727,18.1622 46.0927,18.1372 45.7377,18.1112 L45.7377,18.4142 C45.9527,18.4022 46.2567,18.4652 46.3707,18.5792 C46.4967,18.7062 46.5097,18.8952 46.5097,19.0212 L46.5097,22.6132 C46.5097,22.7522 46.5097,22.8912 46.3577,23.0302 C46.2187,23.1572 45.9157,23.2322 45.6877,23.2452 L45.6877,23.5742 Z M54.4397,23.2452 L54.4397,23.5612 C55.2867,23.5992 55.3507,23.5362 56.3737,23.5362 C56.7277,23.5362 57.2717,23.5612 57.4107,23.5612 L57.4107,23.2322 L57.2977,23.2322 C57.0687,23.2322 56.6777,23.2452 56.4867,23.0422 C56.3367,22.8782 56.3367,22.5492 56.3367,22.2202 L56.3367,18.5152 L56.6527,18.5152 C57.0067,18.5152 57.4367,18.5022 57.7147,18.7932 C57.9167,18.9952 58.0557,19.4762 58.0947,19.8292 L58.4357,19.8292 L58.2707,18.0862 C57.1087,18.1112 57.0187,18.1242 56.7917,18.1242 L55.0217,18.1242 C54.7557,18.1242 54.4157,18.1112 53.4667,18.0862 L53.3027,19.8292 L53.6437,19.8292 C53.6807,19.4762 53.8197,18.9952 54.0227,18.7932 C54.3007,18.5022 54.7317,18.5152 55.0857,18.5152 L55.4017,18.5152 L55.4017,22.3722 C55.4017,22.5742 55.4017,22.8782 55.2377,23.0552 C55.0477,23.2572 54.6807,23.2452 54.5167,23.2452 L54.4397,23.2452 Z M63.9817,20.2342 C64.0707,19.3002 63.7417,18.7682 63.4137,18.4642 C63.1097,18.1862 62.6547,17.9852 62.0977,17.9852 C61.5287,17.9852 60.9847,18.1862 60.4917,18.6662 C59.8717,19.2742 59.5177,20.1722 59.5177,21.1452 C59.5177,22.0812 59.8597,22.7392 60.2757,23.1312 C60.6307,23.4722 61.1867,23.7262 61.7937,23.7262 C62.2887,23.7262 62.7557,23.5742 63.1987,23.2572 C63.5017,23.0422 63.7917,22.7522 64.0317,22.3982 L63.8547,22.1962 C63.6917,22.3602 63.4627,22.5492 63.2497,22.6882 C62.9837,22.8532 62.6797,22.9672 62.3257,22.9672 C61.8957,22.9672 61.4787,22.8032 61.0987,22.4352 C60.8457,22.1832 60.6927,21.9292 60.5797,21.6262 C60.4777,21.3482 60.4017,20.9932 60.4017,20.6652 C60.4017,20.5252 60.4147,20.3612 60.4407,20.2342 L63.9817,20.2342 Z M60.4917,19.8822 C60.5667,19.5152 60.7567,19.0332 61.0347,18.7422 C61.2627,18.5022 61.5657,18.3492 61.9087,18.3492 C62.2117,18.3492 62.5037,18.4642 62.6927,18.6542 C62.9087,18.8682 62.9837,19.1102 62.9837,19.4132 C62.9837,19.5152 62.9707,19.6292 62.8947,19.7302 C62.7687,19.8822 62.5787,19.8822 62.4397,19.8822 L60.4917,19.8822 Z M70.6547,18.0862 C70.2007,18.1242 69.7437,18.1492 69.2267,18.1492 L67.6837,18.1492 C66.6097,18.1492 66.7227,18.1242 66.1537,18.1242 L66.1537,18.4892 C66.6097,18.4642 66.7987,18.5272 66.8997,18.6032 C67.0647,18.7302 67.0647,18.9452 67.0647,19.0212 C67.0647,19.5382 66.9127,20.5012 66.7867,21.0702 C66.6967,21.4872 66.5337,22.1072 66.4067,22.4222 C66.3057,22.6632 66.2037,22.8912 66.0147,22.8912 C65.8377,22.8912 65.7997,22.7392 65.6227,22.6372 C65.5467,22.6002 65.4577,22.5742 65.3697,22.5742 C65.2807,22.5742 65.1417,22.6002 65.0277,22.7132 C64.9267,22.8152 64.8637,22.9542 64.8637,23.1072 C64.8637,23.3962 65.0907,23.7262 65.5207,23.7262 C65.8117,23.7262 66.1027,23.5742 66.3057,23.3592 C66.4187,23.2322 66.5707,23.0172 66.7487,22.5742 C66.9257,22.1192 67.0517,21.6262 67.1657,21.0702 C67.2537,20.6012 67.3807,19.8552 67.4577,19.2612 C67.4947,18.9582 67.5197,18.7542 67.6077,18.6662 C67.6597,18.6162 67.7857,18.5402 68.2657,18.5402 C68.4557,18.5402 68.8097,18.5532 68.8987,18.6662 C68.9737,18.7542 68.9737,19.0212 68.9737,19.0962 L68.9737,22.6762 C68.9737,22.8032 68.9877,22.9912 68.8727,23.1072 C68.7467,23.2322 68.3677,23.2452 68.2027,23.2452 L68.2027,23.5612 C68.8727,23.5612 68.7467,23.5492 69.3397,23.5492 C69.6557,23.5492 69.9597,23.5612 70.2757,23.5612 L70.6297,23.5612 L70.6297,23.2452 L70.5287,23.2452 C70.3637,23.2452 70.1367,23.2452 70.0097,23.1312 C69.8837,23.0172 69.8837,22.8032 69.8837,22.6372 L69.8837,18.8562 C69.8837,18.7042 69.9337,18.6032 70.0847,18.5152 C70.2247,18.4392 70.5027,18.4142 70.6547,18.4142 L70.6547,18.0862 Z M71.8827,18.4142 C72.0977,18.4022 72.4027,18.4652 72.5157,18.5792 C72.6417,18.7062 72.6547,18.8952 72.6547,18.9962 L72.6547,22.3092 C72.6547,22.6772 72.6417,22.8162 72.5917,22.9182 C72.5277,23.0442 72.4267,23.0822 72.3127,23.1072 C72.1867,23.1452 72.1487,23.1582 71.9967,23.1832 C71.8327,23.1962 71.8827,23.1962 71.7947,23.2082 L71.7947,23.5612 L71.9087,23.5612 L72.1997,23.5612 C72.2877,23.5612 72.3637,23.5492 72.4517,23.5492 C72.6297,23.5362 72.8187,23.5362 72.9957,23.5362 C73.0967,23.5362 73.2097,23.5242 73.3117,23.5242 C73.6147,23.5242 73.6907,23.5242 73.8547,23.5362 C74.0707,23.5492 74.3867,23.5612 74.7027,23.5612 C75.5897,23.5612 76.0557,23.2722 76.2967,23.0062 C76.4987,22.7792 76.6497,22.3992 76.6497,21.9432 C76.6497,21.5252 76.5247,21.1702 76.2337,20.8802 C75.8547,20.5012 75.2337,20.3242 74.6267,20.3242 C74.3107,20.3242 73.8927,20.3752 73.5637,20.4512 L73.5637,19.0592 C73.5637,18.9212 73.5637,18.7822 73.7167,18.6432 C73.8547,18.5162 74.1597,18.4402 74.3867,18.4272 L74.3867,18.0992 C73.9937,18.1372 73.4507,18.1622 73.0467,18.1622 C72.7177,18.1622 72.2377,18.1372 71.8827,18.1112 L71.8827,18.4142 Z M73.5637,20.7922 C73.7927,20.7282 73.9687,20.7162 74.2347,20.7162 C74.5767,20.7162 75.0067,20.7412 75.3237,20.9812 C75.5007,21.1202 75.7157,21.3862 75.7157,21.8922 C75.7157,22.2722 75.5647,22.6262 75.3617,22.8422 C75.0187,23.1962 74.5387,23.1962 74.2857,23.1962 C74.1597,23.1962 73.8547,23.1832 73.7027,23.0062 C73.5887,22.8672 73.5637,22.5762 73.5637,22.3612 L73.5637,20.7922 Z M77.4917,23.5742 C77.8837,23.5362 78.4277,23.5112 78.8307,23.5112 C79.1597,23.5112 79.6397,23.5362 79.9947,23.5612 L79.9947,23.2582 C79.7287,23.2702 79.4887,23.1822 79.3617,23.0932 C79.3117,23.0552 79.2737,23.0052 79.2487,22.8912 C79.2227,22.7652 79.2227,22.5622 79.2227,22.6502 L79.2227,22.7012 L79.2227,20.8562 L82.3357,20.8562 L82.3357,22.6132 C82.3357,22.7522 82.3357,22.8912 82.1847,23.0302 C82.0447,23.1572 81.7407,23.2322 81.5137,23.2452 L81.5137,23.5742 C81.9057,23.5362 82.4497,23.5112 82.8527,23.5112 C83.1817,23.5112 83.6627,23.5362 84.0167,23.5612 L84.0167,23.2582 C83.8017,23.2702 83.4977,23.2072 83.3837,23.0932 C83.2577,22.9672 83.2457,22.7902 83.2457,22.6382 L83.2457,19.0592 C83.2457,18.9212 83.2457,18.7822 83.3977,18.6432 C83.5367,18.5162 83.8387,18.4402 84.0667,18.4272 L84.0667,18.0992 C83.6757,18.1372 83.1307,18.1622 82.7267,18.1622 C82.3997,18.1622 81.9177,18.1372 81.5637,18.1112 L81.5637,18.4142 C81.7787,18.4022 82.0827,18.4652 82.1967,18.5792 C82.3237,18.7062 82.3357,18.8952 82.3357,19.0212 L82.3357,20.4632 L79.2227,20.4632 L79.2227,19.0592 C79.2227,18.9212 79.2227,18.7822 79.3747,18.6432 C79.5137,18.5162 79.8177,18.4402 80.0447,18.4272 L80.0447,18.0992 C79.6527,18.1372 79.1087,18.1622 78.7057,18.1622 C78.3777,18.1622 77.8967,18.1372 77.5417,18.1112 L77.5417,18.4142 C77.7577,18.4022 78.0607,18.4652 78.1747,18.5792 C78.3007,18.7062 78.3137,18.8952 78.3137,19.0212 L78.3137,22.6132 C78.3137,22.7522 78.3137,22.8912 78.1617,23.0302 C78.0237,23.1572 77.7187,23.2322 77.4917,23.2452 L77.4917,23.5742 Z M90.3617,23.5742 C90.6387,23.5492 91.2077,23.5112 91.5747,23.5112 C91.8647,23.5112 92.3827,23.5362 92.7367,23.5612 L92.7367,23.2592 C92.5217,23.2722 92.2197,23.2082 92.1047,23.0952 C91.9787,22.9682 91.9657,22.7792 91.9657,22.6512 L91.9657,19.0592 C91.9657,18.9212 91.9657,18.7822 92.1177,18.6432 C92.2567,18.5162 92.5597,18.4402 92.7877,18.4272 L92.7877,18.0992 C92.3957,18.1372 91.8527,18.1622 91.4487,18.1622 C91.1197,18.1622 90.6387,18.1372 90.2847,18.1112 L90.2847,18.4142 C90.5007,18.4022 90.8027,18.4652 90.9177,18.5792 C91.0447,18.7062 91.0567,18.8952 91.0567,19.0232 L91.0567,22.6142 C91.0567,22.7532 91.0447,22.9052 90.9047,23.0442 C90.7657,23.1832 90.5247,23.2462 90.3617,23.2462 L90.3617,23.5742 Z M86.9697,20.7922 C87.1977,20.7282 87.3757,20.7162 87.6407,20.7162 C87.9817,20.7162 88.4117,20.7412 88.7287,20.9812 C88.9067,21.1202 89.1207,21.3862 89.1207,21.8922 C89.1207,22.2722 88.9687,22.6262 88.7657,22.8422 C88.4247,23.1962 87.9447,23.1962 87.6907,23.1962 C87.5647,23.1962 87.2607,23.1832 87.1077,23.0062 C86.9947,22.8672 86.9697,22.5762 86.9697,22.3612 L86.9697,20.7922 Z M85.2887,18.4142 C85.5037,18.4022 85.8087,18.4652 85.9217,18.5792 C86.0477,18.7062 86.0607,18.8952 86.0607,18.9962 L86.0607,22.3092 C86.0607,22.6772 86.0477,22.8162 85.9977,22.9182 C85.9337,23.0442 85.8327,23.0822 85.7187,23.1072 C85.5937,23.1452 85.5537,23.1582 85.4027,23.1832 C85.2387,23.1962 85.2887,23.1962 85.2007,23.2082 L85.2007,23.5612 L85.3147,23.5612 L85.6047,23.5612 C85.6927,23.5612 85.7697,23.5492 85.8587,23.5492 C86.0347,23.5362 86.2247,23.5362 86.4007,23.5362 C86.5027,23.5362 86.6157,23.5242 86.7167,23.5242 C87.0207,23.5242 87.0957,23.5242 87.2607,23.5362 C87.4757,23.5492 87.7917,23.5612 88.1087,23.5612 C88.9937,23.5612 89.4617,23.2722 89.7027,23.0062 C89.9057,22.7792 90.0567,22.3992 90.0567,21.9432 C90.0567,21.5252 89.9297,21.1702 89.6387,20.8802 C89.2607,20.5012 88.6397,20.3242 88.0327,20.3242 C87.7157,20.3242 87.2987,20.3752 86.9697,20.4512 L86.9697,19.0592 C86.9697,18.9212 86.9697,18.7822 87.1207,18.6432 C87.2607,18.5162 87.5647,18.4402 87.7917,18.4272 L87.7917,18.0992 C87.3987,18.1372 86.8567,18.1622 86.4527,18.1622 C86.1237,18.1622 85.6437,18.1372 85.2887,18.1112 L85.2887,18.4142 Z M93.8327,18.1242 L93.8327,18.4402 C93.9587,18.4142 94.1487,18.4142 94.4267,18.5912 C94.8447,18.8582 95.1727,19.3882 95.6787,20.1092 L96.2857,20.9702 L94.9457,22.6132 C94.7927,22.7902 94.6537,22.9912 94.4007,23.1192 C94.2627,23.1942 94.0727,23.2452 93.8577,23.2452 L93.8577,23.5742 L94.0087,23.5742 L95.1857,23.5362 L96.0837,23.5492 L96.0837,23.2582 L95.9697,23.2452 C95.7927,23.2202 95.6277,23.2202 95.5017,23.1442 C95.4127,23.0932 95.3617,23.0302 95.3617,22.9152 C95.3617,22.8532 95.3877,22.7902 95.4127,22.7262 C95.4767,22.5742 95.6027,22.3852 95.6787,22.2842 L96.5007,21.2352 L97.5247,22.6502 C97.5767,22.7262 97.6767,22.8532 97.6767,22.9542 C97.6767,23.0172 97.6527,23.1072 97.5377,23.1692 C97.4497,23.2202 97.3227,23.2322 97.2467,23.2322 L96.9307,23.2452 L96.9307,23.5492 C97.6527,23.5872 97.8917,23.5362 98.3227,23.5362 C98.7897,23.5362 98.9807,23.5872 99.6507,23.5492 L99.6507,23.2322 C99.5367,23.2582 99.3717,23.2582 99.1197,23.0932 C98.8027,22.8912 98.4747,22.5372 97.3487,20.9062 L97.0957,20.5392 L97.9547,19.4892 C98.3347,19.0212 98.5627,18.7692 98.7897,18.6302 C99.0557,18.4652 99.3087,18.4402 99.4607,18.4402 L99.5237,18.4402 L99.5237,18.1242 C98.9417,18.1492 98.7527,18.1492 98.6637,18.1492 C98.3087,18.1492 97.9547,18.1242 97.6007,18.1242 L97.2727,18.1242 L97.2727,18.4142 L97.4497,18.4402 C97.6387,18.4652 97.7527,18.4772 97.8417,18.5162 C97.9677,18.5672 97.9807,18.6672 97.9807,18.7192 C97.9807,18.7942 97.9177,18.9332 97.8677,19.0092 C97.8297,19.0722 97.6527,19.3002 97.5897,19.3882 L96.8687,20.2612 L95.9187,18.9462 C95.8817,18.8952 95.7927,18.7692 95.7927,18.6802 C95.7927,18.6042 95.8307,18.5412 95.9317,18.5042 C95.9947,18.4772 96.0837,18.4652 96.2857,18.4532 L96.5007,18.4402 L96.5007,18.1242 L96.1597,18.1242 C95.6027,18.1242 95.5907,18.2252 95.0337,18.1752 C94.7687,18.1492 94.5537,18.1242 94.1997,18.1242 L93.8327,18.1242 Z M103.4957,23.5742 C103.8887,23.5362 104.4317,23.5112 104.8367,23.5112 C105.1647,23.5112 105.6447,23.5362 105.9987,23.5612 L105.9987,23.2582 C105.7837,23.2702 105.4807,23.2072 105.3667,23.0932 C105.2777,23.0172 105.2277,22.8662 105.2277,22.7012 L105.2277,22.4352 L108.3397,19.7302 L108.3397,22.6132 C108.3397,22.7522 108.3397,22.8912 108.1877,23.0302 C108.0487,23.1572 107.7447,23.2322 107.5177,23.2452 L107.5177,23.5742 C107.9097,23.5362 108.4537,23.5112 108.8587,23.5112 C109.1867,23.5112 109.6677,23.5362 110.0207,23.5612 L110.0207,23.2582 C109.8567,23.2702 109.5527,23.2322 109.4267,23.1312 C109.2617,23.0052 109.2507,22.7902 109.2507,22.6382 L109.2507,19.0592 C109.2507,18.9212 109.2507,18.7822 109.4007,18.6432 C109.5397,18.5162 109.8447,18.4402 110.0717,18.4272 L110.0717,18.0992 C109.6797,18.1372 109.1357,18.1622 108.7317,18.1622 C108.4037,18.1622 107.9217,18.1372 107.5687,18.1112 L107.5687,18.4142 C107.7837,18.4022 108.0877,18.4652 108.2007,18.5792 C108.3277,18.7062 108.3397,18.8952 108.3397,19.0212 L108.3397,19.2502 L105.2277,21.9542 L105.2277,19.0592 C105.2277,18.9212 105.2277,18.7822 105.3797,18.6432 C105.5187,18.5162 105.8217,18.4402 106.0507,18.4272 L106.0507,18.0992 C105.6577,18.1372 105.1137,18.1622 104.7097,18.1622 C104.3817,18.1622 103.9007,18.1372 103.5467,18.1112 L103.5467,18.4142 C103.7607,18.4022 104.0657,18.4652 104.1797,18.5792 C104.3057,18.7062 104.3187,18.8952 104.3187,19.0212 L104.3187,22.6132 C104.3187,22.7522 104.3187,22.8912 104.1667,23.0302 C104.0277,23.1572 103.7237,23.2322 103.4957,23.2452 L103.4957,23.5742 Z M115.5587,21.9702 C115.4947,22.0452 115.2547,22.3362 114.9397,22.5632 C114.6357,22.7792 114.3187,22.9052 113.9527,22.9052 C113.4717,22.9052 113.0037,22.6892 112.6747,22.3482 C112.2577,21.9312 111.9797,21.2612 111.9797,20.4902 C111.9797,19.9072 112.1687,19.2502 112.5607,18.8582 C112.8257,18.6042 113.2057,18.4402 113.5467,18.4402 C113.7487,18.4402 113.9267,18.4902 114.1037,18.6172 C114.3567,18.8072 114.3817,18.9712 114.6487,19.2502 C114.7737,19.3882 114.8877,19.4512 115.0787,19.4512 C115.3567,19.4512 115.5587,19.3012 115.5587,18.9842 C115.5587,18.7692 115.4707,18.5922 115.3057,18.4272 C115.2417,18.3652 114.8247,17.9852 113.9267,17.9852 C113.3447,17.9852 112.5867,18.1622 111.9407,18.8192 C111.3857,19.3882 111.0957,20.1102 111.0957,21.0202 C111.0957,22.0572 111.4867,22.7032 111.9027,23.1072 C112.4477,23.6242 113.0287,23.7262 113.4207,23.7262 C113.9017,23.7262 114.3317,23.5742 114.7357,23.2842 C115.1657,22.9682 115.5207,22.5392 115.7607,22.1342 L115.5587,21.9702 Z M116.7497,18.4402 C116.9757,18.4532 117.2807,18.5292 117.4197,18.6552 C117.5717,18.7942 117.5717,18.9332 117.5717,19.0732 L117.5717,22.6252 C117.5717,22.7642 117.5717,22.9032 117.4197,23.0422 C117.2807,23.1692 116.9757,23.2452 116.7497,23.2572 L116.7497,23.5872 C117.1417,23.5492 117.6847,23.5242 118.0877,23.5242 C118.4167,23.5242 118.8977,23.5492 119.2517,23.5742 L119.2517,23.2702 C119.0367,23.2822 118.7327,23.2202 118.6187,23.1072 C118.4927,22.9792 118.4797,22.7902 118.4797,22.6632 L118.4797,20.9302 L118.9727,20.9302 C119.2267,20.9302 119.5047,20.9682 119.7447,21.2212 C119.9227,21.4112 120.0487,21.7022 120.2127,22.1452 C120.4027,22.6632 120.4277,22.7522 120.5037,22.9422 C120.6047,23.2072 120.7187,23.3962 120.8337,23.5742 L122.3767,23.5742 L122.3767,23.2702 L122.2367,23.2702 C122.0467,23.2702 121.8317,23.1942 121.6927,23.0802 C121.5657,22.9792 121.4647,22.8032 121.2377,22.2712 C121.0347,21.7772 120.8577,21.3482 120.5927,21.1072 C120.3527,20.8802 119.9227,20.7162 119.4797,20.7162 C119.7577,20.7032 119.9857,20.6032 120.2007,20.3122 C120.3267,20.1352 120.4537,19.8692 120.5037,19.7302 C120.5667,19.5782 120.6307,19.4142 120.6947,19.2252 C120.7697,19.0092 120.8077,18.9462 120.8337,18.9212 C120.8707,18.8842 120.9097,18.8452 120.9597,18.8452 C121.0087,18.8452 121.0347,18.8842 121.0487,18.9082 C121.0857,18.9712 121.1487,19.0352 121.2117,19.0592 C121.3007,19.1102 121.4267,19.1232 121.5157,19.1232 C121.6287,19.1232 121.7177,19.0732 121.7947,19.0092 C121.8947,18.9212 121.9587,18.7942 121.9587,18.6042 C121.9587,18.4142 121.8947,18.2752 121.7947,18.1752 C121.6547,18.0362 121.4787,17.9852 121.2757,17.9852 C120.9847,17.9852 120.7947,18.1112 120.6427,18.3142 C120.5667,18.4142 120.5167,18.5542 120.4407,18.7422 C120.3647,18.9582 120.2767,19.2362 120.2127,19.4012 C120.0487,19.8692 119.9347,20.0592 119.8707,20.1482 C119.6177,20.5012 119.3277,20.5662 118.9867,20.5662 L118.4797,20.5662 L118.4797,19.0232 C118.4797,18.8952 118.4927,18.7192 118.6067,18.6042 C118.7707,18.4402 119.1627,18.4272 119.2517,18.4272 L119.2517,18.1242 C118.8977,18.1492 118.4167,18.1752 118.0877,18.1752 C117.6847,18.1752 117.1417,18.1492 116.7497,18.1112 L116.7497,18.4402 Z M122.9087,18.1242 L122.9087,18.4532 L123.0357,18.4532 C123.2377,18.4532 123.5167,18.4652 123.7427,18.6672 C123.8827,18.7942 124.0227,19.0092 124.2627,19.6292 L125.7797,23.4992 L125.5657,23.9672 C125.2497,24.6612 125.0837,24.9662 124.9707,25.1552 C124.8057,25.4212 124.6927,25.5472 124.6167,25.6222 C124.4777,25.7622 124.3387,25.8252 124.1617,25.8252 C124.1107,25.8252 124.0477,25.8252 123.9967,25.8132 C123.9467,25.7992 123.8827,25.7992 123.8317,25.7992 C123.6807,25.7992 123.5537,25.8512 123.4527,25.9772 C123.3767,26.0782 123.3387,26.1922 123.3387,26.3052 C123.3387,26.4322 123.4017,26.5722 123.4657,26.6472 C123.5537,26.7492 123.7057,26.8242 123.8827,26.8242 C124.2117,26.8242 124.4517,26.6352 124.6287,26.4452 C124.8057,26.2562 124.9827,25.9772 125.2497,25.4842 C125.5527,24.9022 125.8437,24.2822 126.2987,23.2712 C127.0187,21.6902 127.2977,21.0832 127.5127,20.6152 C127.6777,20.2612 128.0697,19.4652 128.2347,19.1602 C128.3477,18.9462 128.4867,18.7422 128.6767,18.6172 C128.8667,18.4902 129.1697,18.4402 129.3977,18.4402 L129.3977,18.1372 L129.0817,18.1242 L128.1967,18.1622 L127.2477,18.1242 L126.9567,18.1372 L126.9567,18.4402 L127.1587,18.4532 C127.2977,18.4652 127.5507,18.5042 127.6777,18.5922 C127.7647,18.6552 127.8047,18.7192 127.8047,18.8322 C127.8047,18.9712 127.7417,19.1232 127.6897,19.2362 L126.2987,22.3342 L125.1097,19.2742 C124.9587,18.8952 124.9587,18.8062 124.9587,18.7692 C124.9587,18.7062 124.9827,18.6432 125.0467,18.5922 C125.0727,18.5792 125.1477,18.5162 125.3377,18.5042 L125.8557,18.4532 L125.8557,18.1372 L124.5907,18.1752 L123.2887,18.1242 L122.9087,18.1242 Z M134.3717,21.9702 C134.3087,22.0452 134.0687,22.3362 133.7527,22.5632 C133.4487,22.7792 133.1327,22.9052 132.7657,22.9052 C132.2857,22.9052 131.8167,22.6892 131.4887,22.3482 C131.0707,21.9312 130.7937,21.2612 130.7937,20.4902 C130.7937,19.9072 130.9827,19.2502 131.3747,18.8582 C131.6397,18.6042 132.0197,18.4402 132.3617,18.4402 C132.5637,18.4402 132.7397,18.4902 132.9177,18.6172 C133.1707,18.8072 133.1957,18.9712 133.4617,19.2502 C133.5877,19.3882 133.7017,19.4512 133.8917,19.4512 C134.1697,19.4512 134.3717,19.3012 134.3717,18.9842 C134.3717,18.7692 134.2837,18.5922 134.1197,18.4272 C134.0567,18.3652 133.6397,17.9852 132.7397,17.9852 C132.1597,17.9852 131.3997,18.1622 130.7557,18.8192 C130.1997,19.3882 129.9087,20.1102 129.9087,21.0202 C129.9087,22.0572 130.3007,22.7032 130.7167,23.1072 C131.2607,23.6242 131.8427,23.7262 132.2347,23.7262 C132.7157,23.7262 133.1467,23.5742 133.5507,23.2842 C133.9807,22.9682 134.3347,22.5392 134.5747,22.1342 L134.3717,21.9702 Z M140.1707,21.9702 C140.1087,22.0452 139.8677,22.3362 139.5517,22.5632 C139.2477,22.7792 138.9317,22.9052 138.5657,22.9052 C138.0847,22.9052 137.6157,22.6892 137.2877,22.3482 C136.8697,21.9312 136.5927,21.2612 136.5927,20.4902 C136.5927,19.9072 136.7817,19.2502 137.1747,18.8582 C137.4407,18.6042 137.8197,18.4402 138.1607,18.4402 C138.3627,18.4402 138.5397,18.4902 138.7167,18.6172 C138.9707,18.8072 138.9957,18.9712 139.2607,19.2502 C139.3867,19.3882 139.5007,19.4512 139.6917,19.4512 C139.9697,19.4512 140.1707,19.3012 140.1707,18.9842 C140.1707,18.7692 140.0827,18.5922 139.9187,18.4272 C139.8557,18.3652 139.4387,17.9852 138.5397,17.9852 C137.9587,17.9852 137.1997,18.1622 136.5547,18.8192 C135.9987,19.3882 135.7087,20.1102 135.7087,21.0202 C135.7087,22.0572 136.0997,22.7032 136.5167,23.1072 C137.0597,23.6242 137.6417,23.7262 138.0337,23.7262 C138.5157,23.7262 138.9457,23.5742 139.3497,23.2842 C139.7797,22.9682 140.1337,22.5392 140.3737,22.1342 L140.1707,21.9702 Z M142.4427,23.2452 L142.4427,23.5612 C143.2907,23.5992 143.3547,23.5362 144.3777,23.5362 C144.7317,23.5362 145.2757,23.5612 145.4147,23.5612 L145.4147,23.2322 L145.3017,23.2322 C145.0727,23.2322 144.6807,23.2452 144.4917,23.0422 C144.3397,22.8782 144.3397,22.5492 144.3397,22.2202 L144.3397,18.5152 L144.6557,18.5152 C145.0097,18.5152 145.4397,18.5022 145.7177,18.7932 C145.9207,18.9952 146.0597,19.4762 146.0967,19.8292 L146.4387,19.8292 L146.2747,18.0862 C145.1097,18.1112 145.0227,18.1242 144.7947,18.1242 L143.0257,18.1242 C142.7597,18.1242 142.4177,18.1112 141.4697,18.0862 L141.3047,19.8292 L141.6467,19.8292 C141.6847,19.4762 141.8237,18.9952 142.0257,18.7932 C142.3047,18.5022 142.7337,18.5152 143.0887,18.5152 L143.4047,18.5152 L143.4047,22.3722 C143.4047,22.5742 143.4047,22.8782 143.2407,23.0552 C143.0497,23.2572 142.6837,23.2452 142.5197,23.2452 L142.4427,23.2452 Z M147.4717,18.0992 L147.4717,18.4512 C147.9017,18.4772 148.1287,18.5402 148.2427,18.6542 C148.3567,18.7552 148.3567,18.8562 148.3567,18.9962 L148.3567,22.3092 C148.3567,22.6772 148.3437,22.8162 148.2937,22.9182 C148.2297,23.0442 148.1287,23.0822 148.0147,23.1072 C147.8887,23.1452 147.8507,23.1582 147.6997,23.1832 C147.5337,23.1962 147.5847,23.1962 147.4967,23.2082 L147.4967,23.5612 L147.6097,23.5612 L147.9017,23.5612 C147.9897,23.5612 148.0657,23.5492 148.1537,23.5492 C148.3317,23.5362 148.5207,23.5362 148.6977,23.5362 C148.7987,23.5362 148.9117,23.5242 149.0137,23.5242 C149.3797,23.5242 149.4927,23.5242 149.6327,23.5362 C149.8477,23.5492 150.1767,23.5612 150.4937,23.5612 C151.1387,23.5612 151.7727,23.5112 152.2127,23.0442 C152.3647,22.8792 152.5787,22.5632 152.5787,22.0952 C152.5787,21.6892 152.4157,21.3732 152.2017,21.1702 C151.9227,20.8922 151.4297,20.7162 151.0627,20.6662 L151.0627,20.6272 C151.4047,20.6032 151.6457,20.4762 151.7327,20.4132 C152.1247,20.1602 152.2517,19.7802 152.2517,19.4502 C152.2517,19.1102 152.0867,18.7802 151.8467,18.5532 C151.4047,18.1242 150.7337,18.0732 150.1517,18.0732 C149.7717,18.0732 149.3667,18.0992 148.9497,18.1112 C148.4197,18.1242 148.4327,18.0992 147.8257,18.0992 L147.4717,18.0992 Z M149.2907,20.9302 C149.5187,20.8922 149.6697,20.8922 149.8987,20.8922 C150.3407,20.8922 150.8987,20.9052 151.3027,21.2852 C151.4937,21.4622 151.6327,21.7272 151.6327,22.0322 C151.6327,22.3482 151.4937,22.6772 151.3027,22.8672 C150.9747,23.1962 150.4567,23.2212 150.0627,23.2212 C149.8727,23.2212 149.5817,23.2082 149.4307,23.0322 C149.3167,22.8922 149.2907,22.6012 149.2907,22.3862 L149.2907,20.9302 Z M149.2907,18.8442 C149.2907,18.7682 149.3037,18.5912 149.4047,18.4892 C149.5187,18.3762 149.7337,18.3882 149.8477,18.3882 C150.2527,18.3882 150.6457,18.3882 150.9747,18.6792 C151.2657,18.9452 151.3027,19.3002 151.3027,19.4892 C151.3027,19.7932 151.2407,20.0582 150.9867,20.2742 C150.6577,20.5522 150.1897,20.5782 149.9107,20.5782 C149.6957,20.5782 149.3797,20.5522 149.2907,20.5522 L149.2907,18.8442 Z" id="Fill-7"></path>
                        <path d="M7.6809,0.0161 C6.7829,-0.0219 6.8589,0.0291 5.2779,0.0411 C4.3419,0.0541 3.5699,0.0661 2.8749,0.0411 C2.2439,0.0161 1.9279,-0.0219 1.0549,0.0161 L1.0549,0.3941 C1.2839,0.3941 1.6239,0.4071 1.8269,0.4451 C1.9659,0.4701 2.1429,0.5071 2.2189,0.5831 C2.3449,0.6971 2.4089,1.0391 2.4199,1.1661 C2.4599,1.4941 2.4839,1.9751 2.4839,3.0121 L2.4839,6.3651 C2.4839,7.7691 2.3449,8.0481 2.2439,8.1611 C2.0919,8.3271 1.7639,8.3761 1.4089,8.4391 L1.0549,8.5031 L1.0549,8.8681 C2.6489,8.7671 2.9139,8.7671 2.9769,8.7671 C3.7349,8.7671 4.0639,8.8551 4.9609,8.8051 L4.9609,8.4271 C4.1909,8.4391 3.9249,8.3001 3.8099,8.1871 C3.6459,8.0221 3.6209,7.7821 3.6209,7.5791 L3.6209,1.1791 C3.6209,1.0141 3.6339,0.7861 3.8359,0.6091 C3.9629,0.5071 4.2029,0.4071 4.7459,0.4071 L5.6579,0.4071 C5.9739,0.4071 6.5559,0.4451 6.8719,0.7351 C7.1379,0.9751 7.2639,1.4561 7.2639,1.8741 L7.6689,1.8741 L7.6809,0.0161 Z M10.5019,3.2031 C9.8829,3.2031 9.0599,3.3921 8.3899,4.0621 C7.8089,4.6561 7.5429,5.4161 7.5429,6.1621 C7.5429,6.8711 7.7959,7.5921 8.3389,8.1361 C8.8949,8.6921 9.6299,8.9441 10.3379,8.9441 C10.8309,8.9441 11.3119,8.8301 11.7929,8.5541 C12.3129,8.2501 12.7159,7.8201 12.9559,7.3901 C13.1709,7.0221 13.3099,6.5541 13.3099,6.0111 C13.3099,5.2761 13.0189,4.6191 12.5129,4.0871 C12.0339,3.5811 11.3769,3.2031 10.5019,3.2031 L10.5019,3.2031 Z M10.3509,3.5941 C10.8189,3.5941 11.1859,3.7711 11.4769,4.0621 C12.0079,4.5931 12.2369,5.4791 12.2369,6.3271 C12.2369,6.8711 12.1349,7.5921 11.6279,8.0851 C11.3629,8.3511 10.9579,8.5541 10.4899,8.5541 C10.1609,8.5541 9.7429,8.4531 9.3509,8.0601 C8.9079,7.6051 8.6169,6.8451 8.6169,5.8961 C8.6169,5.4531 8.6679,4.6321 9.2239,4.0621 C9.4259,3.8601 9.7939,3.5941 10.3509,3.5941 L10.3509,3.5941 Z M19.0699,7.1881 C19.0059,7.2641 18.7659,7.5541 18.4489,7.7821 C18.1469,7.9961 17.8299,8.1231 17.4619,8.1231 C16.9819,8.1231 16.5149,7.9091 16.1859,7.5681 C15.7689,7.1491 15.4899,6.4791 15.4899,5.7081 C15.4899,5.1261 15.6809,4.4691 16.0719,4.0761 C16.3369,3.8231 16.7169,3.6591 17.0589,3.6591 C17.2609,3.6591 17.4379,3.7091 17.6149,3.8361 C17.8679,4.0251 17.8919,4.1901 18.1589,4.4691 C18.2859,4.6071 18.3989,4.6701 18.5889,4.6701 C18.8669,4.6701 19.0699,4.5181 19.0699,4.2031 C19.0699,3.9871 18.9809,3.8101 18.8159,3.6461 C18.7529,3.5831 18.3359,3.2031 17.4379,3.2031 C16.8559,3.2031 16.0969,3.3801 15.4519,4.0381 C14.8969,4.6071 14.6069,5.3281 14.6069,6.2381 C14.6069,7.2761 14.9989,7.9211 15.4149,8.3261 C15.9589,8.8431 16.5409,8.9441 16.9319,8.9441 C17.4119,8.9441 17.8419,8.7931 18.2479,8.5021 C18.6779,8.1871 19.0319,7.7571 19.2729,7.3521 L19.0699,7.1881 Z M20.0399,3.3421 L20.0399,3.6711 L20.1659,3.6711 C20.3679,3.6711 20.6459,3.6841 20.8749,3.8861 C21.0129,4.0131 21.1529,4.2281 21.3919,4.8471 L22.9109,8.7181 L22.6959,9.1851 C22.3789,9.8801 22.2149,10.1841 22.1009,10.3731 C21.9369,10.6391 21.8219,10.7661 21.7469,10.8411 C21.6069,10.9801 21.4679,11.0431 21.2909,11.0431 C21.2409,11.0431 21.1769,11.0431 21.1269,11.0311 C21.0759,11.0181 21.0129,11.0181 20.9629,11.0181 C20.8109,11.0181 20.6839,11.0691 20.5829,11.1951 C20.5069,11.2971 20.4699,11.4111 20.4699,11.5231 C20.4699,11.6511 20.5329,11.7901 20.5969,11.8671 C20.6839,11.9671 20.8359,12.0431 21.0129,12.0431 C21.3419,12.0431 21.5829,11.8541 21.7599,11.6631 C21.9369,11.4741 22.1129,11.1951 22.3789,10.7021 C22.6829,10.1201 22.9729,9.5021 23.4279,8.4891 C24.1499,6.9091 24.4289,6.3021 24.6429,5.8341 C24.8069,5.4801 25.1989,4.6831 25.3639,4.3801 C25.4779,4.1651 25.6169,3.9631 25.8069,3.8361 C25.9969,3.7091 26.2999,3.6591 26.5269,3.6591 L26.5269,3.3541 L26.2119,3.3421 L25.3259,3.3801 L24.3779,3.3421 L24.0869,3.3541 L24.0869,3.6591 L24.2879,3.6711 C24.4289,3.6841 24.6819,3.7221 24.8069,3.8101 C24.8969,3.8731 24.9329,3.9371 24.9329,4.0501 C24.9329,4.1891 24.8709,4.3411 24.8199,4.4551 L23.4279,7.5541 L22.2399,4.4931 C22.0879,4.1151 22.0879,4.0251 22.0879,3.9871 C22.0879,3.9241 22.1129,3.8611 22.1769,3.8101 C22.2019,3.7981 22.2779,3.7341 22.4679,3.7221 L22.9869,3.6711 L22.9869,3.3541 L21.7219,3.3931 L20.4189,3.3421 L20.0399,3.3421 Z M27.7669,3.7091 C28.2219,3.6841 28.4119,3.7471 28.5119,3.8231 C28.6639,3.9491 28.6909,4.1771 28.6909,4.3171 C28.6909,4.6321 28.5759,5.3661 28.5379,5.5691 C28.4249,6.2271 28.2219,7.0221 28.0189,7.5031 C27.8929,7.7951 27.7159,8.0731 27.3869,8.2241 C27.2359,8.2871 26.9949,8.3511 26.8059,8.3641 L26.8059,10.3101 L27.1219,10.3101 C27.1599,9.8541 27.3109,9.3111 27.5889,9.0331 C27.7919,8.8171 27.9949,8.7921 28.1839,8.7921 L30.9279,8.7921 C31.1809,8.7921 31.5849,8.8431 31.8129,9.2861 C31.9399,9.5261 32.0029,9.9691 32.0029,10.3101 L32.3559,10.3101 L32.4699,8.3641 L32.0149,8.3641 C31.8249,8.3641 31.7369,8.2751 31.6989,8.2241 C31.6229,8.1231 31.6099,7.9591 31.6099,7.8331 L31.6099,4.0761 C31.6099,3.9241 31.6609,3.8231 31.8129,3.7341 C31.9519,3.6591 32.2309,3.6341 32.3809,3.6341 L32.3809,3.3421 C32.1549,3.3421 31.3579,3.3681 30.7769,3.3681 L29.3359,3.3681 C28.8289,3.3681 28.5009,3.3541 28.2719,3.3421 L27.7669,3.3421 L27.7669,3.7091 Z M30.7009,7.9961 C30.7009,8.2001 30.6249,8.2751 30.5999,8.3001 C30.5379,8.3511 30.4089,8.4021 30.0309,8.4021 L27.9059,8.4021 C28.1709,8.0981 28.3359,7.7951 28.4489,7.5161 C28.5759,7.2001 28.7279,6.5801 28.7659,6.4421 C28.9419,5.7451 28.9929,5.2651 29.0569,4.7841 C29.1329,4.1901 29.1449,4.0131 29.2589,3.8861 C29.3859,3.7341 29.5619,3.7601 29.7139,3.7601 L30.2829,3.7601 C30.3729,3.7601 30.5239,3.7601 30.6129,3.8481 C30.6879,3.9371 30.7009,4.1011 30.7009,4.2151 L30.7009,7.9961 Z M34.4869,4.7591 C34.4749,4.7451 34.4379,4.6701 34.4379,4.5571 C34.4379,4.4801 34.4629,4.3801 34.5379,4.2781 C34.6399,4.1651 34.8039,4.0761 34.9429,4.0371 C35.0569,4.0001 35.1969,3.9871 35.3609,3.9871 C35.7539,3.9871 36.0199,4.1011 36.1829,4.2651 C36.3729,4.4551 36.4109,4.7081 36.4109,4.8981 L36.4109,5.9101 L35.6269,6.1871 C35.0189,6.4021 34.5379,6.5541 34.1469,6.7821 C33.7429,7.0221 33.5789,7.2501 33.5789,7.6671 C33.5789,7.9831 33.7429,8.4511 33.9449,8.6661 C34.1349,8.8681 34.3739,8.9441 34.6139,8.9441 C34.9429,8.9441 35.2979,8.8171 35.6139,8.6021 C35.8679,8.4261 36.1959,8.1091 36.4239,7.8571 L36.4239,7.9451 C36.4239,8.1481 36.4509,8.4641 36.6139,8.6791 C36.8039,8.9181 37.0809,8.9441 37.2199,8.9441 C37.5869,8.9441 37.8259,8.7921 37.9649,8.6531 C38.1559,8.4641 38.2949,8.1481 38.3459,7.8571 L38.1689,7.7811 C38.1169,7.8941 38.0549,7.9951 37.9789,8.0591 C37.8899,8.1481 37.7889,8.1861 37.6499,8.1861 C37.5739,8.1861 37.4849,8.1721 37.4219,8.0971 C37.3849,8.0461 37.3209,7.9451 37.3209,7.6281 L37.3209,4.6951 C37.3209,4.3911 37.2829,3.9871 36.9419,3.6591 C36.6399,3.3681 36.0699,3.2161 35.6779,3.2031 L34.2729,4.0251 C34.1219,4.1131 33.8569,4.3041 33.7559,4.5061 C33.7049,4.5941 33.6799,4.7331 33.6799,4.8341 C33.6799,4.9101 33.6919,4.9981 33.7559,5.1761 L34.4869,4.7591 Z M36.4109,7.5031 C36.3349,7.5911 36.1339,7.8061 35.8799,8.0091 C35.7159,8.1351 35.4249,8.3371 35.1589,8.3371 C35.0069,8.3371 34.8039,8.2871 34.6519,8.0591 C34.5509,7.9071 34.4749,7.6551 34.4749,7.4651 C34.4749,7.1481 34.6519,6.9961 34.9049,6.8451 C35.0699,6.7441 35.3489,6.5921 35.8679,6.3901 L36.4109,6.1751 L36.4109,7.5031 Z M38.6679,11.9921 L38.9089,11.9921 C39.4779,11.9921 39.2869,11.9671 39.8939,11.9671 C40.3749,11.9671 41.1459,12.0431 41.6529,12.0431 L41.7919,12.0431 L41.7919,11.7521 C41.1079,11.7271 40.8799,11.6251 40.7779,11.5231 C40.6019,11.3481 40.6149,10.9681 40.6149,10.6891 L40.6149,8.9061 C41.5639,8.9561 42.0439,8.8931 42.4239,8.7931 C42.9939,8.6411 43.6389,8.2871 44.0559,7.8441 C44.3589,7.5291 44.8009,6.9211 44.8009,5.8831 C44.8009,4.7711 44.2719,4.1381 44.0179,3.8851 C43.6259,3.5061 43.1199,3.2911 42.6259,3.2911 C42.3739,3.2911 42.0569,3.3541 41.6529,3.5311 C41.3999,3.6441 40.9179,3.8971 40.6149,4.0741 L40.6149,3.2031 C40.1339,3.4311 39.5919,3.6841 38.9589,3.9491 L38.9589,4.1151 C39.1609,4.1651 39.4649,4.2911 39.5789,4.4431 C39.6669,4.5571 39.7049,4.7341 39.7049,4.9361 L39.7049,10.5251 C39.7049,11.0691 39.6409,11.2971 39.5409,11.4231 C39.3639,11.6391 38.9849,11.6891 38.6679,11.7011 L38.6679,11.9921 Z M40.6149,4.3921 C40.9559,4.1881 41.4489,3.9981 41.8929,3.9981 C42.3099,3.9981 42.7789,4.1501 43.1319,4.4921 C43.5379,4.8841 43.7909,5.5171 43.7909,6.2501 C43.7909,6.9591 43.5749,7.4911 43.1959,7.8701 C42.9799,8.0851 42.6139,8.3511 41.9679,8.3511 C41.7779,8.3511 41.5379,8.3271 41.3229,8.2631 C40.8299,8.1231 40.7279,7.9721 40.6769,7.8201 C40.6279,7.6681 40.6149,7.3771 40.6149,7.2121 L40.6149,4.3921 Z M50.5429,7.1881 C50.4799,7.2641 50.2399,7.5541 49.9229,7.7821 C49.6199,7.9961 49.3039,8.1231 48.9369,8.1231 C48.4559,8.1231 47.9889,7.9091 47.6599,7.5681 C47.2419,7.1491 46.9629,6.4791 46.9629,5.7081 C46.9629,5.1261 47.1539,4.4691 47.5459,4.0761 C47.8109,3.8231 48.1909,3.6591 48.5319,3.6591 C48.7349,3.6591 48.9109,3.7091 49.0889,3.8361 C49.3409,4.0251 49.3669,4.1901 49.6319,4.4691 C49.7589,4.6071 49.8729,4.6701 50.0619,4.6701 C50.3409,4.6701 50.5429,4.5181 50.5429,4.2031 C50.5429,3.9871 50.4539,3.8101 50.2899,3.6461 C50.2269,3.5831 49.8099,3.2031 48.9109,3.2031 C48.3299,3.2031 47.5709,3.3801 46.9259,4.0381 C46.3709,4.6071 46.0799,5.3281 46.0799,6.2381 C46.0799,7.2761 46.4709,7.9211 46.8879,8.3261 C47.4309,8.8431 48.0139,8.9441 48.4059,8.9441 C48.8859,8.9441 49.3159,8.7931 49.7219,8.5021 C50.1509,8.1871 50.5059,7.7571 50.7459,7.3521 L50.5429,7.1881 Z M52.8149,8.4641 L52.8149,8.7791 C53.6619,8.8171 53.7249,8.7551 54.7489,8.7551 C55.1029,8.7551 55.6459,8.7791 55.7859,8.7791 L55.7859,8.4511 L55.6719,8.4511 C55.4449,8.4511 55.0529,8.4641 54.8619,8.2611 C54.7109,8.0971 54.7109,7.7681 54.7109,7.4401 L54.7109,3.7331 L55.0269,3.7331 C55.3809,3.7331 55.8119,3.7201 56.0899,4.0111 C56.2919,4.2131 56.4309,4.6951 56.4689,5.0491 L56.8109,5.0491 L56.6459,3.3041 C55.4819,3.3291 55.3939,3.3421 55.1659,3.3421 L53.3969,3.3421 C53.1319,3.3421 52.7899,3.3291 51.8409,3.3041 L51.6769,5.0491 L52.0179,5.0491 C52.0559,4.6951 52.1949,4.2131 52.3979,4.0111 C52.6759,3.7201 53.1059,3.7331 53.4599,3.7331 L53.7769,3.7331 L53.7769,7.5901 C53.7769,7.7921 53.7769,8.0971 53.6119,8.2741 C53.4229,8.4761 53.0559,8.4641 52.8909,8.4641 L52.8149,8.4641 Z M57.8429,3.3171 L57.8429,3.6701 C58.2729,3.6951 58.5009,3.7581 58.6139,3.8721 C58.7289,3.9731 58.7289,4.0751 58.7289,4.2141 L58.7289,7.5281 C58.7289,7.8951 58.7159,8.0351 58.6639,8.1361 C58.6019,8.2631 58.5009,8.3001 58.3859,8.3271 C58.2599,8.3641 58.2229,8.3761 58.0709,8.4021 C57.9059,8.4141 57.9559,8.4141 57.8679,8.4271 L57.8679,8.7791 L57.9819,8.7791 L58.2729,8.7791 C58.3619,8.7791 58.4379,8.7671 58.5249,8.7671 C58.7029,8.7551 58.8929,8.7551 59.0689,8.7551 C59.1699,8.7551 59.2839,8.7421 59.3849,8.7421 C59.7509,8.7421 59.8649,8.7421 60.0049,8.7551 C60.2199,8.7671 60.5479,8.7791 60.8649,8.7791 C61.5109,8.7791 62.1429,8.7291 62.5859,8.2631 C62.7369,8.0981 62.9519,7.7821 62.9519,7.3131 C62.9519,6.9091 62.7859,6.5921 62.5719,6.3901 C62.2939,6.1101 61.8029,5.9351 61.4349,5.8841 L61.4349,5.8471 C61.7759,5.8211 62.0169,5.6951 62.1049,5.6311 C62.4969,5.3781 62.6229,4.9981 62.6229,4.6701 C62.6229,4.3281 62.4589,3.9981 62.2179,3.7711 C61.7759,3.3421 61.1059,3.2911 60.5239,3.2911 C60.1439,3.2911 59.7379,3.3171 59.3219,3.3291 C58.7909,3.3421 58.8039,3.3171 58.1969,3.3171 L57.8429,3.3171 Z M59.6619,6.1491 C59.8899,6.1101 60.0419,6.1101 60.2689,6.1101 C60.7129,6.1101 61.2709,6.1231 61.6749,6.5031 C61.8649,6.6801 62.0039,6.9461 62.0039,7.2501 C62.0039,7.5661 61.8649,7.8951 61.6749,8.0851 C61.3469,8.4141 60.8269,8.4391 60.4349,8.4391 C60.2449,8.4391 59.9539,8.4271 59.8009,8.2501 C59.6879,8.1111 59.6619,7.8191 59.6619,7.6041 L59.6619,6.1491 Z M59.6619,4.0621 C59.6619,3.9871 59.6749,3.8091 59.7769,3.7081 C59.8899,3.5941 60.1049,3.6061 60.2199,3.6061 C60.6239,3.6061 61.0159,3.6061 61.3469,3.8971 C61.6379,4.1631 61.6749,4.5171 61.6749,4.7071 C61.6749,5.0111 61.6109,5.2771 61.3589,5.4921 C61.0299,5.7711 60.5619,5.7961 60.2829,5.7961 C60.0679,5.7961 59.7509,5.7711 59.6619,5.7711 L59.6619,4.0621 Z M68.6049,5.4531 C68.6929,4.5171 68.3649,3.9871 68.0359,3.6821 C67.7329,3.4051 67.2779,3.2031 66.7219,3.2031 C66.1519,3.2031 65.6079,3.4051 65.1149,3.8851 C64.4949,4.4931 64.1409,5.3901 64.1409,6.3641 C64.1409,7.3001 64.4829,7.9571 64.8999,8.3501 C65.2539,8.6911 65.8099,8.9441 66.4169,8.9441 C66.9109,8.9441 67.3789,8.7921 67.8229,8.4761 C68.1249,8.2611 68.4149,7.9701 68.6549,7.6161 L68.4779,7.4131 C68.3149,7.5791 68.0869,7.7681 67.8719,7.9071 C67.6069,8.0701 67.3029,8.1861 66.9489,8.1861 C66.5189,8.1861 66.1009,8.0201 65.7219,7.6541 C65.4689,7.4011 65.3159,7.1481 65.2029,6.8441 C65.1009,6.5661 65.0249,6.2121 65.0249,5.8831 C65.0249,5.7441 65.0379,5.5801 65.0629,5.4531 L68.6049,5.4531 Z M65.1149,5.1011 C65.1899,4.7331 65.3799,4.2521 65.6579,3.9601 C65.8849,3.7211 66.1899,3.5691 66.5319,3.5691 C66.8349,3.5691 67.1259,3.6821 67.3159,3.8731 C67.5319,4.0881 67.6069,4.3291 67.6069,4.6321 C67.6069,4.7331 67.5939,4.8471 67.5179,4.9491 C67.3919,5.1011 67.2019,5.1011 67.0619,5.1011 L65.1149,5.1011 Z M69.6729,8.7921 C70.0649,8.7551 70.6089,8.7291 71.0129,8.7291 C71.3409,8.7291 71.8209,8.7551 72.1759,8.7791 L72.1759,8.4761 C71.9099,8.4891 71.6699,8.4011 71.5429,8.3111 C71.4929,8.2741 71.4539,8.2241 71.4289,8.1091 C71.4039,7.9831 71.4039,7.7811 71.4039,7.8701 L71.4039,7.9201 L71.4039,6.0741 L74.5169,6.0741 L74.5169,7.8311 C74.5169,7.9701 74.5169,8.1091 74.3649,8.2481 C74.2259,8.3741 73.9219,8.4511 73.6939,8.4641 L73.6939,8.7921 C74.0869,8.7551 74.6299,8.7291 75.0349,8.7291 C75.3639,8.7291 75.8439,8.7551 76.1979,8.7791 L76.1979,8.4761 C75.9829,8.4891 75.6789,8.4261 75.5659,8.3111 C75.4389,8.1861 75.4259,8.0091 75.4259,7.8571 L75.4259,4.2781 C75.4259,4.1391 75.4259,4.0001 75.5779,3.8611 C75.7169,3.7341 76.0199,3.6591 76.2489,3.6461 L76.2489,3.3171 C75.8559,3.3541 75.3119,3.3801 74.9089,3.3801 C74.5799,3.3801 74.0989,3.3541 73.7449,3.3291 L73.7449,3.6331 C73.9599,3.6211 74.2639,3.6841 74.3779,3.7981 C74.5039,3.9241 74.5169,4.1131 74.5169,4.2411 L74.5169,5.6831 L71.4039,5.6831 L71.4039,4.2781 C71.4039,4.1391 71.4039,4.0001 71.5559,3.8611 C71.6959,3.7341 71.9989,3.6591 72.2259,3.6461 L72.2259,3.3171 C71.8349,3.3541 71.2899,3.3801 70.8859,3.3801 C70.5579,3.3801 70.0769,3.3541 69.7229,3.3291 L69.7229,3.6331 C69.9379,3.6211 70.2419,3.6841 70.3559,3.7981 C70.4829,3.9241 70.4949,4.1131 70.4949,4.2411 L70.4949,7.8311 C70.4949,7.9701 70.4949,8.1091 70.3439,8.2481 C70.2049,8.3741 69.8999,8.4511 69.6729,8.4641 L69.6729,8.7921 Z M77.3819,8.7921 C77.7739,8.7551 78.3169,8.7291 78.7219,8.7291 C79.0499,8.7291 79.5309,8.7551 79.8849,8.7791 L79.8849,8.4761 C79.6189,8.4891 79.3789,8.4011 79.2519,8.3111 C79.2019,8.2741 79.1639,8.2241 79.1379,8.1091 C79.1129,7.9831 79.1129,7.7811 79.1129,7.8701 L79.1129,7.9201 L79.1129,6.0741 L82.2259,6.0741 L82.2259,7.8311 C82.2259,7.9701 82.2259,8.1091 82.0749,8.2481 C81.9349,8.3741 81.6309,8.4511 81.4039,8.4641 L81.4039,8.7921 C81.7959,8.7551 82.3399,8.7291 82.7439,8.7291 C83.0719,8.7291 83.5519,8.7551 83.9059,8.7791 L83.9059,8.4761 C83.6909,8.4891 83.3889,8.4261 83.2739,8.3111 C83.1479,8.1861 83.1339,8.0091 83.1339,7.8571 L83.1339,4.2781 C83.1339,4.1391 83.1339,4.0001 83.2869,3.8611 C83.4259,3.7341 83.7299,3.6591 83.9569,3.6461 L83.9569,3.3171 C83.5659,3.3541 83.0209,3.3801 82.6179,3.3801 C82.2889,3.3801 81.8089,3.3541 81.4539,3.3291 L81.4539,3.6331 C81.6699,3.6211 81.9729,3.6841 82.0869,3.7981 C82.2129,3.9241 82.2259,4.1131 82.2259,4.2411 L82.2259,5.6831 L79.1129,5.6831 L79.1129,4.2781 C79.1129,4.1391 79.1129,4.0001 79.2649,3.8611 C79.4029,3.7341 79.7069,3.6591 79.9349,3.6461 L79.9349,3.3171 C79.5429,3.3541 78.9989,3.3801 78.5959,3.3801 C78.2669,3.3801 77.7859,3.3541 77.4319,3.3291 L77.4319,3.6331 C77.6469,3.6211 77.9519,3.6841 78.0649,3.7981 C78.1909,3.9241 78.2039,4.1131 78.2039,4.2411 L78.2039,7.8311 C78.2039,7.9701 78.2039,8.1091 78.0509,8.2481 C77.9129,8.3741 77.6089,8.4511 77.3819,8.4641 L77.3819,8.7921 Z M90.2519,8.7921 C90.5289,8.7671 91.0979,8.7291 91.4649,8.7291 C91.7549,8.7291 92.2729,8.7551 92.6269,8.7791 L92.6269,8.4771 C92.4119,8.4901 92.1089,8.4271 91.9949,8.3131 C91.8689,8.1871 91.8559,7.9961 91.8559,7.8701 L91.8559,4.2781 C91.8559,4.1391 91.8559,4.0001 92.0069,3.8611 C92.1469,3.7341 92.4499,3.6591 92.6789,3.6461 L92.6789,3.3171 C92.2859,3.3541 91.7419,3.3801 91.3379,3.3801 C91.0099,3.3801 90.5289,3.3541 90.1749,3.3291 L90.1749,3.6341 C90.3899,3.6211 90.6939,3.6841 90.8069,3.7981 C90.9339,3.9241 90.9469,4.1151 90.9469,4.2411 L90.9469,7.8321 C90.9469,7.9721 90.9339,8.1231 90.7949,8.2631 C90.6559,8.4021 90.4159,8.4651 90.2519,8.4651 L90.2519,8.7921 Z M86.8589,6.0101 C87.0879,5.9471 87.2649,5.9341 87.5309,5.9341 C87.8729,5.9341 88.3029,5.9591 88.6189,6.1991 C88.7959,6.3391 89.0109,6.6041 89.0109,7.1111 C89.0109,7.4911 88.8589,7.8441 88.6569,8.0601 C88.3149,8.4141 87.8349,8.4141 87.5809,8.4141 C87.4539,8.4141 87.1499,8.4021 86.9989,8.2241 C86.8849,8.0851 86.8589,7.7951 86.8589,7.5791 L86.8589,6.0101 Z M85.1789,3.6341 C85.3939,3.6211 85.6979,3.6841 85.8119,3.7981 C85.9379,3.9241 85.9509,4.1151 85.9509,4.2151 L85.9509,7.5281 C85.9509,7.8951 85.9379,8.0351 85.8879,8.1361 C85.8239,8.2631 85.7229,8.3001 85.6089,8.3271 C85.4829,8.3641 85.4439,8.3761 85.2929,8.4021 C85.1279,8.4141 85.1789,8.4141 85.0909,8.4271 L85.0909,8.7791 L85.2049,8.7791 L85.4959,8.7791 C85.5829,8.7791 85.6589,8.7671 85.7479,8.7671 C85.9259,8.7551 86.1149,8.7551 86.2919,8.7551 C86.3929,8.7551 86.5059,8.7421 86.6079,8.7421 C86.9109,8.7421 86.9869,8.7421 87.1499,8.7551 C87.3659,8.7671 87.6819,8.7791 87.9989,8.7791 C88.8849,8.7791 89.3519,8.4901 89.5929,8.2241 C89.7959,7.9961 89.9469,7.6171 89.9469,7.1611 C89.9469,6.7441 89.8209,6.3901 89.5299,6.0981 C89.1499,5.7201 88.5299,5.5431 87.9229,5.5431 C87.6059,5.5431 87.1889,5.5931 86.8589,5.6691 L86.8589,4.2781 C86.8589,4.1391 86.8589,4.0001 87.0109,3.8611 C87.1499,3.7341 87.4539,3.6591 87.6819,3.6461 L87.6819,3.3171 C87.2899,3.3541 86.7459,3.3801 86.3429,3.3801 C86.0129,3.3801 85.5329,3.3541 85.1789,3.3291 L85.1789,3.6341 Z M93.8119,8.7921 C94.2039,8.7551 94.7469,8.7291 95.1509,8.7291 C95.4799,8.7291 95.9609,8.7551 96.3149,8.7791 L96.3149,8.4761 C96.0999,8.4891 95.7959,8.4261 95.6819,8.3111 C95.5939,8.2351 95.5429,8.0841 95.5429,7.9201 L95.5429,7.6551 L98.6559,4.9481 L98.6559,7.8311 C98.6559,7.9701 98.6559,8.1091 98.5039,8.2481 C98.3649,8.3741 98.0609,8.4511 97.8329,8.4641 L97.8329,8.7921 C98.2259,8.7551 98.7699,8.7291 99.1739,8.7291 C99.5019,8.7291 99.9819,8.7551 100.3359,8.7791 L100.3359,8.4761 C100.1469,8.4891 99.8949,8.4381 99.7799,8.3631 C99.5649,8.2241 99.5649,8.0091 99.5649,7.8571 L99.5649,4.2781 C99.5649,4.1391 99.5649,4.0001 99.7169,3.8611 C99.8559,3.7341 100.1599,3.6591 100.3879,3.6461 L100.3879,3.3171 C99.9949,3.3541 99.4509,3.3801 99.0479,3.3801 C98.7189,3.3801 98.2389,3.3541 97.8839,3.3291 L97.8839,3.6331 C98.0989,3.6211 98.4029,3.6841 98.5169,3.7981 C98.6429,3.9241 98.6559,4.1131 98.6559,4.2411 L98.6559,4.4681 L95.5429,7.1741 L95.5429,4.2781 C95.5429,4.1391 95.5429,4.0001 95.6949,3.8611 C95.8339,3.7341 96.1369,3.6591 96.3649,3.6461 L96.3649,3.3171 C95.9729,3.3541 95.4289,3.3801 95.0249,3.3801 C94.6969,3.3801 94.2159,3.3541 93.8619,3.3291 L93.8619,3.6331 C94.0769,3.6211 94.3809,3.6841 94.4949,3.7981 C94.6199,3.9241 94.6339,4.1131 94.6339,4.2411 L94.6339,7.8311 C94.6339,7.9701 94.6339,8.1091 94.4819,8.2481 C94.3429,8.3741 94.0389,8.4511 93.8119,8.4641 L93.8119,8.7921 Z M98.6559,0.2811 C98.5929,0.4461 98.5039,0.5851 98.4029,0.7111 C98.2759,0.8761 98.0609,1.0921 97.8459,1.2301 C97.5429,1.4201 97.2639,1.4571 97.0489,1.4571 C96.8339,1.4571 96.7449,1.4201 96.7189,1.4071 C96.5559,1.3311 96.5559,1.2041 96.5559,1.1671 C96.5559,1.0921 96.5669,1.0401 96.5929,0.9771 C96.6189,0.9141 96.6309,0.8501 96.6309,0.7751 C96.6309,0.6611 96.5799,0.5101 96.4799,0.4081 C96.3909,0.3191 96.2519,0.2561 96.0619,0.2561 C95.9609,0.2561 95.7829,0.2811 95.6439,0.4331 C95.5309,0.5601 95.4799,0.7491 95.4799,0.9011 C95.4799,1.1671 95.6179,1.4571 95.8969,1.6471 C96.2259,1.8611 96.7079,1.8741 96.8339,1.8741 C97.0109,1.8741 97.3899,1.8611 97.7699,1.6981 C97.8839,1.6471 98.1999,1.4951 98.4909,1.1671 C98.6819,0.9521 98.8329,0.7111 98.9339,0.4461 L98.6559,0.2811 Z M113.5929,3.3421 L113.5929,3.6711 L113.7189,3.6711 C113.9209,3.6711 114.1989,3.6841 114.4279,3.8861 C114.5669,4.0131 114.7049,4.2281 114.9459,4.8471 L116.4639,8.7181 L116.2489,9.1851 C115.9329,9.8801 115.7679,10.1841 115.6549,10.3731 C115.4899,10.6391 115.3749,10.7661 115.2999,10.8411 C115.1609,10.9801 115.0219,11.0431 114.8439,11.0431 C114.7939,11.0431 114.7309,11.0431 114.6799,11.0311 C114.6289,11.0181 114.5669,11.0181 114.5159,11.0181 C114.3639,11.0181 114.2369,11.0691 114.1369,11.1951 C114.0599,11.2971 114.0229,11.4111 114.0229,11.5231 C114.0229,11.6511 114.0859,11.7901 114.1489,11.8671 C114.2369,11.9671 114.3899,12.0431 114.5669,12.0431 C114.8949,12.0431 115.1359,11.8541 115.3129,11.6631 C115.4899,11.4741 115.6669,11.1951 115.9329,10.7021 C116.2359,10.1201 116.5269,9.5021 116.9819,8.4891 C117.7029,6.9091 117.9819,6.3021 118.1959,5.8341 C118.3599,5.4801 118.7519,4.6831 118.9169,4.3801 C119.0309,4.1651 119.1709,3.9631 119.3599,3.8361 C119.5499,3.7091 119.8529,3.6591 120.0819,3.6591 L120.0819,3.3541 L119.7649,3.3421 L118.8799,3.3801 L117.9309,3.3421 L117.6389,3.3541 L117.6389,3.6591 L117.8419,3.6711 C117.9819,3.6841 118.2349,3.7221 118.3599,3.8101 C118.4499,3.8731 118.4869,3.9371 118.4869,4.0501 C118.4869,4.1891 118.4239,4.3411 118.3739,4.4551 L116.9819,7.5541 L115.7939,4.4931 C115.6419,4.1151 115.6419,4.0251 115.6419,3.9871 C115.6419,3.9241 115.6669,3.8611 115.7299,3.8101 C115.7549,3.7981 115.8309,3.7341 116.0199,3.7221 L116.5399,3.6711 L116.5399,3.3541 L115.2749,3.3931 L113.9719,3.3421 L113.5929,3.3421 Z M120.9049,7.3011 C120.9539,7.6941 120.9539,7.9091 120.9799,8.4391 C121.2959,8.6421 121.8909,8.9441 122.8259,8.9441 C123.2189,8.9441 123.7239,8.8931 124.0909,8.7051 C124.3429,8.5791 124.5969,8.3761 124.7859,8.0851 C124.9499,7.8331 125.0379,7.5791 125.0379,7.2381 C125.0379,6.8711 124.9369,6.5551 124.6719,6.3031 C124.4569,6.0991 124.0529,5.8721 123.5089,5.8341 C123.6229,5.8211 123.9649,5.7451 124.2929,5.5311 C124.6089,5.3161 124.8229,5.0371 124.8229,4.6071 C124.8229,4.3041 124.7359,3.8611 124.2299,3.5321 C123.7879,3.2411 123.2689,3.2031 122.8649,3.2031 C122.4209,3.2031 121.9029,3.2541 121.1829,3.5581 C121.2199,3.9751 121.2329,4.3671 121.2199,4.7221 L121.4729,4.7221 C121.4849,4.5691 121.5239,4.2911 121.7389,4.0251 C122.0549,3.6461 122.4339,3.5961 122.7889,3.5961 C122.9779,3.5961 123.1929,3.6081 123.4339,3.7471 C123.7499,3.9371 123.8759,4.2411 123.8759,4.6201 C123.8759,5.0251 123.6989,5.2771 123.5349,5.4161 C123.2189,5.6951 122.7889,5.7081 122.4209,5.7081 L122.2059,5.7081 L122.1439,6.1251 C122.4339,6.0881 123.2189,6.0371 123.6479,6.3901 C123.9519,6.6441 124.0019,6.9981 124.0019,7.2641 C124.0019,7.7821 123.7999,8.0981 123.6109,8.2631 C123.3949,8.4531 123.0289,8.5541 122.6739,8.5541 C122.2199,8.5541 121.8269,8.3761 121.6239,8.1611 C121.4219,7.9461 121.2699,7.5541 121.2199,7.2641 L120.9049,7.3011 Z M130.7789,5.4531 C130.8679,4.5171 130.5389,3.9871 130.2109,3.6821 C129.9079,3.4051 129.4519,3.2031 128.8959,3.2031 C128.3269,3.2031 127.7819,3.4051 127.2879,3.8851 C126.6689,4.4931 126.3159,5.3901 126.3159,6.3641 C126.3159,7.3001 126.6569,7.9571 127.0729,8.3501 C127.4269,8.6911 127.9839,8.9441 128.5919,8.9441 C129.0859,8.9441 129.5539,8.7921 129.9959,8.4761 C130.2989,8.2611 130.5899,7.9701 130.8299,7.6161 L130.6529,7.4131 C130.4879,7.5791 130.2619,7.7681 130.0459,7.9071 C129.7809,8.0701 129.4779,8.1861 129.1229,8.1861 C128.6929,8.1861 128.2749,8.0201 127.8949,7.6541 C127.6419,7.4011 127.4899,7.1481 127.3769,6.8441 C127.2749,6.5661 127.1999,6.2121 127.1999,5.8831 C127.1999,5.7441 127.2119,5.5801 127.2379,5.4531 L130.7789,5.4531 Z M127.2879,5.1011 C127.3639,4.7331 127.5549,4.2521 127.8329,3.9601 C128.0609,3.7211 128.3649,3.5691 128.7049,3.5691 C129.0099,3.5691 129.3009,3.6821 129.4899,3.8731 C129.7059,4.0881 129.7809,4.3291 129.7809,4.6321 C129.7809,4.7331 129.7689,4.8471 129.6929,4.9491 C129.5659,5.1011 129.3769,5.1011 129.2369,5.1011 L127.2879,5.1011 Z M131.8829,8.7921 C132.2749,8.7551 132.8189,8.7291 133.2219,8.7291 C133.5499,8.7291 134.0309,8.7551 134.3859,8.7791 L134.3859,8.4761 C134.1699,8.4891 133.8659,8.4261 133.7529,8.3111 C133.6649,8.2351 133.6139,8.0841 133.6139,7.9201 L133.6139,7.6551 L136.7269,4.9481 L136.7269,7.8311 C136.7269,7.9701 136.7269,8.1091 136.5739,8.2481 C136.4359,8.3741 136.1319,8.4511 135.9039,8.4641 L135.9039,8.7921 C136.2969,8.7551 136.8399,8.7291 137.2439,8.7291 C137.5729,8.7291 138.0529,8.7551 138.4069,8.7791 L138.4069,8.4761 C138.2179,8.4891 137.9649,8.4381 137.8499,8.3631 C137.6349,8.2241 137.6349,8.0091 137.6349,7.8571 L137.6349,4.2781 C137.6349,4.1391 137.6349,4.0001 137.7879,3.8611 C137.9269,3.7341 138.2299,3.6591 138.4579,3.6461 L138.4579,3.3171 C138.0649,3.3541 137.5219,3.3801 137.1179,3.3801 C136.7899,3.3801 136.3089,3.3541 135.9549,3.3291 L135.9549,3.6331 C136.1699,3.6211 136.4739,3.6841 136.5879,3.7981 C136.7129,3.9241 136.7269,4.1131 136.7269,4.2411 L136.7269,4.4681 L133.6139,7.1741 L133.6139,4.2781 C133.6139,4.1391 133.6139,4.0001 133.7659,3.8611 C133.9049,3.7341 134.2089,3.6591 134.4349,3.6461 L134.4349,3.3171 C134.0439,3.3541 133.4999,3.3801 133.0959,3.3801 C132.7669,3.3801 132.2869,3.3541 131.9319,3.3291 L131.9319,3.6331 C132.1479,3.6211 132.4519,3.6841 132.5649,3.7981 C132.6919,3.9241 132.7039,4.1131 132.7039,4.2411 L132.7039,7.8311 C132.7039,7.9701 132.7039,8.1091 132.5529,8.2481 C132.4129,8.3741 132.1099,8.4511 131.8829,8.4641 L131.8829,8.7921 Z M136.7269,0.2811 C136.6629,0.4461 136.5739,0.5851 136.4739,0.7111 C136.3469,0.8761 136.1319,1.0921 135.9169,1.2301 C135.6129,1.4201 135.3349,1.4571 135.1199,1.4571 C134.9049,1.4571 134.8159,1.4201 134.7899,1.4071 C134.6269,1.3311 134.6269,1.2041 134.6269,1.1671 C134.6269,1.0921 134.6389,1.0401 134.6639,0.9771 C134.6889,0.9141 134.7019,0.8501 134.7019,0.7751 C134.7019,0.6611 134.6499,0.5101 134.5499,0.4081 C134.4609,0.3191 134.3219,0.2561 134.1329,0.2561 C134.0309,0.2561 133.8539,0.2811 133.7139,0.4331 C133.6009,0.5601 133.5499,0.7491 133.5499,0.9011 C133.5499,1.1671 133.6899,1.4571 133.9679,1.6471 C134.2959,1.8611 134.7779,1.8741 134.9049,1.8741 C135.0809,1.8741 135.4609,1.8611 135.8409,1.6981 C135.9549,1.6471 136.2709,1.4951 136.5619,1.1671 C136.7519,0.9521 136.9029,0.7111 137.0049,0.4461 L136.7269,0.2811 Z" id="Fill-9"></path>
                        <path d="M105.2686,3.6084 C105.4576,3.6214 105.6856,3.6584 105.8886,3.7474 C106.0146,3.8104 106.1426,3.8734 106.2556,3.9884 L106.2556,4.4804 L106.2556,4.7214 C106.2556,5.1894 106.2296,5.4544 106.2176,5.8084 C106.1786,6.5804 106.2046,6.8334 106.1156,7.7564 C106.1036,7.9074 106.0796,8.1224 105.9516,8.2614 C105.9006,8.3124 105.7366,8.4634 105.2186,8.4764 L105.2186,8.7934 L106.0656,8.7934 C106.1926,8.7934 106.3316,8.7794 106.4566,8.7794 C106.5706,8.7794 106.6706,8.7934 106.7856,8.7934 C106.9246,8.8044 107.0756,8.8044 107.2156,8.8044 L107.2156,8.4764 C107.0376,8.4894 106.7726,8.4514 106.6586,8.3504 C106.5436,8.2494 106.5326,8.1224 106.5326,7.9954 C106.5196,7.5414 106.5076,7.3254 106.5326,6.6804 C106.5436,6.4154 106.5576,6.1504 106.5706,5.8834 C106.5946,5.4034 106.5946,4.9114 106.6076,4.4304 C107.0376,5.2644 107.3416,5.9604 107.6956,6.8584 L108.5056,8.8804 L108.7586,8.9194 C108.9996,8.2874 109.2146,7.7684 110.8846,3.9624 L110.9476,7.8324 C110.9476,8.0844 110.8466,8.2114 110.8346,8.2244 C110.7326,8.3374 110.4546,8.4004 110.2516,8.4124 L110.2396,8.7544 C110.7196,8.7934 110.8596,8.7414 111.4776,8.7414 C111.9716,8.7414 111.9076,8.7674 112.6286,8.7544 L112.6286,8.4264 L112.5896,8.4264 C112.4016,8.4264 112.1356,8.4124 111.9966,8.2614 C111.8316,8.0844 111.8446,7.7054 111.8446,7.4144 L111.7816,4.1654 C111.7816,4.0124 111.7816,3.8734 111.9076,3.7474 C112.0086,3.6464 112.1976,3.5954 112.5016,3.6334 L112.5016,3.3164 L112.2106,3.3164 C111.9446,3.3164 111.6796,3.3424 111.4146,3.3424 C111.2626,3.3424 111.1116,3.3164 110.9606,3.3164 L110.7716,3.3164 L109.9606,5.1634 C109.8346,5.4544 109.7076,5.7584 109.5806,6.0494 C109.5176,6.1884 109.4676,6.3144 109.4036,6.4534 C109.2656,6.7694 109.2146,6.8964 108.9486,7.5034 L108.8856,7.5034 C107.9606,5.3024 107.7456,4.7084 107.4936,4.1274 L107.1386,3.3164 L106.7476,3.3164 C106.6456,3.3164 106.5326,3.3294 106.4326,3.3294 C106.3186,3.3424 106.2046,3.3424 106.0906,3.3424 C105.9386,3.3424 105.7866,3.3294 105.2686,3.3164 L105.2686,3.6084 Z" id="Fill-11"></path>
                    </g>
                </g>
            </g>
        </g>
    </g>
</svg>