<?xml version="1.0" encoding="utf-8"?>
<!-- Generator: Adobe Illustrator 21.0.0, SVG Export Plug-In . SVG Version: 6.00 Build 0)  -->
<svg version="1.1" id="Слой_1" xmlns="http://www.w3.org/2000/svg" xmlns:xlink="http://www.w3.org/1999/xlink" x="0px" y="0px"
	 viewBox="0 0 32 32" style="enable-background:new 0 0 32 32;" xml:space="preserve">
<style type="text/css">
	.st0{fill:#A8A8A8;}
</style>
<title>Page 1</title>
<desc>Created with Sketch.</desc>
<g id="Page-1_1_">
	<g id="collection-item-2-1024" transform="translate(-774.000000, -1115.000000)">
		<g id="Page-1" transform="translate(774.000000, 1115.000000)">
			<g id="Group-5">
				<path class="st0" d="M31.5,32c-0.1,0-0.3,0-0.4-0.1l-11-11.1c-0.2-0.2-0.2-0.5,0-0.7c0.2-0.2,0.5-0.2,0.7,0l11,11.1
					c0.2,0.2,0.2,0.5,0,0.7C31.7,32,31.6,32,31.5,32z"/>
				<path class="st0" d="M12,24C5.4,24,0,18.6,0,12C0,5.4,5.4,0,12,0c6.6,0,12,5.4,12,12C24,18.6,18.6,24,12,24z M12,1
					C5.9,1,1,5.9,1,12c0,6.1,4.9,11,11,11s11-4.9,11-11C23,5.9,18.1,1,12,1z"/>
			</g>
			<path class="st0" d="M11.8,17.7c-0.3,0-0.5-0.2-0.5-0.5v-4.7H6.6c-0.3,0-0.5-0.2-0.5-0.5s0.2-0.5,0.5-0.5h4.7V6.8
				c0-0.3,0.2-0.5,0.5-0.5s0.5,0.2,0.5,0.5v4.7h4.7c0.3,0,0.5,0.2,0.5,0.5s-0.2,0.5-0.5,0.5h-4.7v4.7C12.3,17.5,12.1,17.7,11.8,17.7
				z"/>
		</g>
	</g>
</g>
</svg>
