<?xml version="1.0" standalone="no"?>
<!DOCTYPE svg PUBLIC "-//W3C//DTD SVG 1.1//EN" "http://www.w3.org/Graphics/SVG/1.1/DTD/svg11.dtd" >
<svg xmlns="http://www.w3.org/2000/svg">
<metadata>Generated by IcoMoon</metadata>
<defs>
<font id="icomoon" horiz-adv-x="1024">
<font-face units-per-em="1024" ascent="960" descent="-64" />
<missing-glyph horiz-adv-x="1024" />
<glyph unicode="&#x20;" horiz-adv-x="512" d="" />
<glyph unicode="&#xe900;" glyph-name="zoomout" d="M1008-64c-3.2 0-9.6 0-12.8 3.2l-352 355.2c-6.4 6.4-6.4 16 0 22.4s16 6.4 22.4 0l352-355.2c6.4-6.4 6.4-16 0-22.4-3.2-3.2-6.4-3.2-9.6-3.2zM384 192c-211.2 0-384 172.8-384 384s172.8 384 384 384c211.2 0 384-172.8 384-384s-172.8-384-384-384zM384 928c-195.2 0-352-156.8-352-352s156.8-352 352-352 352 156.8 352 352c0 195.2-156.8 352-352 352zM547.2 560h-336c-9.6 0-16 6.4-16 16s6.4 16 16 16h336c9.6 0 16-6.4 16-16s-9.6-16-16-16z" />
<glyph unicode="&#xe901;" glyph-name="zoom" d="M1008-64c-3.2 0-9.6 0-12.8 3.2l-352 355.2c-6.4 6.4-6.4 16 0 22.4s16 6.4 22.4 0l352-355.2c6.4-6.4 6.4-16 0-22.4-3.2-3.2-6.4-3.2-9.6-3.2zM384 192c-211.2 0-384 172.8-384 384s172.8 384 384 384c211.2 0 384-172.8 384-384s-172.8-384-384-384zM384 928c-195.2 0-352-156.8-352-352s156.8-352 352-352 352 156.8 352 352c0 195.2-156.8 352-352 352zM377.6 393.6c-9.6 0-16 6.4-16 16v150.4h-150.4c-9.6 0-16 6.4-16 16s6.4 16 16 16h150.4v150.4c0 9.6 6.4 16 16 16s16-6.4 16-16v-150.4h150.4c9.6 0 16-6.4 16-16s-6.4-16-16-16h-150.4v-150.4c0-9.6-6.4-16-16-16z" />
<glyph unicode="&#xe902;" glyph-name="status-ok" horiz-adv-x="1152" d="M512-64c-281.6 0-512 230.4-512 512s230.4 512 512 512 512-230.4 512-512-230.4-512-512-512zM512 896c-249.6 0-448-198.4-448-448s198.4-448 448-448c249.6 0 448 198.4 448 448s-198.4 448-448 448zM505.6 313.6c-19.2 0-32 6.4-44.8 19.2l-236.8 243.2c-12.8 12.8-12.8 32 0 44.8s32 12.8 44.8 0l243.2-243.2 569.6 556.8c12.8 12.8 32 12.8 44.8 0s12.8-32 0-44.8l-576-556.8c-6.4-12.8-25.6-19.2-44.8-19.2z" />
<glyph unicode="&#xe903;" glyph-name="search" d="M390.095 184.686c-214.552 0-390.095 175.543-390.095 390.095s175.543 390.095 390.095 390.095c214.552 0 390.095-175.543 390.095-390.095 0-219.429-175.543-390.095-390.095-390.095zM390.095 911.238c-190.171 0-341.333-151.162-341.333-341.333 0-185.295 151.162-341.333 341.333-341.333s341.333 151.162 341.333 341.333c0 190.171-151.162 341.333-341.333 341.333zM999.619-64c-4.876 0-14.629 0-19.505 4.876l-346.21 355.962c-9.752 9.752-9.752 24.381 0 34.133s24.381 9.752 34.133 0l351.086-351.086c9.752-9.752 9.752-24.381 0-34.133-4.876-9.752-14.629-9.752-19.505-9.752z" />
<glyph unicode="&#xe904;" glyph-name="share" horiz-adv-x="1195" d="M1100.8-64h-1006.933c-51.2 0-93.867 42.667-93.867 93.867v221.867c0 25.6 17.067 42.667 42.667 42.667s42.667-17.067 42.667-42.667v-221.867c0-8.533 0-8.533 8.533-8.533h1006.933c0 0 8.533 0 8.533 8.533v221.867c0 25.6 17.067 42.667 42.667 42.667s42.667-17.067 42.667-42.667v-221.867c0-51.2-42.667-93.867-93.867-93.867zM896 584.533c-8.533 0-17.067 0-25.6 8.533l-273.067 264.533c-85.333-85.333-170.667-170.667-247.467-256-17.067-17.067-42.667-17.067-59.733 0s-17.067 42.667 0 59.733c85.333 85.333 170.667 179.2 256 264.533l25.6 25.6c8.533 8.533 34.133 8.533 51.2 0l298.667-290.133c17.067-17.067 17.067-42.667 0-59.733-8.533-17.067-17.067-17.067-25.6-17.067zM597.333 200.533c-25.6 0-42.667 17.067-42.667 42.667v580.267c0 25.6 17.067 42.667 42.667 42.667s42.667-17.067 42.667-42.667v-588.8c0-17.067-17.067-34.133-42.667-34.133z" />
<glyph unicode="&#xe905;" glyph-name="arrow-left" horiz-adv-x="546" d="M505.173-61.724c-6.827 0-11.378 2.276-15.929 6.827l-475.591 475.591c-9.102 9.102-13.653 20.48-13.653 31.858s4.551 22.756 13.653 31.858l466.489 466.489c9.102 9.102 22.756 9.102 31.858 0s9.102-22.756 0-31.858l-466.489-464.213 475.591-475.591c9.102-9.102 9.102-22.756 0-31.858-4.551-6.827-9.102-9.102-15.929-9.102z" />
<glyph unicode="&#xe906;" glyph-name="arrow-right" horiz-adv-x="546" d="M31.858-61.724c-6.827 0-11.378 2.276-15.929 6.827-9.102 9.102-9.102 22.756 0 31.858l466.489 466.489-475.591 475.591c-9.102 9.102-9.102 22.756 0 31.858s22.756 9.102 31.858 0l475.591-475.591c18.204-18.204 18.204-45.511 0-63.716l-466.489-466.489c-4.551-4.551-9.102-6.827-15.929-6.827z" />
<glyph unicode="&#xe907;" glyph-name="arrow-down" horiz-adv-x="1280" d="M640-64c-17.067 0-25.6 8.533-34.133 17.067l-554.667 938.667c-8.533 17.067-8.533 25.6 0 42.667s25.6 25.6 34.133 25.6h1109.333c17.067 0 25.6-8.533 34.133-25.6s8.533-25.6 0-42.667l-554.667-938.667c-8.533-8.533-17.067-17.067-34.133-17.067zM162.133 874.667l477.867-810.667 477.867 810.667h-955.733z" />
<glyph unicode="&#xe908;" glyph-name="thumbup" horiz-adv-x="1142" d="M1138.987 519.637c0 58.841-47.852 106.654-106.575 106.654l-244.894 3.466 22.567 180.618c0 61.007-40.054 149.622-102.833 149.622h-66.796l-34.225-181.878-154.348-239.143c-16.423-22.961-28.042-42.102-36.47-59.274-14.454 15.911-35.249 25.994-58.407 25.994h-242.885c-43.559 0-78.966-35.446-78.966-79.006v-374.233c0-43.52 35.407-78.966 78.966-78.966h242.885c32.020 0 59.589 19.18 71.956 46.592 23.591-25.088 56.99-40.921 94.050-40.921h401.802c58.801 0 106.654 47.852 106.654 106.693 0 13.273-2.402 26.112-7.129 38.242 45.371 12.879 77.588 54.863 77.588 102.636 0 16.699-4.017 33.201-11.579 48.128 30.129 19.653 48.64 53.287 48.64 89.285 0 29.775-12.209 57.698-33.792 77.745 21.583 20.086 33.792 47.97 33.792 77.745v0zM1062.266 424.326c23.079-11.579 37.415-34.658 37.415-60.18 0-28.121-17.881-53.524-44.544-63.212l-26.309-9.649 17.999-21.465c10.201-12.13 15.793-27.412 15.793-43.087 0-37.14-30.247-67.387-67.348-67.387h-43.047l25.285-31.823c9.57-12.091 14.651-26.545 14.651-41.708 0-37.1-30.208-67.348-67.348-67.348h-401.802c-41.945 0-77.194 28.987-87.001 67.938v331.658c4.569 27.924 16.581 54.351 48.364 98.855l158.405 245.287 30.287 158.484h34.186c38.203 0 63.527-66.402 63.606-109.607l-24.222-220.475 285.696-3.623c37.14 0 67.348-30.208 67.348-67.348 0-25.521-14.336-48.601-37.455-60.18l-34.934-17.566 34.974-17.566z" />
<glyph unicode="&#xe909;" glyph-name="thumbdown" horiz-adv-x="1142" d="M3.17 376.363c0-58.841 47.852-106.654 106.575-106.654l244.894-3.466-22.567-180.618c0-61.007 40.054-149.622 102.833-149.622h66.796l34.225 181.878 154.348 239.143c16.423 22.961 28.042 42.102 36.47 59.274 14.454-15.911 35.249-25.994 58.407-25.994h242.885c43.559 0 78.966 35.446 78.966 79.006v374.233c0 43.52-35.407 78.966-78.966 78.966h-242.885c-32.020 0-59.589-19.18-71.956-46.592-23.591 25.088-56.99 40.921-94.050 40.921h-401.802c-58.801 0-106.654-47.852-106.654-106.693 0-13.273 2.402-26.112 7.129-38.242-45.371-12.879-77.588-54.863-77.588-102.636 0-16.699 4.017-33.201 11.579-48.128-30.129-19.653-48.64-53.287-48.64-89.285 0-29.775 12.209-57.698 33.792-77.745-21.583-20.086-33.792-47.97-33.792-77.745v0zM79.892 471.674c-23.079 11.579-37.415 34.658-37.415 60.18 0 28.121 17.881 53.524 44.544 63.212l26.309 9.649-17.999 21.465c-10.161 12.13-15.793 27.412-15.793 43.087 0 37.14 30.247 67.387 67.348 67.387h43.047l-25.285 31.823c-9.57 12.091-14.651 26.545-14.651 41.708 0 37.1 30.208 67.348 67.348 67.348h401.802c41.945 0 77.194-28.987 87.001-67.938v-331.658c-4.569-27.924-16.581-54.351-48.364-98.855l-158.405-245.287-30.287-158.484h-34.186c-38.203 0-63.527 66.402-63.606 109.607l24.222 220.475-285.696 3.623c-37.14 0-67.348 30.208-67.348 67.348 0 25.521 14.336 48.601 37.455 60.18l34.934 17.566-34.974 17.566z" />
<glyph unicode="&#xe90a;" glyph-name="ta" d="M1023.992 448.005c0 282.778-229.222 512-512 512s-512-229.222-512-512c0-282.778 229.222-512 512-512s512 229.222 512 512zM881.631 597.612c-1.69-2.662-3.43-5.222-5.146-7.834-12.365-18.97-22.963-38.835-29.158-60.774-0.691-2.355-0.845-4.301 0.717-6.63 32.512-46.643 42.854-97.843 29.286-153.011-11.878-48.435-39.654-86.144-81.792-112.896-30.157-19.072-63.411-28.186-98.995-28.365-14.925-0.102-29.773 1.894-44.365 5.683-35.558 9.242-66.048 26.957-91.213 53.786-3.302 3.533-6.426 7.219-9.958 11.213-13.261-19.814-26.368-39.245-39.757-59.264-13.286 19.942-26.214 39.194-39.091 58.445-0.87-0.486-1.126-0.538-1.306-0.717-0.307-0.256-0.512-0.512-0.768-0.819-30.387-35.866-68.634-57.856-115.174-65.229-25.933-4.122-51.584-2.637-76.749 4.326-35.635 9.779-65.971 28.595-90.419 56.371-23.936 27.136-38.835 58.65-44.416 94.464-6.4 33.459 1.382 65.664 3.328 73.498 5.632 22.758 15.462 43.622 28.954 62.848 0.947 1.357 1.28 3.738 0.794 5.402-5.478 20.147-14.95 38.502-26.010 56.038-2.842 4.48-6.221 8.602-9.344 12.902v1.485c0.614-0.077 1.229-0.179 1.869-0.179 37.325-0.051 74.65-0.051 111.974 0.026 1.613 0 3.405 0.666 4.813 1.536 26.214 16.845 54.17 30.157 83.507 40.576 21.171 7.45 42.752 13.261 64.819 17.536 21.325 4.147 42.803 7.066 64.461 8.499 52.89 4.045 95.13-1.562 123.238-5.478 20.71-2.944 40.986-8.141 61.082-14.31 34.944-10.778 67.968-25.754 99.046-45.158 2.176-1.357 5.043-2.202 7.578-2.202 36.48-0.154 72.96-0.077 109.414-0.128 2.918 0 5.888-0.333 8.781-0.461 0-0.742 0.102-1.024 0-1.178zM845.228 414.136c-0.077 85.427-69.35 149.606-151.322 147.942-80.896-1.664-144.205-66.893-144.947-147.533 0-81.946 66.483-148.915 148.147-148.634 81.971 0.307 148.147 65.382 148.122 148.224zM788.6 416.62c0-50.893-40.371-90.214-88.013-92.006-53.197-2.048-95.77 40.346-95.77 91.75 0.026 52.019 42.906 92.544 92.006 91.674 50.688 0.102 91.776-40.781 91.776-91.418zM756.652 416.364c-0.051 33.050-26.778 59.93-59.622 59.93-33.203 0-60.237-26.726-60.365-59.674-0.128-32.845 27.059-60.16 59.955-60.237 32.947-0.102 60.032 26.982 60.032 59.981zM727.288 416.312c-0.179-16.768-13.722-30.336-30.259-30.336-17.024 0-30.694 13.466-30.669 30.131 0.051 17.28 13.312 30.669 30.49 30.694 16.819 0 30.592-13.798 30.438-30.49zM571.128 551.301c32.768 30.054 71.808 45.824 116.122 49.178-52.582 23.373-108.006 33.306-165.069 34.381-64.819 1.28-127.898-8.269-188.134-33.536 45.030-2.765 84.582-18.458 118.016-48.845 33.357-30.336 52.915-68.173 60.006-112.691 7.27 44.006 26.317 81.485 59.059 111.514zM326.7 562.668c-79.718 0.666-149.248-65.843-147.866-150.605 1.331-79.027 66.458-146.022 149.53-145.331 81.178 0.691 146.483 67.021 146.637 147.302 0.102 82.509-65.971 148.634-148.301 148.634zM416.428 416.492c-0.154-51.277-40.55-89.754-87.373-91.878-53.402-2.432-96.486 40.141-96.41 91.853 0.102 52.378 43.29 92.442 92.109 91.571 50.662 0.077 91.827-40.858 91.674-91.546zM384.504 416.568c-0.102 33.254-27.034 59.802-60.595 59.725-32.41-0.077-59.546-27.392-59.469-59.904 0.128-32.896 27.213-59.93 60.211-60.006 32.794-0.102 59.93 27.213 59.853 60.186zM355.423 416.44c0.077-16.896-13.747-30.72-30.746-30.746-17.382-0.051-30.822 13.389-30.822 30.848 0 17.178 13.389 30.515 30.72 30.515 17.050 0.026 30.771-13.594 30.848-30.618z" />
<glyph unicode="&#xe90b;" glyph-name="ok" d="M1023.995 448.005c0 282.778-229.222 512-512 512s-512-229.222-512-512c0-282.778 229.222-512 512-512s512 229.222 512 512zM648.699 578.668c0-75.981-58.726-142.029-136.704-142.029s-136.704 66.048-136.704 142.029c0 75.955 58.726 142.029 136.704 142.029s136.704-66.074 136.704-142.029zM663.368 392.709c0-41.344-66.048-58.675-98.074-65.357l78.054-80.691c7.347-7.987 12.006-18.662 12.006-29.338 0-21.99-17.331-42.010-40.038-42.010-10.675 0-21.35 3.994-28.672 12.006l-74.65 77.363-74.65-77.363c-7.322-8.013-17.997-12.006-28.672-12.006-22.707 0-40.038 19.328-40.038 42.010 0 10.675 4.659 21.35 12.006 29.338l78.054 80.691c-32.026 6.682-98.074 22.682-98.074 64.691 0 21.99 17.331 41.933 40.038 41.933 6.656 0 12.672-1.997 18.688-4.659 30.694-14.618 57.344-23.936 91.981-23.936 32.64 0 63.949 8.653 93.312 23.936 6.016 3.328 12.032 5.325 18.688 5.325 22.707 0 40.038-19.942 40.038-41.933zM568.622 578.668c0 31.309-24.653 58.624-56.627 58.624s-56.627-27.315-56.627-58.624c0-31.309 24.653-58.624 56.627-58.624s56.627 27.315 56.627 58.624z" />
<glyph unicode="&#xe90c;" glyph-name="vk" d="M1023.997 448.005c0 282.778-229.222 512-512 512s-512-229.222-512-512c0-282.778 229.222-512 512-512s512 229.222 512 512zM836.682 580.434c-8.832-27.853-26.035-51.046-42.829-74.317-17.997-24.883-37.222-48.896-55.040-73.882-16.384-22.938-15.078-34.432 5.274-54.272 22.528-22.016 46.336-42.726 66.611-67.021 8.96-10.726 17.434-21.862 23.859-34.355 9.165-17.792 0.87-37.376-15.078-38.4h-99.072c-25.574-2.099-45.926 8.218-63.104 25.702-13.696 13.952-26.419 28.8-39.603 43.264-5.402 5.888-11.085 11.469-17.843 15.872-13.517 8.781-25.242 6.093-32.947-8.013-7.936-14.362-9.702-30.259-10.47-46.234-1.075-23.373-8.115-29.466-31.565-30.566-50.074-2.33-97.613 5.248-141.773 30.49-38.963 22.272-69.094 53.683-95.386 89.318-51.149 69.35-90.342 145.51-125.568 223.846-7.91 17.664-2.125 27.085 17.306 27.469 32.358 0.614 64.666 0.512 97.024 0 13.158-0.179 21.862-7.706 26.931-20.122 17.434-42.982 38.886-83.917 65.741-121.83 7.117-10.138 14.438-20.173 24.832-27.315 11.469-7.885 20.198-5.299 25.6 7.526 3.482 8.141 4.992 16.845 5.76 25.6 2.56 29.85 2.867 59.725-1.587 89.498-2.79 18.662-13.261 30.669-31.821 34.176-9.472 1.792-8.090 5.299-3.482 10.726 7.962 9.344 15.488 15.104 30.413 15.104l111.949 0.026c17.638-3.43 21.606-11.392 23.962-29.158l0.102-124.365c-0.154-6.886 3.456-27.264 15.846-31.77 9.882-3.277 16.41 4.659 22.323 10.931 26.829 28.467 45.952 62.131 63.053 96.896 7.578 15.334 14.080 31.232 20.454 47.155 4.685 11.75 12.006 17.536 25.293 17.331l107.75-0.128c3.2 0 6.451 0 9.574-0.538 18.176-3.123 23.142-10.957 17.51-28.646z" />
<glyph unicode="&#xe90d;" glyph-name="tg" d="M436.636 346.258c13.85-10.317 27.725-20.659 41.6-31.002-14.49-14.31-29.005-28.621-43.469-42.906-1.331-1.382-2.586-2.842-3.917-4.224l0.691 9.446c1.664 22.886 3.354 45.798 5.094 68.685zM550.556 547.986c-70.426-44.442-140.877-88.986-211.354-133.402-1.434-0.87-2.995-1.587-4.582-2.304 9.242-29.491 18.458-59.008 27.674-88.55 6.554-20.787 13.389-41.498 19.61-62.362 2.56-8.678 7.014-13.286 16.41-11.648 2.586 35.302 5.094 70.579 7.757 105.907 0.307 4.122 0.794 8.294 1.28 12.416-3.968 2.304-2.227 6.682-0.845 8.115 2.432 2.509 4.864 5.069 7.296 7.603 0.87 0.794 1.766 1.613 2.611 2.432 1.229 1.28 2.406 2.534 3.635 3.789 5.811 5.427 11.622 10.957 17.459 16.41 3.328 3.149 6.682 6.298 10.010 9.421 9.062 8.474 18.099 16.947 27.29 25.267 23.398 21.274 47.258 42.061 70.707 63.232 29.901 27.034 59.699 54.17 89.318 81.51 2.176 3.021 3.584 6.912 5.478 10.24-5.299-0.717-11.52 0.179-15.744-2.304-24.909-14.848-49.434-30.285-74.010-45.773zM1024.003 447.992c0-282.752-229.248-512-512-512-282.803 0-512 229.248-512 512 0 282.803 229.197 512 512 512 282.752 0 512-229.197 512-512zM740.636 651.973c-0.282 1.971-0.461 3.968-0.87 5.888-4.506 21.734-16.41 28.288-37.734 20.992-3.123-1.050-6.323-1.741-9.498-2.586-11.904-4.915-23.68-10.189-35.738-14.694-19.994-7.526-40.192-14.592-60.365-21.862-12.288-5.12-24.499-10.47-36.915-15.334-31.078-12.134-62.208-24.064-93.338-36.096-64.077-24.704-128.179-49.382-192.282-74.086-14.413-5.555-28.928-10.829-43.187-16.768-12.518-5.171-25.318-10.163-36.838-17.126-5.12-3.046-10.752-11.136-10.163-16.256 0.563-5.171 8.474-9.574 13.312-14.208 0.896-0.845 2.381-1.101 3.661-1.51 33.971-10.496 67.942-21.018 101.939-31.514-0.205-3.533 0.205-7.142 1.331-10.726l12.339-39.654 16.256-51.994c1.894-6.042 3.814-11.981 5.709-17.894 4.608-14.49 9.421-29.466 13.773-44.109 9.523-31.744 35.174-34.202 42.803-34.202 1.126 0 2.355 0.051 3.558 0.102 1.152-0.051 2.33-0.077 3.507-0.077 19.61 0 32.205 10.803 39.706 17.28 1.382 1.203 2.714 2.304 3.661 3.046 1.562 1.152 3.021 2.432 4.25 3.814 0.973 1.024 1.869 2.074 2.842 3.072 1.587 1.766 3.046 3.43 4.352 4.71 11.418 11.29 22.784 22.554 34.227 33.818l13.542 13.363c1.894-1.306 3.814-2.637 5.734-3.942 30.822-22.989 61.568-46.106 92.493-68.992 23.091-17.050 39.219-12.646 50.406 13.44 4.736 21.99 9.472 44.032 14.182 65.971 4.326 21.939 8.602 43.802 12.902 65.715 2.739 12.006 5.453 24.090 8.166 36.096 7.219 33.894 14.413 67.789 21.581 101.683 2.33 10.829 4.634 21.632 6.938 32.461 0.563 2.56 1.254 5.146 1.766 7.731 7.347 34.816 14.669 69.632 21.99 104.448z" />
<glyph unicode="&#xe90e;" glyph-name="inst" d="M511.995 372.892c41.446 0 75.11 33.664 75.11 75.11s-33.664 75.11-75.11 75.11c-41.472 0-75.11-33.664-75.11-75.11s33.638-75.11 75.11-75.11v0zM674.171 592.873c22.63 0 40.909 18.33 40.909 40.909 0 22.605-18.278 40.883-40.909 40.883-22.579 0-40.883-18.278-40.883-40.883 0-22.579 18.304-40.909 40.883-40.909v0zM662.216 448.003c0-82.97-67.251-150.221-150.221-150.221s-150.221 67.251-150.221 150.221c0 17.459 3.123 34.176 8.602 49.792h-72.602v-203.622c0-35.149 28.774-63.923 63.949-63.923h289.894c35.149 0 63.949 28.774 63.949 63.923v267.622h-105.651c31.974-27.571 52.301-68.25 52.301-113.792v0zM511.995 960.003c-282.778 0-512-229.222-512-512s229.222-512 512-512c282.778 0 512 229.222 512 512s-229.222 512-512 512v0zM785.352 240.387c0-46.899-38.374-85.325-85.325-85.325h-386.739c-46.95 0-85.35 38.426-85.35 85.325v386.79c0 46.95 38.4 85.35 85.35 85.35h386.79c46.899 0 85.325-38.4 85.325-85.35v-386.79h-0.051z" />
<glyph unicode="&#xe90f;" glyph-name="yb" d="M1023.997 448.003c0 282.778-229.222 512-512 512s-512-229.222-512-512c0-282.778 229.222-512 512-512s512 229.222 512 512v0zM434.532 798.083l-37.274-111.667c-7.475-21.683-20.326-44.032-20.326-67.738 0-35.917 0.666-71.834 0.666-107.648h-49.382v97.485c0 31.155-10.88 46.080-20.378 73.856l-39.245 115.712h50.79l31.181-114.355h3.379l30.413 114.355h50.176zM560.509 563.791c0-39.245-27.136-58.163-64.333-58.163-35.942 0-63.667 21.606-63.667 58.829v109.773c0 37.222 31.795 54.093 65.69 54.093 32.461 0 62.31-20.25 62.31-54.758v-109.773zM723.658 511.030h-43.955v23.629c-13.594-13.517-31.206-26.342-51.482-26.342-23.040 0-31.181 17.562-31.181 37.862v176.742h44.698v-162.534c0-8.115 2.022-14.208 11.494-14.208 8.806 0 20.352 10.138 26.47 16.256v160.486h43.955v-211.891zM805.578 297.705c0-32.563 0-65.715-4.045-98.253-7.45-50.099-36.506-70.374-85.325-75.11-32.435-3.379-66.381-3.379-98.816-3.379h-210.637c-33.203 0-66.33 0-99.584 3.379-48.051 4.736-77.133 25.011-84.582 75.11-4.736 32.538-4.147 65.69-4.147 98.253 0 32.435-0.589 65.69 4.147 98.15 7.45 50.125 36.531 70.4 84.582 75.136 33.254 3.379 66.381 3.379 99.584 3.379h209.946c33.126 0 67.072 0 99.507-3.379 48.819-4.736 77.875-25.011 85.325-75.136 4.045-32.461 4.045-65.715 4.045-98.15v0zM689.201 236.751v32.435h67.046v43.392c0 31.13-18.33 50.816-50.176 50.816-29.773 0-54.195-18.995-54.195-50.816v-76.518c0-32.538 18.995-53.555 51.507-53.555 45.389 0 53.53 26.445 52.864 66.432h-35.968c0-4.736 0-10.163-0.026-14.899 0-11.546-2.688-21.018-16.205-21.018-14.848 0-14.848 12.211-14.848 23.731v0zM689.175 295.683v18.918c0 10.803 4.045 18.227 15.539 18.227s15.565-8.090 15.565-18.227v-18.918h-31.104zM624.868 223.183v0 94.797c0 22.323-8.832 42.701-34.637 42.701-12.16 0-22.963-6.784-31.053-15.616v74.547h-35.994v-232.371h35.891v13.568c9.498-10.189 18.995-15.59 33.229-15.59 23.731 0 32.563 16.256 32.563 37.965v0zM588.209 226.563c0-8.806-2.714-14.234-12.16-14.234-7.424 0-12.16 2.714-16.87 7.45v106.982c3.354 4.045 8.755 6.758 14.848 6.758 10.803 0 14.182-7.424 14.182-16.896v-90.061zM452.759 187.241h35.277v171.418h-35.277v-130.048c-5.402-6.118-12.826-12.902-21.606-12.902-6.758 0-8.781 5.453-8.781 11.546v131.405h-35.968v-144.282c0-15.616 7.45-29.85 25.114-29.85 14.899 0 31.104 10.854 41.242 21.709v-18.995zM345.162 385.667h41.907v33.946h-123.213v-33.946h41.267v-198.426h40.038v198.426zM515.069 560.387v115.866c0 9.498-10.112 15.59-18.893 15.59s-17.613-6.093-17.613-15.59v-115.866c0-10.829 6.784-17.613 17.613-17.613 11.469 0 18.893 5.427 18.893 17.613v0z" />
<glyph unicode="&#xe910;" glyph-name="tw" d="M512 960.005c-282.778 0-512-229.222-512-512s229.222-512 512-512c282.778 0 512 229.222 512 512s-229.222 512-512 512zM766.49 578.514c0.256-5.632 0.384-11.29 0.384-16.973 0-173.517-132.070-373.606-373.606-373.606-74.163 0-143.155 21.734-201.267 58.982 10.266-1.203 20.736-1.818 31.334-1.818 61.517 0 118.118 20.992 163.072 56.218-57.472 1.050-105.958 39.014-122.675 91.187 8.013-1.536 16.23-2.355 24.704-2.355 11.981 0 23.578 1.613 34.611 4.608-60.083 12.032-105.344 65.126-105.344 128.717 0 0.589 0 1.126 0.026 1.69 17.69-9.856 37.939-15.77 59.469-16.435-35.251 23.526-58.445 63.744-58.445 109.312 0 24.038 6.502 46.592 17.792 65.971 64.742-79.437 161.536-131.686 270.643-137.165-2.253 9.6-3.405 19.635-3.405 29.926 0 72.499 58.803 131.302 131.328 131.302 37.76 0 71.885-15.974 95.846-41.498 29.901 5.888 58.010 16.845 83.379 31.872-9.83-30.643-30.643-56.371-57.754-72.627 26.573 3.174 51.891 10.214 75.418 20.685-17.587-26.342-39.859-49.459-65.51-67.994z" />
<glyph unicode="&#xe911;" glyph-name="fb" d="M1024 448c0 282.778-229.222 512-512 512s-512-229.222-512-512c0-282.778 229.222-512 512-512s512 229.222 512 512v0zM636.723 450.637h-123.418v-304.589h-91.878v304.589h-107.674v76.134h107.674v105.011c0 60.39 47.258 110.285 105.011 110.285h110.285v-81.382h-84.019c-21.018 0-39.398-21.018-39.398-44.646v-89.267h123.418v-76.134z" />
<glyph unicode="&#xe912;" glyph-name="play" d="M1024 448c0 282.757-229.233 512-512 512s-512-229.243-512-512c0-282.757 229.233-512 512-512s512 229.243 512 512zM705.065 407.040l-283.73-163.84c-70.943-40.96-70.943 40.96-70.943 40.96v327.68c0 81.92 70.943 40.96 70.943 40.96l283.73-163.84c70.932-40.96 0-81.92 0-81.92z" />
<glyph unicode="&#xe913;" glyph-name="wr" d="M1024 448c0 282.767-229.233 512-512 512s-512-229.233-512-512c0-282.767 229.233-512 512-512s512 229.233 512 512v0zM839.68 323.645c-0.041-26.245-21.268-47.534-47.514-47.677h-221.184c-6.226-0.102-11.919 3.502-14.5 9.175l-31.212 65.536c-1.526 3.154-4.076 5.704-7.219 7.219-7.741 3.748-17.050 0.522-20.797-7.219l-32.768-66.519c-2.806-5.1-8.182-8.253-14.008-8.192h-218.481c-26.307 0.041-47.636 21.361-47.677 47.677v248.719c0.041 26.307 21.371 47.626 47.677 47.667h560.005c26.317-0.041 47.636-21.361 47.677-47.667v-248.719zM715.162 448v0.246c-0.133 30.904-25.293 55.849-56.197 55.706-30.904-0.133-55.839-25.293-55.706-56.187 0.133-30.904 25.293-55.859 56.197-55.716 30.802 0.133 55.706 25.149 55.706 55.951v0zM420.25 448v0.246c-0.133 30.904-25.293 55.849-56.197 55.706-30.904-0.133-55.839-25.293-55.706-56.187 0.133-30.904 25.293-55.859 56.197-55.716 30.802 0.133 55.706 25.149 55.706 55.951v0z" />
</font>
</defs>
</svg>
